<?xml version="1.0" encoding="UTF-8" standalone="no"?>
<!-- Created with Inkscape (http://www.inkscape.org/) -->

<svg
   width="1000mm"
   height="1000mm"
   viewBox="0 0 1000 1000"
   version="1.1"
   id="svg5"
   inkscape:version="1.2.2 (b0a8486541, 2022-12-01)"
   sodipodi:docname="entrance.svg"
   xml:space="preserve"
   inkscape:export-filename="entrance.png"
   inkscape:export-xdpi="96"
   inkscape:export-ydpi="96"
   xmlns:inkscape="http://www.inkscape.org/namespaces/inkscape"
   xmlns:sodipodi="http://sodipodi.sourceforge.net/DTD/sodipodi-0.dtd"
   xmlns="http://www.w3.org/2000/svg"
   xmlns:svg="http://www.w3.org/2000/svg"><sodipodi:namedview
     id="namedview7"
     pagecolor="#ffffff"
     bordercolor="#000000"
     borderopacity="0.25"
     inkscape:showpageshadow="2"
     inkscape:pageopacity="0.0"
     inkscape:pagecheckerboard="0"
     inkscape:deskcolor="#d1d1d1"
     inkscape:document-units="mm"
     showgrid="true"
     inkscape:zoom="0.19769126"
     inkscape:cx="2301.5687"
     inkscape:cy="1332.8865"
     inkscape:window-width="1280"
     inkscape:window-height="658"
     inkscape:window-x="0"
     inkscape:window-y="0"
     inkscape:window-maximized="1"
     inkscape:current-layer="layer1"><inkscape:grid
       type="xygrid"
       id="grid9"
       spacingx="26.458333"
       spacingy="26.458333"
       originx="0"
       originy="0" /></sodipodi:namedview><defs
     id="defs2"><rect
       x="1700"
       y="3400"
       width="1400"
       height="499.99999"
       id="rect3093" /><rect
       x="499.99999"
       y="2700"
       width="1300"
       height="699.99999"
       id="rect3087" /><rect
       x="1700"
       y="3400"
       width="1400"
       height="500"
       id="rect3093-3" /><rect
       x="1700"
       y="3400"
       width="1400"
       height="500"
       id="rect3093-6" /><rect
       x="1700"
       y="3400"
       width="1400"
       height="500"
       id="rect3093-2" /></defs><g
     inkscape:label="Layer 1"
     inkscape:groupmode="layer"
     id="layer1"><g
       id="g36250"
       transform="matrix(0.64547882,0,0,0.64547882,141.5122,42.392359)"
       style="stroke-width:0.409902"><path
         id="path35099"
         style="fill:#000000;fill-opacity:1;stroke:none;stroke-width:2.04951;stroke-linecap:round;stroke-miterlimit:0"
         d="M 600,100 A 450,450 0 0 0 150,550 h 900 A 450,450 0 0 0 600,100 Z" /><path
         id="path30105"
         d="m 600,117.99414 c -38.28996,0 -72.96096,15.70026 -97.96094,40.99024 C 469.88909,140.35439 442.29,127.7457 439.75,126.5957 l -7.96094,-3.61132 -3.39844,8.05078 c -1.15999,2.74999 -14.51133,34.58964 -26.11132,73.59961 -38.63996,-2.87 -78.26003,10.40088 -107.75,39.88085 -27.06998,27.06998 -40.4893,62.69981 -40.2793,98.25977 -35.90996,9.55999 -64.33922,20.15867 -66.94922,21.13867 l -8.18164,3.08008 3.28125,8.10156 c 1.12,2.77 14.2001,34.7198 33.58008,70.50977 C 186.6405,470.90544 168,508.30418 168,549.99414 V 550 h 17.03906 v -0.006 c 0,-35.29996 15.2212,-67.09901 39.45117,-89.20898 3.66,6.31999 7.47946,12.63985 11.43946,18.83984 -18.10998,17.98998 -29.33985,42.88917 -29.33985,70.36914 V 550 h 17.0293 v -0.006 c 0,-21.56998 8.36025,-41.20892 21.99024,-55.87891 16.40998,23.34998 34.58095,43.12017 52.71093,51.16016 h 0.01 c -2.99759,1.25116 -6.00834,2.89806 -9.02149,4.72461 h 53.89453 c -0.24934,-0.11444 -0.51182,-0.23146 -0.7539,-0.3457 0.89,-0.4 1.85125,-0.81852 2.78125,-1.22852 1.47,-0.64 2.9793,-1.29117 4.5293,-1.95117 0.5,-0.21 0.99953,-0.41867 1.51953,-0.63867 0.83,-0.34 1.66148,-0.69125 2.52148,-1.03125 2.75,-1.11 5.62914,-2.22985 8.61914,-3.33985 1.56,-0.58 3.16102,-1.1507 4.79102,-1.7207 6.01999,-2.12 12.42946,-4.15906 19.18945,-6.03906 2.7,-0.75 5.45977,-1.47016 8.25977,-2.16016 2.57999,-0.64 5.19914,-1.24055 7.86914,-1.81054 l 0.41992,-0.0898 c 3.25,-0.69 6.54039,-1.34969 9.90039,-1.92969 2.73,-0.47 5.50102,-0.89906 8.29101,-1.28906 l 0.44922,-0.0606 c 0.87,-0.12 1.7411,-0.22007 2.6211,-0.33007 2.03,-0.26 4.06867,-0.49922 6.13867,-0.69922 0.78,-0.08 1.57133,-0.15071 2.36133,-0.22071 2.81999,-0.26 5.6593,-0.45937 8.52929,-0.60937 3.86,-0.21 7.7397,-0.35156 11.67969,-0.35156 16.91998,0 33.49978,0.88055 49.00977,2.56054 -1.2,5.07 -2.01969,10.27962 -2.42969,15.59961 l -55.91992,5.1211 -8.5,0.77929 -6.50977,0.59961 -1.99023,0.17969 -6.54102,0.60156 -4.43359,0.4043 h 100.59375 v -0.006 c 0,-7.38999 0.94141,-14.34985 2.6914,-21.08984 0.46,-1.76 0.9886,-3.49875 1.5586,-5.21875 0.33,-1.01 0.68078,-2.01977 1.05078,-3.00977 0.66,-1.76 1.39016,-3.49141 2.16016,-5.1914 0.44,-0.96 0.87961,-1.90962 1.34961,-2.84961 0.80999,-1.63 1.67984,-3.2193 2.58984,-4.7793 7.24999,-12.40999 17.59071,-22.78985 29.9707,-30.08985 1.47,-0.86999 2.97024,-1.68093 4.49024,-2.46093 1.04,-0.53 2.10015,-1.0393 3.16015,-1.5293 1.6,-0.73 3.21938,-1.42078 4.85938,-2.05078 1.08,-0.42 2.17906,-0.80969 3.28906,-1.17969 1.62,-0.55 3.27164,-1.05 4.93164,-1.5 6.91999,-1.86 14.1797,-2.85937 21.67969,-2.85937 7.49999,0 14.18938,0.9089 20.85937,2.6289 1.74,0.45 3.45063,0.97149 5.14063,1.52149 1.04,0.34 2.06984,0.68836 3.08984,1.06836 1.73,0.64 3.41985,1.35133 5.08985,2.11132 0.99,0.45 1.97922,0.89891 2.94922,1.37891 1.60999,0.8 3.19023,1.66078 4.74023,2.55078 12.45999,7.22 22.90024,17.5497 30.24023,29.92969 1.02,1.71 1.96938,3.46 2.85938,5.25 0.39,0.77 0.76086,1.55984 1.13086,2.33984 0.86,1.86 1.66062,3.75946 2.39062,5.68946 0.31,0.82 0.58914,1.65047 0.86914,2.48047 0.64,1.88999 1.24024,3.8 1.74024,5.75 1.75,6.73999 2.68945,13.80985 2.68945,21.08984 0,0.009 -0.002,0.0169 -0.002,0.0254 h 100.53906 l -4.32617,-0.39453 -6.54102,-0.59961 -1.99023,-0.18164 -6.50977,-0.59961 -8.5,-0.7793 -55.91992,-5.12109 c -0.41,-5.33 -1.21969,-10.53962 -2.42969,-15.59961 15.50999,-1.68 32.09979,-2.56055 49.00977,-2.56055 3.93,0 7.81969,0.15133 11.67969,0.36133 2.86999,0.16 5.71125,0.36867 8.53125,0.63867 0.79,0.07 1.58914,0.15047 2.36914,0.23047 1.23,0.13 2.45969,0.26016 3.67969,0.41016 0.81999,0.1 1.61968,0.21031 2.42968,0.32031 0.88,0.12 1.77063,0.21961 2.64063,0.34961 2.94999,0.42 5.87,0.89016 8.75,1.41016 0.2,0.04 0.41109,0.0694 0.62109,0.10937 3.13,0.57 6.18875,1.21063 9.21875,1.89063 2.81,0.62 5.56125,1.29047 8.28125,1.98046 1.25,0.32 2.49852,0.63071 3.72852,0.97071 1.53,0.41 3.03125,0.84929 4.53125,1.27929 8.62999,2.5 16.70008,5.26938 24.08007,8.10938 2.63,1.02 5.16915,2.04055 7.61915,3.06055 0.05,0.02 0.0906,0.0405 0.14062,0.0605 0.28,0.12 0.56961,0.23961 0.84961,0.34961 3.01,1.27 5.86032,2.52977 8.57031,3.75977 0.39938,0.18466 0.78904,0.36316 1.18946,0.54492 h 54.67968 c 16.7596,-10.15884 33.61987,-28.59255 49.02149,-49.55469 10.44888,13.78853 16.6686,30.95698 16.66992,49.55469 h 17.0293 c -0.004,-24.39384 -8.87242,-46.7389 -23.5293,-64.03516 4.19,-6.21999 8.22008,-12.5193 12.08008,-18.77929 20.42658,21.63642 32.99588,50.78069 32.99998,82.81445 H 1032 v -0.006 c 0,-38.28996 -15.7003,-72.95901 -40.99023,-97.95898 18.62983,-32.14997 31.24073,-59.75102 32.39063,-62.29102 l 3.6094,-7.95898 -8.0508,-3.40039 c -2.75,-1.17 -34.58961,-14.51939 -73.59962,-26.10938 2.86999,-38.63996 -10.39894,-78.26003 -39.87891,-107.75 -27.06997,-27.06997 -62.6998,-40.49125 -98.25977,-40.28125 -9.55999,-35.90996 -20.16062,-64.33922 -21.14062,-66.94922 L 783,129.11523 l -8.09961,3.2793 c -2.77,1.12 -34.7198,14.2001 -70.50977,33.58008 C 679.09065,136.63464 641.68996,117.99414 600,117.99414 Z m 0,17.04102 c 35.29996,0 67.10096,15.21924 89.21094,39.44922 -6.32,3.65999 -12.64181,7.48141 -18.8418,11.4414 C 652.37916,167.8158 627.47997,156.58594 600,156.58594 c -24.39998,0 -46.7508,8.86931 -64.05078,23.52929 -6.22,-4.18999 -12.5193,-8.22008 -18.7793,-12.08007 21.63998,-20.42998 50.79011,-33 82.83008,-33 z M 440.71094,145.8457 c 13.23998,6.31 31.08869,15.45931 49.88867,26.2793 2.44,1.41 4.9011,2.84078 7.37109,4.30078 2.46,1.46 4.94016,2.93946 7.41016,4.43945 6.13999,3.74 12.2693,7.61938 18.2793,11.60938 2.37999,1.58 4.74031,3.16953 7.07031,4.76953 2.38,1.64 4.7193,3.29117 7.0293,4.95117 24.50997,17.60998 44.92008,36.47979 51.58007,53.50977 1.62,4.15999 2.93047,8.38063 3.98047,12.64062 -3.72999,6.75 -8.52946,16.15845 -13.43945,27.64844 -0.89,0.07 -1.77992,0.16024 -2.66992,0.24024 0.99,-12.03999 -0.75126,-24.24986 -5.28125,-35.83985 -6.11,-15.61998 -23.7494,-31.47947 -43.35938,-45.18945 -2.34,-1.64 -4.70984,-3.24055 -7.08984,-4.81055 -2.38,-1.57 -4.76063,-3.09984 -7.14063,-4.58984 -6.30999,-3.95 -12.5793,-7.62876 -18.52929,-10.96875 -2.57,-1.44 -5.08001,-2.8211 -7.5,-4.1211 -2.61,-1.39999 -5.11024,-2.72898 -7.49024,-3.95898 -10.85999,-5.62999 -19.05117,-9.41133 -21.70117,-10.61133 l -7.95898,-3.60937 -3.40039,8.05078 c -1.39,3.28999 -6.28923,15.09939 -11.69922,30.85937 -0.89,2.58 -1.77969,5.26907 -2.67969,8.03907 -0.86,2.64999 -1.72031,5.37015 -2.57031,8.16015 -2.03,6.65999 -4,13.67126 -5.75,20.78125 -0.68,2.77 -1.33141,5.54985 -1.94141,8.33984 -0.62,2.83 -1.18898,5.65852 -1.70898,8.47852 -3.76,20.35998 -4.76969,40.1115 0.57031,53.77148 4.70999,12.04999 12.01907,22.31947 21.03906,30.43946 -2.69,2.11 -5.33945,4.28977 -7.93945,6.50976 -6.2,-2.59999 -11.94985,-4.77961 -17.08985,-6.59961 -4.84999,-6.70999 -8.89047,-14.07047 -11.98046,-21.98046 -6.05,-15.48999 -4.75992,-39.82011 0.0801,-66.33008 0.51,-2.78 1.05086,-5.5804 1.63086,-8.40039 0.57,-2.75 1.15907,-5.51907 1.78907,-8.28907 1.57999,-6.96999 3.36023,-13.99117 5.24023,-20.95117 0.75,-2.76999 1.52055,-5.5293 2.31055,-8.27929 0.78,-2.73 1.5789,-5.45063 2.3789,-8.14063 l -0.0195,-0.01 c 7.13999,-23.79998 15.15102,-45.78869 21.29102,-61.13868 z m 332.43945,5.75 c 4.9,13.81999 11.04923,32.9194 16.69922,53.85938 0.73,2.72 1.45992,5.47977 2.16992,8.25976 0.71,2.77 1.40985,5.57087 2.08985,8.38086 1.69999,6.99 3.2907,14.06868 4.7207,21.13868 0.57,2.79999 1.12086,5.59086 1.63086,8.38085 0.52,2.84 1.00875,5.66071 1.46875,8.47071 4.87999,29.77997 5.97062,57.55884 -1.35938,74.29883 -1.8,4.10999 -3.87039,8.02 -6.15039,11.75 -7.43999,2.14999 -17.52993,5.40984 -29.16992,10.08984 -0.67,-0.57 -1.33,-1.12945 -2,-1.68945 9.25999,-7.83 16.68946,-17.72041 21.68945,-29.15039 6.73,-15.36999 5.47101,-39.0494 1.29102,-62.60938 -0.5,-2.81 -1.04133,-5.61992 -1.61133,-8.41992 -0.57,-2.79 -1.17859,-5.56079 -1.80859,-8.30078 -1.67,-7.26 -3.49961,-14.29938 -5.34961,-20.85938 -0.8,-2.83999 -1.60063,-5.5907 -2.39063,-8.2207 -0.85,-2.83 -1.69,-5.53961 -2.5,-8.09961 -3.69999,-11.65999 -6.81984,-20.11985 -7.83984,-22.83984 l -3.08008,-8.17969 -8.09961,3.2793 c -3.31,1.33999 -15.11986,6.23078 -30.08984,13.55078 -2.45,1.2 -4.99008,2.45906 -7.58008,3.78906 -2.48,1.26 -5.0218,2.58117 -7.5918,3.95117 -6.14999,3.27 -12.48954,6.82891 -18.76953,10.62891 -2.44,1.48 -4.86953,2.99125 -7.26953,4.53125 -2.44,1.57 -4.84094,3.15906 -7.21094,4.78906 -17.04998,11.73999 -31.73914,24.98994 -37.61914,38.41992 -5.16999,11.81999 -7.26062,24.21103 -6.64062,36.29102 -3.54,-0.43 -7.08993,-0.79032 -10.66992,-1.07032 -2.43,-5.89999 -4.82032,-11.24094 -7.07032,-15.96093 1.29,-8.38999 3.66016,-16.6604 7.16016,-24.65039 6.66999,-15.22999 24.77119,-31.52939 46.95117,-46.85938 2.32,-1.6 4.68961,-3.1993 7.09961,-4.7793 2.35,-1.53999 4.73086,-3.07984 7.13086,-4.58984 6.04999,-3.80999 12.25954,-7.52133 18.51953,-11.11133 2.49,-1.43 4.99024,-2.83875 7.49023,-4.21875 2.49,-1.38 4.96946,-2.73031 7.43946,-4.07031 21.87998,-11.77999 43.08908,-21.66993 58.28906,-28.16992 z M 600.00977,173.625 c 21.56997,0 41.21087,8.36025 55.88085,21.99023 -23.34997,16.40999 -43.12016,34.57901 -51.16015,52.70899 v 0.0117 c -8.20999,-19.66996 -29.55128,-39.87102 -54.28125,-58.041 13.78998,-10.44999 30.96056,-16.66992 49.56055,-16.66992 z m -139.90039,21.81055 c 3.90999,1.89999 8.31148,4.11031 13.02148,6.57031 2.43,1.27 4.94953,2.60953 7.51953,4.01953 2.47,1.34 4.97907,2.73969 7.53906,4.17969 6.16,3.47999 12.50024,7.24946 18.74024,11.18945 2.47,1.56 4.91984,3.14953 7.33984,4.76953 2.48,1.66 4.92055,3.33125 7.31055,5.03125 16.42998,11.68999 30.13,24.20064 34.5,35.39063 4.08999,10.46999 5.19047,21.36907 3.73047,31.78906 -8.93999,1.42 -17.72032,3.32039 -26.32032,5.65039 -2.78999,0.76 -5.56031,1.54867 -8.32031,2.38867 l -0.39062,0.1211 c -2.6,0.81 -5.19001,1.66078 -7.75,2.55078 -0.19,0.06 -0.3686,0.12922 -0.5586,0.19922 -2.49999,0.87 -4.97164,1.7807 -7.43164,2.7207 -4.35999,1.67 -8.65844,3.44961 -12.89844,5.34961 -2.41999,1.08 -4.82117,2.20937 -7.20117,3.35937 -0.19,0.09 -0.38008,0.19102 -0.58007,0.29102 -2.45,1.2 -4.87907,2.43875 -7.28907,3.71875 -0.09,0.05 -0.16976,0.0906 -0.25976,0.14062 -2.57,1.36 -5.12087,2.75899 -7.63086,4.20899 -5.47,3.15 -10.80954,6.51078 -16.01953,10.05078 -8.36,-6.70999 -15.15032,-15.62079 -19.32032,-26.30078 l -0.01,-0.0195 c -3.63,-9.27999 -3.1493,-23.56994 -0.5293,-39.41992 0.49,-2.96 1.04969,-5.96977 1.67969,-9.00977 0.59,-2.88 1.24945,-5.79094 1.93945,-8.71094 1.7,-7.14999 3.6793,-14.34961 5.7793,-21.34961 0.84,-2.79999 1.69055,-5.54977 2.56055,-8.25976 0.88999,-2.78 1.77968,-5.5004 2.67968,-8.15039 2.85,-8.44999 5.68993,-16.14876 8.16993,-22.46875 z m 291.6914,4.91992 c 1.42,4.09999 2.9686,8.77961 4.5586,13.84961 0.81999,2.62 1.65046,5.35016 2.48046,8.16015 0.8,2.69 1.5911,5.45907 2.3711,8.28907 1.89,6.81999 3.70812,13.96016 5.32812,21.16015 0.64,2.85 1.25032,5.71055 1.82032,8.56055 0.57999,2.93 1.12132,5.84047 1.61132,8.73047 3.35,19.87998 4.18914,38.40993 -0.63086,49.41992 -4.43999,10.13999 -11.2904,18.73899 -19.90039,25.20899 -7.23999,-5.26 -14.75883,-10.15845 -22.54883,-14.64844 -2.52999,-1.46 -5.09969,-2.86024 -7.67968,-4.24024 -0.09,-0.05 -0.17172,-0.0906 -0.26172,-0.14062 -2.41,-1.28 -4.83907,-2.52071 -7.28906,-3.7207 -0.17,-0.09 -0.33954,-0.16977 -0.51954,-0.25977 -2.39999,-1.17 -4.81976,-2.29867 -7.25976,-3.38867 -4.24,-1.9 -8.5404,-3.68157 -12.90039,-5.35156 -2.46,-0.94 -4.93969,-1.84876 -7.42969,-2.71876 -0.19,-0.06 -0.37055,-0.13117 -0.56055,-0.20117 -2.56999,-0.89 -5.14976,-1.73883 -7.75976,-2.54883 l -0.39063,-0.12109 c -2.74999,-0.85 -5.53031,-1.63867 -8.32031,-2.38867 -6.05999,-1.64 -12.19969,-3.06 -18.42969,-4.25 -1.15,-10.62999 0.35923,-21.69017 4.94922,-32.16016 v 0.01 c 4,-9.11999 14.43002,-18.90001 27.5,-28.25 2.44,-1.75 4.96055,-3.48141 7.56055,-5.19141 2.46,-1.62 4.98102,-3.20906 7.54101,-4.78906 6.26,-3.85 12.7497,-7.54977 19.17969,-11.00977 2.57,-1.37999 5.1204,-2.72929 7.65039,-4.02929 2.59,-1.34 5.15016,-2.6311 7.66016,-3.8711 7.98999,-3.94999 15.44993,-7.38937 21.66992,-10.10937 z M 391.98047,221.25586 H 392 c 1.85341,3.5e-4 3.6973,0.0492 5.55078,0.12891 -1.88,7.04999 -3.65047,14.23016 -5.23047,21.41015 -25.51997,-0.08 -51.07002,9.57979 -70.5,29.00977 -16.78998,16.78998 -26.79117,38.53947 -28.70117,61.93945 -7.33999,1.43 -14.63954,3.03047 -21.76953,4.73047 0.86,-29.74997 12.58026,-59.24041 35.24023,-81.90039 23.54503,-23.54503 54.46716,-35.31341 85.39063,-35.31836 z m 419.53906,0.0898 c 29.74997,0.86 59.24041,12.58026 81.90039,35.24024 v -0.0117 c 24.95998,24.95997 36.68945,58.21073 35.18946,90.9707 -7.05,-1.88 -14.23017,-3.65047 -21.41016,-5.23047 0.08,-25.51997 -9.57979,-51.07002 -29.00977,-70.5 -17.24998,-17.24998 -39.32971,-26.79015 -61.92968,-28.66015 -1.44,-7.36 -3.04024,-14.6686 -4.74024,-21.8086 z m -422.58008,38.53907 c -4.90999,28.10997 -6.04038,54.94119 1.09961,73.45117 h -0.01 c -19.71998,-8.10999 -49.10902,-7.30039 -79.45899,-2.65039 2.41,-17.66999 10.45884,-34.00009 23.29883,-46.83008 15.24999,-15.24999 35.05033,-23.23071 55.07031,-23.9707 z m 430.3711,0.7207 c 17.13998,2.36 33.68009,10.10001 46.83007,23.25 15.24999,15.24998 23.22899,35.05033 23.95899,55.07031 -28.10997,-4.90999 -54.93924,-6.04038 -73.44922,1.09961 8.09999,-19.70998 7.30015,-49.07995 2.66016,-79.41992 z m -219.21094,32.07031 c 0.37,0.82 0.75109,1.68906 1.12109,2.53906 0.79,1.79 1.57868,3.64055 2.38868,5.56055 0.16999,0.4 0.33,0.78922 0.5,1.19922 0.24999,0.59 0.49023,1.20078 0.74023,1.80078 1.11,2.75 2.22984,5.62938 3.33984,8.60938 0.65,1.75999 1.30141,3.56062 1.94141,5.39062 2.05,5.85999 4.03914,12.09016 5.86914,18.66016 0.75,2.69999 1.47992,5.45953 2.16992,8.26953 0.57,2.31 1.11086,4.63953 1.63086,7.01953 0.09,0.43 0.1893,0.85125 0.2793,1.28125 0.69,3.22 1.33992,6.46907 1.91992,9.78906 0.46,2.62 0.87977,5.26946 1.25977,7.93946 0.04,0.25999 0.0596,0.53101 0.0996,0.79101 0.11999,0.9 0.22984,1.80899 0.33984,2.70899 0.26,1.99999 0.49117,4.01101 0.70117,6.04101 0.08,0.81 0.15047,1.62922 0.23047,2.44922 0.26,2.82 0.45914,5.66125 0.61914,8.53125 0.21,3.92 0.35937,7.85938 0.35938,11.85937 0,16.80999 -0.86907,33.29072 -2.53907,48.72071 -5.07999,-1.2 -10.31016,-2.00063 -15.66015,-2.39063 l -5.1211,-55.89062 -0.77929,-8.5 -0.59961,-6.51953 -0.17969,-1.98047 -0.59961,-6.54883 -0.57031,-6.24024 -0.57032,6.25 -0.59961,6.51954 -0.17968,2.00976 -0.5918,6.49024 -0.7793,8.5 -5.1289,55.98046 c -5.34,0.44 -10.56087,1.27954 -15.63086,2.51954 -1.67,-15.48999 -2.55078,-32.03018 -2.55078,-48.91016 0,-4.05 0.16086,-8.03977 0.38086,-12.00977 0.16,-2.86999 0.38039,-5.7093 0.65039,-8.52929 0.07,-0.73 0.12898,-1.47141 0.20898,-2.19141 0.11,-1.07 0.21961,-2.12945 0.34961,-3.18945 0.13,-1.05 0.27016,-2.07938 0.41016,-3.10938 0.11,-0.82 0.21031,-1.65094 0.32031,-2.46093 0.42,-2.92 0.88039,-5.81993 1.40039,-8.66993 0,-0.03 -2.3e-4,-0.0598 0.01,-0.0898 0.62,-3.4 1.31078,-6.72977 2.05078,-10.00977 0.63,-2.79999 1.29023,-5.55953 1.99023,-8.26953 0.18,-0.68 0.3493,-1.37078 0.5293,-2.05078 0.56,-2.09 1.1307,-4.14945 1.7207,-6.18945 2.5,-8.58999 5.25961,-16.62071 8.09961,-23.9707 1.16,-2.99 2.32047,-5.86915 3.48047,-8.61915 l 0.0293,0.0293 c 0,0 0.0291,-0.0694 0.0391,-0.10937 0.1,-0.23 0.19101,-0.47118 0.29101,-0.70117 1.16,-2.73 2.30946,-5.28954 3.43946,-7.76954 0.39,-0.85 0.77992,-1.71906 1.16992,-2.53906 z m 26.75,21.08984 c 2.29,0.26 4.56008,0.54915 6.83008,0.86915 3.12999,0.45 6.24008,0.93976 9.33008,1.50976 l -0.0195,0.01 c 3.34,0.61 6.65923,1.29101 9.94922,2.04101 l 0.41993,0.0899 c 3.33999,0.77 6.63992,1.61953 9.91992,2.51953 2.75999,0.76 5.49094,1.56992 8.21093,2.41992 0.32,0.1 0.63899,0.21055 0.95899,0.31055 2.45,0.78 4.88102,1.6107 7.29101,2.4707 2.75,0.98 5.48946,2.00984 8.18946,3.08984 2.02,0.81 4.03125,1.64977 6.03125,2.50977 2.69999,1.17 5.37906,2.38039 8.03906,3.65039 2.33,1.11 4.62992,2.24969 6.91992,3.42969 0.27,0.14 0.54078,0.27968 0.80078,0.42968 2.57,1.34 5.10915,2.7204 7.61914,4.15039 2.98,1.7 5.91055,3.4593 8.81055,5.2793 2.2,1.38 4.37907,2.79024 6.53906,4.24024 2.8,1.88999 5.54977,3.83961 8.25977,5.84961 2.31,1.70999 4.59008,3.45023 6.83008,5.24023 -3.7,1.75 -7.48009,3.63039 -11.33008,5.65039 -1.61,0.85 -3.23914,1.71914 -4.86914,2.61914 -2.49,1.36 -4.98977,2.77977 -7.50977,4.25977 -2.43,1.43 -4.87031,2.92094 -7.32031,4.46093 -5.08999,3.2 -10.1993,6.64962 -15.2793,10.34961 -1.7,-1.09 -3.43015,-2.14968 -5.16015,-3.17968 -3.68,-2.2 -7.44126,-4.28071 -11.28125,-6.22071 -3.39,-1.72 -6.83985,-3.33961 -10.33985,-4.84961 -1.73,-0.75 -3.45898,-1.47992 -5.20898,-2.16992 -3.48,-1.39 -7.01961,-2.65984 -10.59961,-3.83984 -4.08,-1.35 -8.22165,-2.56086 -12.43164,-3.63086 -1.25,-0.32 -2.50953,-0.62992 -3.76953,-0.91992 -0.97,-0.22 -1.94016,-0.42868 -2.91016,-0.63868 -0.14,-0.89999 -0.28969,-1.78968 -0.42969,-2.67968 -0.83,-5.12 -1.77984,-10.12024 -2.83984,-14.99024 -0.62,-2.82999 -1.25945,-5.63109 -1.93945,-8.37109 -0.71,-2.83 -1.45094,-5.60008 -2.21094,-8.33008 -1.72,-6.16999 -3.58,-12.04891 -5.5,-17.62891 z m -53.91992,0.0391 c -1.39,3.88999 -2.74883,7.91961 -4.04883,12.09961 -0.54,1.75 -1.07156,3.52055 -1.60156,5.31054 -0.79,2.73 -1.5686,5.48055 -2.3086,8.31055 -0.71,2.73 -1.36976,5.51985 -2.00976,8.33984 -1.33,5.85 -2.51047,11.87056 -3.48047,18.06055 -1.98,0.44 -3.95039,0.88867 -5.90039,1.38867 -4.2,1.07 -8.33969,2.28086 -12.42969,3.63086 -3.58,1.18 -7.11961,2.45985 -10.59961,3.83985 -1.75,0.7 -3.49094,1.42992 -5.21094,2.16992 -3.49999,1.52 -6.94984,3.12961 -10.33984,4.84961 -3.84,1.95 -7.5993,4.0307 -11.2793,6.2207 -1.08,0.64 -2.1507,1.29875 -3.2207,1.96875 -0.78,0.49 -1.56008,0.9707 -2.33008,1.4707 -0.66,-0.49 -1.32047,-0.96922 -1.98047,-1.44922 -4.31999,-3.13999 -8.65852,-6.09133 -12.97851,-8.86132 -2.45,-1.58 -4.9018,-3.09836 -7.3418,-4.56836 -2.49,-1.5 -4.96969,-2.94032 -7.42969,-4.32032 -5.48999,-3.08999 -10.87961,-5.91094 -16.09961,-8.46093 1.69,-1.35 3.40086,-2.66875 5.13086,-3.96875 h -0.01 c 2.51999,-1.9 5.08945,-3.73125 7.68945,-5.53125 2.78,-1.92 5.61047,-3.78961 8.48047,-5.59961 0.09,-0.06 0.1893,-0.11969 0.2793,-0.17969 2.87999,-1.81 5.79953,-3.57 8.76953,-5.25 2.50999,-1.43 5.05109,-2.81039 7.62109,-4.15039 0.28,-0.15 0.56961,-0.29922 0.84961,-0.44922 2.27,-1.17 4.55914,-2.31016 6.86914,-3.41016 2.65,-1.25999 5.33102,-2.48039 8.04102,-3.65039 1.99999,-0.85999 3.9993,-1.69976 6.02929,-2.50976 2.71,-1.08 5.43946,-2.10985 8.18946,-3.08985 2.40999,-0.85999 4.84101,-1.6807 7.29101,-2.4707 0.32,-0.1 0.63899,-0.21055 0.95899,-0.31054 2.71999,-0.86 5.45094,-1.65993 8.21093,-2.41993 3.28,-0.91 6.58993,-1.75953 9.91993,-2.51953 2.55999,-0.59 5.1407,-1.12086 7.7207,-1.63086 3.31,-0.65 6.64977,-1.23828 10.00976,-1.73828 2.83,-0.43 5.67907,-0.79109 8.53907,-1.12109 z M 352.0918,344.16797 c 12.76873,0.03 23.90907,1.58781 32.28906,5.25781 4.17,1.83 8.12821,3.92828 11.9082,6.23828 2.16,7.44 5.41079,17.44142 10.05078,28.94141 -0.61,0.71 -1.21054,1.41867 -1.81054,2.13867 -7.83,-9.25999 -17.71845,-16.68946 -29.14844,-21.68945 -15.37999,-6.73 -39.09018,-5.4693 -62.66016,-1.2793 -2.79999,0.5 -5.59109,1.02961 -8.37109,1.59961 -2.81,0.58 -5.59938,1.19031 -8.35938,1.82031 -7.22999,1.66 -14.25078,3.49008 -20.80078,5.33008 -2.83999,0.8 -5.58875,1.59867 -8.21875,2.38867 -2.82999,0.85 -5.54156,1.69 -8.10156,2.5 -11.65999,3.7 -20.11985,6.8218 -22.83984,7.8418 l -8.17969,3.08008 3.28125,8.09961 c 1.34,3.30999 6.22883,15.11986 13.54883,30.08984 1.2,2.45 2.46101,4.99008 3.79101,7.58008 1.26,2.48 2.57922,5.01985 3.94922,7.58984 3.27,6.15 6.83087,12.48954 10.63086,18.76953 1.48,2.44 2.9893,4.86954 4.5293,7.26954 1.57,2.43999 3.15906,4.84093 4.78906,7.21093 11.73999,17.04999 24.98994,31.73915 38.41992,37.61914 10.34999,4.53 21.31126,6.81055 32.28125,6.81055 1.34,0 2.66977,-0.0394 4.00977,-0.10938 -0.41,3.39 -0.7593,6.79852 -1.0293,10.22852 -6.15999,2.53 -11.72133,5.02133 -16.61133,7.36133 -8.17999,-1.31 -16.2393,-3.66032 -24.02929,-7.07031 -15.22999,-6.67 -31.52939,-24.76924 -46.85938,-46.94922 -1.6,-2.32 -3.20125,-4.69157 -4.78125,-7.10156 -1.54,-2.35 -3.07984,-4.72891 -4.58984,-7.12891 -3.81,-6.05 -7.51938,-12.25954 -11.10938,-18.51953 -1.43,-2.49 -2.8407,-4.99024 -4.2207,-7.49024 -1.38,-2.48999 -2.73031,-4.97141 -4.07031,-7.4414 -11.77999,-21.87998 -21.66993,-43.08908 -28.16992,-58.28907 13.81998,-4.89999 32.92134,-11.05117 53.86132,-16.70117 2.72,-0.73 5.47977,-1.45992 8.25977,-2.16992 l -0.0195,-0.01 c 2.76999,-0.71 5.56891,-1.40985 8.3789,-2.08985 6.97,-1.69 14.03985,-3.27875 21.08985,-4.71875 2.80999,-0.57 5.61992,-1.13062 8.41992,-1.64062 2.83,-0.52 5.62969,-1.00094 8.42969,-1.46094 14.89498,-2.44 29.29376,-3.93625 42.0625,-3.90625 z m 497.48828,7.74609 c 11.83999,0 25.28939,1.57063 39.35937,4.14063 2.78,0.51 5.5804,1.06062 8.40039,1.64062 2.75,0.57 5.52102,1.16883 8.29102,1.79883 6.96999,1.58 13.98923,3.35024 20.94922,5.24024 2.77,0.74999 5.5293,1.52054 8.2793,2.31054 2.72999,0.78 5.45062,1.58063 8.14062,2.39063 23.79998,7.13999 45.79074,15.14883 61.1406,21.29883 -6.30997,13.23998 -15.46119,31.09064 -26.28122,49.89062 -1.41005,2.44 -2.83883,4.89914 -4.29883,7.36914 h 0.01 c -1.46,2.46 -2.94117,4.94016 -4.45117,7.41016 -3.74,6.13999 -7.61938,12.27125 -11.60937,18.28125 -1.58,2.37999 -3.16954,4.74031 -4.76954,7.07031 -1.63999,2.38 -3.29117,4.7193 -4.95117,7.0293 -17.60998,24.50997 -36.47978,44.92008 -53.50976,51.58007 -4.34,1.7 -8.74899,3.05915 -13.20899,4.11915 -6.71999,-3.68 -15.90126,-8.33009 -27.03125,-13.08008 -0.08,-1.06 -0.18929,-2.11969 -0.27929,-3.17969 2.15999,0.18 4.33,0.29101 6.5,0.29101 9.90999,0 19.83008,-1.85031 29.33007,-5.57031 15.61999,-6.10999 31.47947,-23.74939 45.18946,-43.35937 1.64,-2.34 3.24055,-4.7118 4.81054,-7.0918 1.57,-2.38 3.09985,-4.75867 4.58985,-7.13867 3.94999,-6.30999 7.6307,-12.58102 10.9707,-18.54102 1.44,-2.56999 2.81914,-5.08 4.11914,-7.5 1.4,-2.60999 2.73094,-5.11023 3.96094,-7.49023 5.62999,-10.85999 9.40937,-19.04922 10.60937,-21.69922 l 3.60938,-7.96094 -8.04883,-3.39844 c -3.29,-1.38999 -15.10134,-6.29117 -30.86133,-11.70117 -2.57999,-0.89 -5.26906,-1.77945 -8.03906,-2.68945 -2.65,-0.86 -5.37016,-1.72031 -8.16016,-2.57031 -6.65999,-2.03 -13.6693,-4 -20.77929,-5.75 -2.77,-0.68 -5.54985,-1.32946 -8.33985,-1.93946 -2.82999,-0.62 -5.66047,-1.19093 -8.48047,-1.71093 -20.35998,-3.76 -40.10954,-4.76969 -53.76953,0.57031 -12.04998,4.70999 -22.31165,12.03079 -30.43164,21.05078 -2.2,-2.8 -4.45953,-5.54 -6.76953,-8.25 2.48,-5.93999 4.58961,-11.45969 6.34961,-16.42969 6.83999,-5.00999 14.37048,-9.19133 22.48047,-12.36132 7.26999,-2.84 16.49048,-4.07032 26.98047,-4.07032 z m -431.46094,15.64063 c 0.98,0.37 2.01149,0.76992 3.02148,1.16992 1.4,0.54 2.82883,1.12094 4.29883,1.71094 0.52,0.21 1.04032,0.41867 1.57032,0.63867 0.86999,0.36 1.74109,0.72156 2.62109,1.10156 2.77,1.17 5.62836,2.43907 8.56836,3.78906 1.42,0.65 2.85078,1.32954 4.30078,2.01954 v -0.01 c 5.80999,2.78 11.8493,5.91039 18.0293,9.40039 2.42999,1.38 4.89156,2.81055 7.35156,4.31055 2.3,1.39 4.60992,2.83984 6.91992,4.33984 0.1,0.06 0.19883,0.12945 0.29883,0.18945 2.81,1.82 5.60992,3.70946 8.41992,5.68946 2.24,1.58 4.47118,3.22039 6.70117,4.90039 0.13,0.1 0.24891,0.20101 0.37891,0.29101 0.7,0.53 1.38984,1.07914 2.08984,1.61914 1.63,1.27 3.2511,2.55086 4.8711,3.88086 0.59,0.48 1.17953,0.97875 1.76953,1.46875 2.18,1.82 4.34023,3.70086 6.49023,5.63086 2.86,2.58 5.70047,5.21024 8.48047,7.99024 11.96999,11.96998 23.06939,24.32024 32.85938,36.49023 -4.49,2.78 -8.74048,5.90008 -12.73047,9.33008 l -43.18946,-35.95117 -6.56054,-5.45899 -4.95899,-4.13086 -1.60156,-1.33007 -5.04883,-4.19922 -5,-4.16016 4.16016,5 4.18945,5.03906 1.33985,1.61133 4.12109,4.94922 5.45898,6.56055 35.97071,43.21875 c -3.41,3.99999 -6.53079,8.26149 -9.30078,12.77148 -12.14999,-9.76999 -24.45931,-20.84017 -36.5293,-32.91016 -2.79,-2.78999 -5.42977,-5.64125 -8.00977,-8.53124 -1.91999,-2.15 -3.79156,-4.31977 -5.60156,-6.50977 l -1.4082,-1.70899 c -0.75,-0.92999 -1.51024,-1.86101 -2.24024,-2.79101 -0.57,-0.72 -1.10992,-1.44992 -1.66992,-2.16992 -0.52,-0.68 -1.05055,-1.35907 -1.56055,-2.03907 -1.77999,-2.36999 -3.50015,-4.75086 -5.16015,-7.13085 -0.05,-0.08 -0.10992,-0.16024 -0.16992,-0.24024 -1.91,-2.76 -3.72047,-5.5193 -5.48047,-8.2793 -1.54,-2.41999 -3.01922,-4.84 -4.44922,-7.25 -0.51,-0.86999 -1.03125,-1.73961 -1.53125,-2.59961 -0.93,-1.60999 -1.82899,-3.22031 -2.70899,-4.82031 -4.29999,-7.79999 -8.02094,-15.40985 -11.21093,-22.58984 -1.28,-2.88 -2.47008,-5.69016 -3.58008,-8.41016 -0.03,-0.07 -0.0599,-0.1507 -0.0898,-0.2207 0,0 2.3e-4,-0.0193 -0.01,-0.0293 -1.21,-2.97999 -2.31961,-5.83984 -3.34961,-8.58984 -0.38,-1.02 -0.77086,-2.06078 -1.13086,-3.05078 z m 363.9707,0.54101 c -0.34,0.9 -0.71031,1.8493 -1.07031,2.7793 -0.67,1.73 -1.37891,3.51008 -2.12891,5.33008 -0.16999,0.42 -0.32976,0.83 -0.50976,1.25 -0.26,0.63 -0.53078,1.27016 -0.80078,1.91015 -1.17,2.77 -2.4293,5.63032 -3.7793,8.57032 -0.74,1.6 -1.50102,3.2289 -2.29101,4.8789 -2.71,5.65 -5.75063,11.52149 -9.14063,17.52149 -1.38,2.44 -2.81836,4.89891 -4.31836,7.3789 -1.25,2.06 -2.54109,4.12922 -3.87109,6.19922 -0.22,0.34 -0.43039,0.67172 -0.65039,1.01172 -1.8,2.78 -3.66891,5.56961 -5.62891,8.34961 -1.52,2.15 -3.08117,4.30922 -4.70117,6.44922 -0.16,0.21 -0.32828,0.42086 -0.48828,0.63086 -0.54,0.72 -1.11016,1.42867 -1.66016,2.13867 -1.25,1.61 -2.52008,3.22031 -3.83008,4.82031 -0.5,0.61 -1.02125,1.22985 -1.53125,1.83985 -1.81,2.16999 -3.67961,4.3307 -5.59961,6.4707 -2.61999,2.92 -5.31062,5.81063 -8.14062,8.64062 -11.96999,11.96999 -24.19001,22.96947 -36.25,32.68946 -2.8,-4.5 -5.94844,-8.75977 -9.39844,-12.75977 l 35.92969,-43.16992 5.45898,-6.56055 4.14063,-4.9707 1.32031,-1.58984 4.20899,-5.04883 4.00976,-4.81055 -4.81836,4.00977 -5.03125,4.18945 -1.60937,1.3418 -4.94922,4.11914 -6.56055,5.45898 -43.24023,35.98047 c -4.02,-3.41 -8.29056,-6.52906 -12.81055,-9.28906 9.76999,-12.13999 20.85103,-24.4604 32.79101,-36.40039 2.85,-2.85 5.78024,-5.55922 8.74024,-8.19922 2.15,-1.92 4.31953,-3.7818 6.51953,-5.5918 0.55,-0.45 1.08867,-0.90961 1.63867,-1.34961 0.86,-0.7 1.73157,-1.40008 2.60156,-2.08007 0.81,-0.64 1.62922,-1.24891 2.44922,-1.87891 0.66,-0.5 1.31071,-1.01977 1.97071,-1.50977 2.36999,-1.77 4.74891,-3.50039 7.1289,-5.15039 2.86,-1.98 5.72985,-3.85969 8.58985,-5.67969 2.42999,-1.53999 4.83976,-3.0214 7.25976,-4.4414 0.67,-0.39 1.33024,-0.78992 1.99024,-1.16992 1.82,-1.05 3.61992,-2.0686 5.41992,-3.0586 7.79999,-4.28999 15.40032,-7.99992 22.57031,-11.16992 2.97,-1.31 5.86993,-2.55164 8.66992,-3.68164 0.03,-0.01 0.0696,-0.0291 0.0996,-0.0391 0.15,-0.06 0.30117,-0.12969 0.45117,-0.17969 l -0.01,-0.0195 c 2.79,-1.13 5.46883,-2.1511 8.04883,-3.12109 0.94,-0.35 1.90054,-0.70907 2.81054,-1.03907 z m -434.93945,9.17774 c 8.49874,-0.0275 15.8904,0.96586 21.40039,3.38086 10.13999,4.43999 18.73899,11.2904 25.20899,19.90039 -5.26,7.23999 -10.1604,14.76079 -14.65039,22.55078 -1.46,2.53 -2.85852,5.08969 -4.22852,7.67969 -0.05,0.09 -0.0906,0.16976 -0.14063,0.25976 -1.27999,2.41 -2.5207,4.84102 -3.7207,7.29102 -0.09,0.17 -0.16976,0.34953 -0.25976,0.51953 -1.17,2.4 -2.30063,4.81977 -3.39063,7.25976 -1.9,4.24 -3.67961,8.5404 -5.34961,12.90039 -0.94,2.46 -1.84875,4.93969 -2.71875,7.42969 -0.06,0.19 -0.13117,0.37055 -0.20117,0.56055 -0.89,2.57 -1.73883,5.14977 -2.54883,7.75976 l -0.12109,0.38868 c -0.85,2.74999 -1.64063,5.53031 -2.39063,8.32031 -1.64,6.06999 -3.06976,12.23071 -4.25976,18.4707 -10.85999,1.17 -21.88017,-0.49024 -32.16016,-4.99023 -9.11999,-4 -18.90001,-14.43001 -28.25,-27.5 -1.75,-2.44 -3.47945,-4.96055 -5.18945,-7.56055 -1.62,-2.46 -3.20907,-4.97906 -4.78907,-7.53906 -3.84999,-6.25999 -7.54976,-12.7497 -11.00976,-19.17969 -1.38,-2.57 -2.73125,-5.12039 -4.03125,-7.65039 -1.34,-2.59 -2.62914,-5.15016 -3.86914,-7.66016 -3.95,-7.98999 -7.39133,-15.44992 -10.11133,-21.66992 4.1,-1.42 8.78157,-2.97055 13.85156,-4.56054 2.62,-0.82 5.35016,-1.65047 8.16016,-2.48047 2.69,-0.8 5.45906,-1.58914 8.28906,-2.36914 6.81,-1.89 13.94087,-3.71008 21.13086,-5.33008 2.86,-0.64 5.72961,-1.26008 8.59961,-1.83008 2.92,-0.58 5.81922,-1.11961 8.69922,-1.59961 9.94499,-1.675 19.55204,-2.72445 28.05078,-2.75195 z m 294.67969,6.45117 c 1.88,0.47 3.73961,0.96977 5.59961,1.50977 4.72999,1.35999 9.36992,2.92968 13.91992,4.67968 4.48999,1.73 8.90118,3.63071 13.20117,5.72071 2.84,1.37999 5.63844,2.84109 8.39844,4.37109 1.43,0.79 2.84023,1.59969 4.24023,2.42969 -0.72,0.61 -1.42867,1.21984 -2.13867,1.83984 -0.97,0.85 -1.94016,1.70031 -2.91016,2.57031 -3.05999,2.75 -6.08078,5.5886 -9.05078,8.5586 -12.13998,12.13998 -23.16915,24.40157 -32.86914,36.35156 1.57,-15.21999 2.42969,-31.56135 2.42969,-48.61133 0,-5.08999 -0.17047,-10.12985 -0.48047,-15.08984 -0.02,-0.34 -0.0601,-0.66977 -0.0801,-1.00977 -0.07,-1.11 -0.16976,-2.22031 -0.25976,-3.32031 z m -84.5,0.21094 c -0.08,0.95 -0.16047,1.88984 -0.23047,2.83984 -0.09,1.3 -0.16024,2.60992 -0.24023,3.91992 -0.22,4.11 -0.36915,8.25923 -0.36915,12.44922 0,16.99998 0.85993,33.31978 2.41993,48.50977 -9.62999,-11.83999 -20.56009,-23.98002 -32.58008,-36 -3.49,-3.49 -7.05993,-6.82954 -10.66992,-10.01953 -0.32,-0.28 -0.64071,-0.55961 -0.97071,-0.84961 -0.79,-0.69 -1.57914,-1.38079 -2.36914,-2.05078 1.56,-0.93 3.12875,-1.83876 4.71875,-2.71876 4.29,-2.37999 8.68165,-4.58156 13.18164,-6.60156 4.39,-1.96 8.87923,-3.73984 13.44922,-5.33984 l 0.0195,-0.01 c 2.93,-1.02 5.89087,-1.97008 8.88086,-2.83007 1.58,-0.45 3.15977,-0.88883 4.75977,-1.29883 z m 297.19922,1.27929 c 6.76999,0 14.18032,0.78008 22.07031,2.08008 2.96,0.49 5.96977,1.04969 9.00977,1.67969 2.87999,0.59 5.79094,1.24945 8.71093,1.93945 7.15,1.7 14.34962,3.68149 21.34961,5.77149 2.8,0.84 5.54977,1.68859 8.25977,2.55859 2.77999,0.89 5.50039,1.78164 8.15039,2.68164 8.44999,2.85 16.15071,5.69993 22.4707,8.16992 -1.9,3.91 -4.11031,8.30954 -6.57031,13.01953 -1.27,2.43 -2.60953,4.94954 -4.01953,7.51954 -1.34,2.46999 -2.74164,4.98101 -4.18164,7.54101 -3.48,6.16 -7.24946,12.49829 -11.18946,18.73828 -1.55999,2.47 -3.14953,4.9218 -4.76953,7.3418 -1.66,2.48 -3.33125,4.9186 -5.03125,7.30859 -11.68999,16.42999 -24.19868,30.13001 -35.38867,34.5 -10.46999,4.09 -21.37103,5.19047 -31.79101,3.73047 -1.42,-8.93999 -3.31844,-17.72032 -5.64844,-26.32031 -0.76,-2.82 -1.56188,-5.62039 -2.42188,-8.40039 l -0.0898,-0.29883 c -0.81,-2.6 -1.65883,-5.19 -2.54883,-7.75 -0.06,-0.19 -0.13117,-0.37055 -0.20117,-0.56055 -0.88,-2.51999 -1.8,-5.02953 -2.75,-7.51953 -1.66,-4.32999 -3.42836,-8.61031 -5.31836,-12.82031 -1.09,-2.44 -2.22063,-4.85977 -3.39063,-7.25977 -0.08,-0.17 -0.16976,-0.34953 -0.25976,-0.51953 -1.2,-2.44999 -2.45071,-4.88101 -3.7207,-7.29101 -0.05,-0.09 -0.0906,-0.16977 -0.14063,-0.25977 -1.37,-2.58 -2.77852,-5.14969 -4.22852,-7.67969 -3.14999,-5.45999 -6.49148,-10.7807 -10.02148,-15.9707 6.70999,-8.35999 15.62079,-15.15032 26.30078,-19.32031 4.67,-1.82 10.58938,-2.60938 17.35938,-2.60938 z M 414,402.05469 c 1.6,3.35999 3.29938,6.78953 5.10938,10.26953 1.03999,1.99 2.1107,3.99172 3.2207,6.01172 1.37,2.48 2.77977,4.97828 4.25976,7.48828 1.43,2.43 2.92071,4.87031 4.47071,7.32031 3.18999,5.05 6.60906,10.12016 10.28906,15.16016 -1.14,1.77 -2.24031,3.56109 -3.32031,5.37109 -2.2,3.68 -4.27876,7.4393 -6.21875,11.2793 -1.72,3.38999 -3.33961,6.83985 -4.84961,10.33984 -0.75,1.73 -1.48188,3.46094 -2.17188,5.21094 -1.39,3.48 -2.65984,7.01961 -3.83984,10.59961 -1.35,4.07999 -2.55891,8.21969 -3.62891,12.42969 -0.32,1.24999 -0.62992,2.50953 -0.91992,3.76953 -0.2,0.86 -0.38031,1.72984 -0.57031,2.58984 -0.8,0.12 -1.58086,0.26063 -2.38086,0.39063 -5.28,0.84 -10.44852,1.81992 -15.47852,2.91992 -2.82999,0.62 -5.63109,1.25945 -8.37109,1.93945 -2.84,0.71 -5.60985,1.45094 -8.33984,2.21094 -6.1,1.7 -11.92923,3.52969 -17.44922,5.42969 0.25,-2.15 0.52031,-4.29016 0.82031,-6.41016 v 0.01 c 0.45,-3.14 0.94953,-6.26891 1.51953,-9.37891 0.61,-3.33 1.28906,-6.63016 2.03906,-9.91016 0.03,-0.15 0.0596,-0.30117 0.0996,-0.45117 0.77,-3.34 1.62149,-6.63992 2.52149,-9.91992 0.76,-2.76 1.56992,-5.48899 2.41992,-8.20899 0.1,-0.31999 0.20859,-0.64093 0.30859,-0.96093 0.78,-2.45 1.61071,-4.87907 2.47071,-7.28907 0.97999,-2.74999 2.00984,-5.4914 3.08984,-8.1914 0.81,-2.02 1.64977,-4.0293 2.50977,-6.0293 1.16999,-2.7 2.38039,-5.37906 3.65039,-8.03906 1.10999,-2.33 2.24968,-4.62992 3.42968,-6.91992 0.14,-0.27 0.27969,-0.54055 0.42969,-0.81055 1.34,-2.57 2.72039,-5.1111 4.15039,-7.62109 1.7,-2.98 3.46125,-5.9086 5.28125,-8.8086 1.38,-2.19999 2.78828,-4.39101 4.23828,-6.54101 1.89,-2.8 3.84157,-5.54977 5.85156,-8.25977 1.74,-2.36 3.52938,-4.69023 5.35938,-6.99023 z m 371.98047,0.041 c 1.43,1.79 2.82898,3.58993 4.20898,5.41992 1.9,2.52 3.73125,5.08946 5.53125,7.68946 1.92,2.78 3.78961,5.61047 5.59961,8.48047 l 0.15039,0.24023 -0.01,-0.0508 c 1.82,2.9 3.5793,5.83055 5.27929,8.81055 1.43,2.50999 2.8104,5.04914 4.15039,7.61914 0.14,0.27 0.28969,0.54054 0.42969,0.81054 1.18,2.28 2.32969,4.58993 3.42969,6.91993 1.26,2.64999 2.48039,5.32906 3.65039,8.03906 0.85,1.97 1.68047,3.96094 2.48047,5.96094 1.09,2.72999 2.12914,5.47976 3.11914,8.25976 0.86,2.41 1.6807,4.84102 2.4707,7.29102 0.1,0.3 0.19907,0.59844 0.28907,0.89844 0.86999,2.73999 1.68117,5.50125 2.45117,8.28124 0.91,3.28 1.75953,6.58993 2.51953,9.91993 0.59,2.55999 1.11891,5.13875 1.62891,7.71875 0.64999,3.30999 1.24023,6.64977 1.74023,10.00976 0.45,3 0.83969,6.02055 1.17969,9.06055 -2.87,-1.02 -5.80985,-2.03 -8.83985,-3 -2.87999,-0.93 -5.81984,-1.82899 -8.83984,-2.70899 -2.72,-0.78999 -5.47883,-1.55125 -8.29883,-2.28124 -2.73,-0.7 -5.51985,-1.37001 -8.33984,-2 -5.75,-1.3 -11.66024,-2.46016 -17.74024,-3.41016 -0.47,-2.17 -0.97148,-4.32875 -1.52148,-6.46875 -1.07,-4.2 -2.27891,-8.33969 -3.62891,-12.42969 -1.18,-3.58 -2.45984,-7.12156 -3.83984,-10.60156 -0.71,-1.79 -1.46071,-3.55836 -2.2207,-5.31836 -1.5,-3.46 -3.09883,-6.87047 -4.79883,-10.23047 -1.97,-3.87 -4.07102,-7.67086 -6.29102,-11.38086 -0.62,-1.04 -1.26039,-2.07937 -1.90039,-3.10937 -0.54,-0.87 -1.09039,-1.73961 -1.65039,-2.59961 0.55,-0.74 1.09086,-1.48071 1.63086,-2.22071 3.04,-4.20999 5.89961,-8.44063 8.59961,-12.64062 1.57,-2.44 3.08125,-4.86907 4.53125,-7.28906 1.5,-2.5 2.94008,-4.97922 4.33008,-7.44922 3.11999,-5.54 5.94953,-10.98024 8.51953,-16.24024 z m -38.84961,59.97852 c 0.97,1.62 1.91984,3.25992 2.83984,4.91992 2.39,4.31 4.60891,8.73001 6.62891,13.25 1.96,4.39 3.73984,8.88118 5.33984,13.45117 1.02,2.93 1.97008,5.88891 2.83008,8.87891 0.51,1.77 0.99141,3.54008 1.44141,5.33008 -1.06,-0.09 -2.11188,-0.17977 -3.17188,-0.25977 -1.12,-0.08 -2.2489,-0.12922 -3.3789,-0.19922 -4.15,-0.23 -8.34009,-0.37109 -12.58008,-0.37109 -17.56998,0 -34.41931,0.91031 -50.0293,2.57031 12.13999,-9.81999 24.59947,-20.99985 36.93945,-33.33984 3.6,-3.6 7.04009,-7.27977 10.33008,-11.00977 l 0.01,0.0195 c 0.22,-0.25 0.43992,-0.50953 0.66992,-0.76953 0.72,-0.82 1.43086,-1.6407 2.13086,-2.4707 z m -294.56055,0.51172 c 0.64,0.75 1.28946,1.5 1.93946,2.25 0.78999,0.91 1.59039,1.81875 2.40039,2.71875 2.72999,3.03999 5.56953,6.05 8.51953,9 12.18999,12.18999 24.50978,23.26001 36.50976,33 -15.32998,-1.6 -31.82955,-2.46875 -49.01953,-2.46875 -4.93999,0 -9.82063,0.15898 -14.64062,0.45898 l -1.31836,0.0899 h -0.0117 c -1.06,0.07 -2.09844,0.16023 -3.14844,0.24023 0.45,-1.78 0.92969,-3.55078 1.42969,-5.30078 1.36,-4.73 2.92969,-9.36993 4.67969,-13.91992 1.72999,-4.49 3.6307,-8.89923 5.7207,-13.19922 1.38,-2.84 2.83914,-5.6404 4.36914,-8.40039 0.83,-1.5 1.69031,-2.98875 2.57031,-4.46875 z"
         style="fill:#ffffff;stroke-width:0.409902" /></g><rect
       style="fill:#ffffff;fill-opacity:1;stroke:none;stroke-width:1.32292;stroke-linecap:round;stroke-miterlimit:0;stroke-dasharray:none;stroke-opacity:1"
       id="rect39891"
       width="317.49997"
       height="119.06249"
       x="370.41669"
       y="396.875" /><path
       id="path3003"
       style="fill:none;stroke:#000000;stroke-width:13.2292;stroke-linecap:round;stroke-linejoin:miter;stroke-miterlimit:0;stroke-dasharray:none"
       d="M 529.16667 105.83333 A 291.04166 291.04166 0 0 0 238.125 396.875 L 238.125 661.45833 L 324.11458 661.45833 L 324.11458 396.875 L 734.21875 396.875 L 734.21875 661.45833 L 820.20833 661.45833 L 820.20833 396.875 A 291.04166 291.04166 0 0 0 529.16667 105.83333 z " /><text
       xml:space="preserve"
       transform="matrix(0,-1.8224375,1.6589873,0,-5405.845,3747.9925)"
       id="text3091"
       style="font-style:normal;font-variant:normal;font-weight:normal;font-stretch:normal;font-size:40px;font-family:Chandas;-inkscape-font-specification:Chandas;letter-spacing:0px;writing-mode:lr-tb;white-space:pre;shape-inside:url(#rect3093);display:inline;fill:#000000;stroke:#000000;stroke-width:0.575114;stroke-linecap:round;stroke-linejoin:miter;stroke-miterlimit:0;stroke-dasharray:none"><tspan
         x="1700"
         y="3440.7517"
         id="tspan350"><tspan
           style="font-family:'Electronics PERSONAL USE';-inkscape-font-specification:'Electronics PERSONAL USE';text-orientation:upright"
           id="tspan348">Phonic
</tspan></tspan></text><text
       xml:space="preserve"
       transform="matrix(0,1.8224375,-1.6589873,0,6465.4721,-2701.238)"
       id="text3091-0"
       style="font-style:normal;font-variant:normal;font-weight:normal;font-stretch:normal;font-size:40px;font-family:Chandas;-inkscape-font-specification:Chandas;letter-spacing:0px;writing-mode:lr-tb;white-space:pre;shape-inside:url(#rect3093-2);display:inline;fill:#000000;stroke:#000000;stroke-width:0.575114;stroke-linecap:round;stroke-linejoin:miter;stroke-miterlimit:0;stroke-dasharray:none"><tspan
         x="1700"
         y="3440.7517"
         id="tspan354"><tspan
           style="font-family:'Electronics PERSONAL USE';-inkscape-font-specification:'Electronics PERSONAL USE';text-orientation:upright"
           id="tspan352">Bloom
</tspan></tspan><tspan
         x="1700"
         y="3502.5034"
         id="tspan358"><tspan
           style="font-family:'Electronics PERSONAL USE';-inkscape-font-specification:'Electronics PERSONAL USE';text-orientation:upright"
           id="tspan356">
</tspan></tspan></text><rect
       style="fill:#ffffff;fill-opacity:1;stroke:none;stroke-width:1.32291;stroke-linecap:round;stroke-miterlimit:0;stroke-dasharray:none;stroke-opacity:1"
       id="rect18602"
       width="3.6955082"
       height="23.720301"
       x="269.43692"
       y="434.34543" /><rect
       style="fill:#ffffff;fill-opacity:1;stroke:none;stroke-width:1.32292;stroke-linecap:round;stroke-miterlimit:0;stroke-dasharray:none;stroke-opacity:1"
       id="rect20602-97-6-1-2-9"
       width="8.8658409"
       height="6.7060728"
       x="639.32672"
       y="-282.65051"
       transform="scale(1,-1)" /></g></svg>
