<?xml version="1.0" encoding="UTF-8" standalone="no"?>
<!-- Created with Inkscape (http://www.inkscape.org/) -->

<svg
   width="1000mm"
   height="1000mm"
   viewBox="0 0 1000 1000"
   version="1.1"
   id="svg5"
   inkscape:version="1.2.2 (b0a8486541, 2022-12-01)"
   sodipodi:docname="entrance.svg"
   xml:space="preserve"
   inkscape:export-filename="entrance.png"
   inkscape:export-xdpi="96"
   inkscape:export-ydpi="96"
   xmlns:inkscape="http://www.inkscape.org/namespaces/inkscape"
   xmlns:sodipodi="http://sodipodi.sourceforge.net/DTD/sodipodi-0.dtd"
   xmlns="http://www.w3.org/2000/svg"
   xmlns:svg="http://www.w3.org/2000/svg"><sodipodi:namedview
     id="namedview7"
     pagecolor="#ffffff"
     bordercolor="#000000"
     borderopacity="0.25"
     inkscape:showpageshadow="2"
     inkscape:pageopacity="0.0"
     inkscape:pagecheckerboard="0"
     inkscape:deskcolor="#d1d1d1"
     inkscape:document-units="mm"
     showgrid="true"
     inkscape:zoom="0.28899746"
     inkscape:cx="1958.4947"
     inkscape:cy="918.69319"
     inkscape:window-width="1280"
     inkscape:window-height="658"
     inkscape:window-x="0"
     inkscape:window-y="0"
     inkscape:window-maximized="1"
     inkscape:current-layer="layer1"><inkscape:grid
       type="xygrid"
       id="grid9"
       spacingx="26.458333"
       spacingy="26.458333"
       originx="0"
       originy="0" /></sodipodi:namedview><defs
     id="defs2"><rect
       x="1700"
       y="3400"
       width="1400"
       height="499.99999"
       id="rect3093" /><rect
       x="499.99999"
       y="2700"
       width="1300"
       height="699.99999"
       id="rect3087" /><rect
       x="1700"
       y="3400"
       width="1400"
       height="500"
       id="rect3093-3" /><rect
       x="1700"
       y="3400"
       width="1400"
       height="500"
       id="rect3093-6" /><rect
       x="1700"
       y="3400"
       width="1400"
       height="500"
       id="rect3093-2" /><clipPath
       clipPathUnits="userSpaceOnUse"
       id="clipPath18"><path
         d="M 0,600.949 H 847.559 V 0 H 0 Z"
         id="path16"
         inkscape:connector-curvature="0" /></clipPath><linearGradient
       id="a"
       x1="104.73"
       x2="494.51999"
       y1="335.72"
       y2="895.84003"
       gradientUnits="userSpaceOnUse"><stop
         stop-color="#e00"
         offset="0"
         id="stop2" /><stop
         stop-color="#9a0000"
         offset="1"
         id="stop4" /></linearGradient></defs><g
     inkscape:label="Layer 1"
     inkscape:groupmode="layer"
     id="layer1"><path
       id="path3003"
       style="fill:none;stroke:#000000;stroke-width:13.2292;stroke-linecap:round;stroke-linejoin:miter;stroke-miterlimit:0;stroke-dasharray:none"
       d="M 529.16667 105.83333 A 291.04166 291.04166 0 0 0 238.125 396.875 L 238.125 661.45833 L 324.11458 661.45833 L 324.11458 396.875 L 734.21875 396.875 L 734.21875 661.45833 L 820.20833 661.45833 L 820.20833 396.875 A 291.04166 291.04166 0 0 0 529.16667 105.83333 z " /><path
       id="text3091"
       style="font-style:normal;font-variant:normal;font-weight:normal;font-stretch:normal;font-size:40px;font-family:Chandas;-inkscape-font-specification:Chandas;letter-spacing:0px;writing-mode:lr-tb;white-space:pre;shape-inside:url(#rect3093);display:inline;fill:#000000;stroke:#000000;stroke-width:0.575114;stroke-linecap:round;stroke-linejoin:miter;stroke-miterlimit:0;stroke-dasharray:none"
       d="M 1841.4401 3429.0318 L 1839.72 3429.0318 C 1839.72 3429.5652 1839.5733 3430.0983 1839.2799 3430.6317 C 1838.9866 3431.165 1838.5866 3431.645 1838.0799 3432.0717 C 1837.5733 3432.4717 1836.9735 3432.8049 1836.2802 3433.0716 C 1835.5869 3433.3382 1834.8268 3433.4719 1834.0001 3433.4719 C 1833.2801 3433.4719 1832.56 3433.365 1831.84 3433.1516 C 1831.1467 3432.9116 1830.5067 3432.5652 1829.92 3432.1119 C 1829.3334 3431.6585 1828.8535 3431.0983 1828.4801 3430.4317 C 1828.1335 3429.7383 1827.9601 3428.9518 1827.9601 3428.0718 C 1827.9601 3427.0585 1828.1601 3426.1782 1828.5601 3425.4316 C 1828.9601 3424.6582 1829.5734 3424.2716 1830.4001 3424.2716 C 1831.0934 3424.2716 1831.5999 3424.5249 1831.9199 3425.0316 C 1832.2399 3425.5383 1832.4133 3426.1252 1832.44 3426.7919 C 1832.4667 3427.4585 1832.3735 3428.125 1832.1601 3428.7917 C 1831.9468 3429.4317 1831.6666 3429.8985 1831.3199 3430.1918 C 1832.4933 3430.9118 1833.5468 3431.1916 1834.4802 3431.0316 C 1835.4402 3430.8716 1836.2133 3430.4717 1836.8 3429.8317 C 1837.3866 3429.1651 1837.7334 3428.3518 1837.84 3427.3918 C 1837.9734 3426.4051 1837.7867 3425.4583 1837.28 3424.5516 C 1836.7734 3423.6449 1835.9068 3422.8716 1834.6801 3422.2316 C 1833.4534 3421.5916 1831.8001 3421.2716 1829.7201 3421.2716 C 1828.4668 3421.2716 1827.2934 3421.525 1826.2 3422.0316 C 1825.1067 3422.5383 1824.1466 3423.2318 1823.32 3424.1118 C 1822.52 3424.9918 1821.88 3426.0317 1821.4 3427.2317 C 1820.9441 3428.3461 1820.7052 3429.5327 1820.6823 3430.7914 C 1820.558 3431.0952 1820.3972 3431.3755 1820.2 3431.6319 C 1819.6667 3432.3252 1819.0533 3432.6716 1818.36 3432.6716 C 1817.64 3432.6716 1817.0133 3432.285 1816.48 3431.5116 C 1815.9467 3430.7116 1815.6801 3429.7383 1815.6801 3428.5917 L 1815.6801 3421.2716 L 1807.0801 3421.2716 L 1807.0801 3429.0318 C 1807.0801 3430.0185 1806.8668 3430.8717 1806.4401 3431.5917 C 1806.0134 3432.3117 1805.48 3432.6716 1804.84 3432.6716 C 1804.1467 3432.6716 1803.56 3432.285 1803.08 3431.5116 C 1802.6 3430.7116 1802.36 3429.7383 1802.36 3428.5917 C 1802.36 3425.765 1801.8668 3423.7251 1800.8801 3422.4718 C 1799.8935 3421.1918 1798.4535 3420.5517 1796.5601 3420.5517 C 1795.6801 3420.5517 1794.8801 3420.7249 1794.1601 3421.0716 C 1793.4401 3421.3916 1792.8002 3421.8449 1792.2402 3422.4316 C 1791.6802 3422.9916 1791.1867 3423.6583 1790.76 3424.4317 C 1790.36 3425.1783 1790.0268 3425.9652 1789.7602 3426.7919 L 1789.7602 3421.2716 L 1781.1602 3421.2716 L 1781.1602 3440.7518 L 1789.7602 3440.7518 L 1789.7602 3431.2316 C 1789.9468 3430.4583 1790.2401 3429.8317 1790.6401 3429.3517 C 1791.0398 3428.8451 1791.5066 3428.5917 1792.04 3428.5917 C 1792.5466 3428.5917 1792.96 3428.6982 1793.28 3428.9116 C 1793.6266 3429.1249 1793.8802 3429.4185 1794.0402 3429.7919 C 1794.2268 3430.1652 1794.3467 3430.605 1794.4 3431.1117 C 1794.48 3431.5917 1794.52 3432.1116 1794.52 3432.6716 C 1794.52 3433.7916 1794.6933 3434.8451 1795.04 3435.8317 C 1795.3867 3436.8184 1795.8669 3437.6716 1796.4802 3438.3916 C 1797.0935 3439.1116 1797.8134 3439.685 1798.64 3440.1117 C 1799.4667 3440.5383 1800.3466 3440.7518 1801.2799 3440.7518 C 1802.6399 3440.7518 1803.8 3440.3783 1804.76 3439.6316 C 1805.72 3438.8583 1806.4934 3437.8982 1807.0801 3436.7516 C 1807.2633 3436.4011 1807.4306 3436.0422 1807.5828 3435.675 C 1807.6015 3435.7275 1807.6204 3435.7797 1807.6401 3435.8317 C 1808.0401 3436.8184 1808.5733 3437.6716 1809.24 3438.3916 C 1809.9064 3439.1116 1810.6933 3439.685 1811.6 3440.1117 C 1812.5067 3440.5383 1813.4667 3440.7518 1814.4801 3440.7518 C 1815.9734 3440.7518 1817.24 3440.3783 1818.28 3439.6316 C 1819.3467 3438.8583 1820.2 3437.8982 1820.84 3436.7516 C 1821.1241 3436.2515 1821.3742 3435.7346 1821.5905 3435.2006 C 1822.1085 3436.2898 1822.7913 3437.2472 1823.6401 3438.0717 C 1824.6001 3438.9783 1825.7333 3439.685 1827.0399 3440.1917 C 1828.3466 3440.6717 1829.8002 3440.8584 1831.4002 3440.7518 C 1832.8935 3440.6451 1834.2533 3440.2716 1835.48 3439.6316 C 1836.7067 3438.965 1837.76 3438.1118 1838.64 3437.0718 C 1839.52 3436.0051 1840.2001 3434.7917 1840.6801 3433.4317 C 1841.1868 3432.045 1841.4401 3430.5785 1841.4401 3429.0318 z M 1815.4002 3416.5116 C 1815.4002 3415.4183 1815.0135 3414.4985 1814.2402 3413.7518 C 1813.4935 3413.0051 1812.5734 3412.6317 1811.48 3412.6317 C 1810.3867 3412.6317 1809.4535 3413.0051 1808.6802 3413.7518 C 1807.9335 3414.4985 1807.5602 3415.4183 1807.5602 3416.5116 C 1807.5602 3417.2905 1807.7409 3417.9791 1808.102 3418.5775 L 1814.8388 3418.5775 C 1815.2128 3417.9791 1815.4002 3417.2906 1815.4002 3416.5116 z M 1779.3624 3431.1413 C 1779.3624 3431.0648 1779.3618 3430.9884 1779.3602 3430.9117 C 1779.3602 3429.7117 1779.1466 3428.5385 1778.7199 3427.3918 C 1778.3199 3426.2185 1777.7066 3425.1782 1776.8799 3424.2716 C 1776.0799 3423.3649 1775.0668 3422.645 1773.8402 3422.1117 C 1773.2963 3421.8579 1772.7083 3421.6624 1772.0767 3421.5236 L 1772.0767 3424.5083 C 1772.3091 3424.5933 1772.5238 3424.7008 1772.7201 3424.8316 C 1773.2801 3425.205 1773.6934 3425.685 1773.9601 3426.2717 C 1774.2351 3426.7967 1774.3693 3427.3686 1774.363 3427.9874 C 1774.3626 3428.0286 1774.3616 3428.07 1774.3599 3428.1117 C 1774.3599 3428.7517 1774.2135 3429.365 1773.9201 3429.9517 C 1773.6268 3430.5117 1773.2002 3430.9785 1772.6402 3431.3518 C 1772.4642 3431.4692 1772.2764 3431.5679 1772.0767 3431.6484 L 1772.0767 3440.5026 C 1772.7193 3440.3636 1773.3208 3440.167 1773.8801 3439.9117 C 1775.1335 3439.325 1776.1601 3438.5784 1776.9601 3437.6717 C 1777.7868 3436.7384 1778.4001 3435.685 1778.8001 3434.5116 C 1779.1751 3433.4116 1779.3624 3432.2881 1779.3624 3431.1413 z M 1768.7654 3421.2971 C 1767.4576 3421.377 1766.2955 3421.6481 1765.2802 3422.1117 C 1764.0535 3422.6717 1763.0268 3423.4183 1762.2002 3424.3516 C 1761.4002 3425.2583 1760.8001 3426.3117 1760.4001 3427.5117 C 1760.0663 3428.5609 1759.8823 3429.6314 1759.8469 3430.7232 C 1759.7448 3431.0533 1759.6095 3431.3565 1759.44 3431.6319 C 1759.0134 3432.3252 1758.4932 3432.6716 1757.8799 3432.6716 C 1757.1866 3432.6716 1756.6001 3432.285 1756.1201 3431.5116 C 1755.6668 3430.7116 1755.4399 3429.7383 1755.4399 3428.5917 C 1755.4399 3425.765 1754.9334 3423.7251 1753.92 3422.4718 C 1752.9334 3421.1918 1751.4934 3420.5517 1749.6 3420.5517 C 1748.6934 3420.5517 1747.88 3420.7249 1747.16 3421.0716 C 1746.44 3421.4183 1745.8001 3421.8851 1745.2401 3422.4718 C 1744.6801 3423.0318 1744.1999 3423.6985 1743.7999 3424.4719 C 1743.3999 3425.2452 1743.0667 3426.0585 1742.8001 3426.9118 L 1742.8001 3414.8317 L 1734.1601 3414.8317 L 1734.1601 3440.7518 L 1742.8001 3440.7518 L 1742.8001 3431.2316 C 1742.9867 3430.4583 1743.2799 3429.8317 1743.6799 3429.3517 C 1744.1066 3428.8451 1744.5868 3428.5917 1745.1201 3428.5917 C 1745.6268 3428.5917 1746.0401 3428.6982 1746.3601 3428.9116 C 1746.6801 3429.1249 1746.9201 3429.4185 1747.0801 3429.7919 C 1747.2667 3430.1652 1747.3866 3430.605 1747.4399 3431.1117 C 1747.5199 3431.5917 1747.5601 3432.1116 1747.5601 3432.6716 C 1747.5601 3433.7916 1747.7332 3434.8451 1748.0799 3435.8317 C 1748.4266 3436.8184 1748.9067 3437.6716 1749.5201 3438.3916 C 1750.1334 3439.1116 1750.8399 3439.685 1751.6399 3440.1117 C 1752.4666 3440.5383 1753.3468 3440.7518 1754.2801 3440.7518 C 1755.6401 3440.7518 1756.8 3440.3783 1757.76 3439.6316 C 1758.72 3438.8583 1759.4933 3437.8982 1760.08 3436.7516 C 1760.3188 3436.2947 1760.5309 3435.8235 1760.7172 3435.3383 C 1761.1229 3436.2199 1761.6571 3437.0246 1762.3201 3437.7518 C 1763.1468 3438.6584 1764.1601 3439.3919 1765.3601 3439.9519 C 1766.3689 3440.3904 1767.5041 3440.6483 1768.7654 3440.7262 L 1768.7654 3431.4584 C 1768.709 3431.4246 1768.6537 3431.3894 1768.6 3431.3518 C 1768.0667 3430.9785 1767.6534 3430.5117 1767.36 3429.9517 C 1767.0667 3429.365 1766.9067 3428.7517 1766.88 3428.1117 C 1766.8533 3427.445 1766.9734 3426.8317 1767.2401 3426.2717 C 1767.5068 3425.685 1767.9068 3425.205 1768.4401 3424.8316 C 1768.5431 3424.763 1768.6515 3424.7008 1768.7654 3424.6447 L 1768.7654 3421.2971 z M 1732.6799 3424.9519 C 1732.6799 3423.2719 1732.3468 3421.7651 1731.6801 3420.4318 C 1731.0401 3419.0718 1730.12 3417.9118 1728.92 3416.9518 C 1727.7466 3415.9918 1726.32 3415.2584 1724.64 3414.7517 C 1722.96 3414.2184 1721.0933 3413.9518 1719.04 3413.9518 C 1718.5767 3413.9518 1718.1287 3413.9701 1717.6948 3414.0054 L 1717.6948 3417.0633 C 1719.3205 3417.3219 1720.6222 3417.9114 1721.6 3418.8316 C 1722.96 3420.1116 1723.7067 3421.8451 1723.8401 3424.0317 C 1723.8551 3424.2367 1723.8629 3424.4388 1723.8639 3424.6382 C 1723.8679 3425.5022 1723.7399 3426.3133 1723.4799 3427.0716 C 1723.1599 3427.9783 1722.68 3428.7651 1722.04 3429.4318 C 1721.4267 3430.0984 1720.6799 3430.6052 1719.7999 3430.9519 C 1719.1521 3431.215 1718.4503 3431.3548 1717.6948 3431.3721 L 1717.6948 3434.9184 C 1718.5949 3435.1598 1719.4833 3435.3316 1720.36 3435.4318 C 1722.1466 3435.6184 1723.7866 3435.4851 1725.28 3435.0318 C 1726.8 3434.5518 1728.1068 3433.8316 1729.2001 3432.8716 C 1730.2935 3431.9116 1731.1467 3430.7516 1731.7601 3429.3916 C 1732.3734 3428.0316 1732.6799 3426.5519 1732.6799 3424.9519 z M 1715.1062 3414.4598 C 1714.6904 3414.5696 1714.2817 3414.6934 1713.8801 3414.8317 L 1706.2 3414.8317 L 1706.2 3417.7517 C 1704.9467 3418.3117 1703.8667 3418.9517 1702.9601 3419.6717 C 1702.0801 3420.3917 1701.3866 3421.1252 1700.8799 3421.8718 C 1700.3999 3422.5918 1700.12 3423.2987 1700.04 3423.9918 C 1699.96 3424.6585 1700.0934 3425.2316 1700.4401 3425.7116 C 1700.7868 3426.1649 1701.3466 3426.485 1702.1199 3426.6716 C 1702.9199 3426.8583 1703.9466 3426.8184 1705.1999 3426.5517 C 1704.6932 3425.6184 1704.5334 3424.6451 1704.7201 3423.6318 C 1704.9068 3422.6184 1705.4 3421.6983 1706.2 3420.8716 L 1706.2 3440.7518 L 1714.84 3440.7518 L 1714.84 3433.9117 C 1714.9282 3433.9503 1715.0171 3433.9879 1715.1062 3434.0254 L 1715.1062 3430.8718 C 1715.0168 3430.8337 1714.928 3430.7938 1714.84 3430.7516 L 1714.84 3416.9518 C 1714.9287 3416.934 1715.0175 3416.9226 1715.1062 3416.9166 L 1715.1062 3414.4598 z "
       transform="matrix(0,-1.8224375,1.6589873,0,-5405.845,3747.9925)" /><path
       id="text3091-0"
       style="font-style:normal;font-variant:normal;font-weight:normal;font-stretch:normal;font-size:40px;font-family:Chandas;-inkscape-font-specification:Chandas;letter-spacing:0px;writing-mode:lr-tb;white-space:pre;shape-inside:url(#rect3093-2);display:inline;fill:#000000;stroke:#000000;stroke-width:0.575114;stroke-linecap:round;stroke-linejoin:miter;stroke-miterlimit:0;stroke-dasharray:none"
       d="M 1700.2575 3424.3568 C 1700.2575 3424.87 1700.3983 3425.3218 1700.68 3425.7118 C 1701.0267 3426.1651 1701.5867 3426.4851 1702.3601 3426.6718 C 1703.1601 3426.8585 1704.1867 3426.8182 1705.4401 3426.5516 C 1704.9334 3425.6182 1704.7733 3424.645 1704.96 3423.6316 C 1705.1467 3422.5916 1705.6399 3421.6718 1706.4399 3420.8718 L 1706.4399 3440.7516 L 1715.0801 3440.7516 L 1715.0801 3439.5116 C 1715.1894 3439.5892 1715.2999 3439.6641 1715.4113 3439.7371 L 1715.4113 3436.006 C 1715.299 3435.9139 1715.1886 3435.8162 1715.0801 3435.7117 L 1715.0801 3427.7518 C 1715.1914 3427.72 1715.3014 3427.6913 1715.4113 3427.663 L 1715.4113 3425.2268 C 1715.2994 3425.2669 1715.1888 3425.3083 1715.0801 3425.3517 L 1715.0801 3417.1516 C 1715.1924 3417.1168 1715.3024 3417.0863 1715.4113 3417.0582 L 1715.4113 3414.6042 C 1715.1774 3414.6753 1714.9466 3414.7507 1714.72 3414.8316 L 1706.4399 3414.8316 L 1706.4399 3417.7519 C 1705.1599 3418.3119 1704.08 3418.9516 1703.2 3419.6716 C 1702.32 3420.3916 1701.6267 3421.125 1701.1201 3421.8717 C 1700.6401 3422.5917 1700.3599 3423.2984 1700.2799 3423.9917 C 1700.2649 3424.1167 1700.2575 3424.2384 1700.2575 3424.3568 z M 1717.9784 3440.9494 C 1718.1176 3440.9929 1718.2582 3441.034 1718.4 3441.0719 C 1719.6267 3441.3919 1720.8533 3441.5252 1722.08 3441.4718 C 1723.3067 3441.4185 1724.4934 3441.1918 1725.6401 3440.7918 C 1726.8134 3440.3918 1727.8401 3439.8184 1728.7201 3439.0718 C 1729.6267 3438.3251 1730.3466 3437.4185 1730.8799 3436.3518 C 1731.4399 3435.2851 1731.7201 3434.0585 1731.7201 3432.6718 C 1731.7201 3430.6185 1731.2 3428.9916 1730.16 3427.7916 C 1729.12 3426.565 1727.8267 3425.6851 1726.2801 3425.1517 C 1727.0801 3424.5651 1727.6934 3423.8851 1728.1201 3423.1118 C 1728.5467 3422.3118 1728.7734 3421.4985 1728.8 3420.6718 C 1728.8534 3419.8452 1728.7066 3419.0316 1728.3599 3418.2316 C 1728.0133 3417.4316 1727.4668 3416.7117 1726.7201 3416.0717 C 1726.0001 3415.4317 1725.0667 3414.9249 1723.92 3414.5516 C 1722.7733 3414.1516 1721.4132 3413.9517 1719.8399 3413.9517 C 1719.1795 3413.9517 1718.5595 3413.9862 1717.9784 3414.0541 L 1717.9784 3417.1065 C 1718.2794 3417.2161 1718.554 3417.3634 1718.8001 3417.5516 C 1719.2534 3417.8983 1719.5999 3418.3651 1719.8399 3418.9518 C 1720.0799 3419.5118 1720.2 3420.165 1720.2 3420.9117 C 1720.2 3421.605 1720.0666 3422.2583 1719.7999 3422.8716 C 1719.5599 3423.4583 1719.2268 3423.9917 1718.8001 3424.4717 C 1718.5216 3424.5039 1718.2483 3424.5444 1717.9784 3424.5895 L 1717.9784 3427.3104 C 1718.0659 3427.3101 1718.1536 3427.3093 1718.2401 3427.3116 C 1719.2268 3427.3383 1720.08 3427.5385 1720.8 3427.9119 C 1721.5467 3428.2852 1722.1334 3428.8451 1722.5601 3429.5918 C 1722.9867 3430.3384 1723.2001 3431.2718 1723.2001 3432.3918 C 1723.2001 3433.4584 1722.9199 3434.3651 1722.3599 3435.1117 C 1721.7999 3435.8584 1721.1067 3436.3916 1720.28 3436.7116 C 1719.563 3436.9891 1718.7957 3437.0962 1717.9784 3437.0327 L 1717.9784 3440.9494 z M 1733.16 3432.6718 C 1733.16 3433.7918 1733.3467 3434.8449 1733.72 3435.8316 C 1734.12 3436.8183 1734.6535 3437.6718 1735.3201 3438.3918 C 1735.9868 3439.1118 1736.7732 3439.6852 1737.6799 3440.1118 C 1738.5865 3440.5385 1739.5466 3440.7516 1740.56 3440.7516 C 1742.0533 3440.7516 1743.3199 3440.3785 1744.3599 3439.6318 C 1745.4266 3438.8585 1746.2801 3437.8984 1746.9201 3436.7518 C 1747.2012 3436.2572 1747.4484 3435.7457 1747.6631 3435.218 C 1748.075 3436.1468 1748.6268 3436.9915 1749.3199 3437.7517 C 1750.1466 3438.6581 1751.1599 3439.3917 1752.3599 3439.9517 C 1753.5024 3440.4485 1754.807 3440.7135 1756.2733 3440.7476 L 1756.2733 3431.699 C 1756.0293 3431.6107 1755.8048 3431.495 1755.6001 3431.3517 C 1755.0668 3430.9784 1754.6534 3430.5118 1754.3601 3429.9518 C 1754.0668 3429.3652 1753.9067 3428.7519 1753.88 3428.1119 C 1753.8767 3428.0285 1753.8757 3427.9459 1753.8769 3427.8642 C 1753.8857 3427.2925 1754.0065 3426.7619 1754.2399 3426.2719 C 1754.5065 3425.6852 1754.9066 3425.2052 1755.4399 3424.8318 C 1755.6866 3424.6674 1755.9644 3424.5391 1756.2733 3424.4471 L 1756.2733 3421.2758 C 1754.7564 3421.3106 1753.4251 3421.5891 1752.2799 3422.1119 C 1751.0533 3422.6719 1750.0266 3423.4185 1749.1999 3424.3518 C 1748.3999 3425.2585 1747.7999 3426.3116 1747.3999 3427.5116 C 1747.0848 3428.5019 1746.9032 3429.5113 1746.8541 3430.5396 C 1746.7212 3430.9417 1746.5306 3431.3061 1746.2802 3431.6317 C 1745.7468 3432.3251 1745.1335 3432.6718 1744.4402 3432.6718 C 1743.7202 3432.6718 1743.0932 3432.2851 1742.5599 3431.5118 C 1742.0266 3430.7118 1741.76 3429.7385 1741.76 3428.5919 L 1741.76 3414.8316 L 1733.16 3414.8316 L 1733.16 3432.6718 z M 1758.8403 3440.5507 C 1759.5724 3440.4109 1760.2525 3440.1983 1760.8799 3439.9119 C 1762.1333 3439.3252 1763.1599 3438.5783 1763.9599 3437.6716 C 1764.7866 3436.7383 1765.3999 3435.6851 1765.7999 3434.5118 C 1766.1999 3433.3385 1766.3866 3432.1385 1766.3599 3430.9119 C 1766.3599 3429.7119 1766.1466 3428.5383 1765.72 3427.3917 C 1765.32 3426.2183 1764.7066 3425.1784 1763.88 3424.2718 C 1763.08 3423.3651 1762.0666 3422.6452 1760.8399 3422.1119 C 1760.2288 3421.8267 1759.5621 3421.6145 1758.8403 3421.4745 L 1758.8403 3424.4319 C 1759.1652 3424.5248 1759.4587 3424.6577 1759.7199 3424.8318 C 1760.2799 3425.2052 1760.6932 3425.6852 1760.9599 3426.2719 C 1761.2532 3426.8319 1761.3867 3427.4452 1761.36 3428.1119 C 1761.36 3428.7519 1761.2132 3429.3652 1760.9199 3429.9518 C 1760.6266 3430.5118 1760.1999 3430.9784 1759.6399 3431.3517 C 1759.3961 3431.5142 1759.1295 3431.6412 1758.8403 3431.733 L 1758.8403 3440.5507 z M 1767.9201 3431.1118 C 1767.9201 3432.3118 1768.1201 3433.4983 1768.5201 3434.6716 C 1768.9467 3435.8183 1769.5734 3436.845 1770.4001 3437.7517 C 1771.2267 3438.6581 1772.2401 3439.3917 1773.4401 3439.9517 C 1774.605 3440.4583 1775.9388 3440.7237 1777.4405 3440.7492 L 1777.4405 3431.7289 C 1777.1625 3431.6374 1776.9088 3431.5119 1776.68 3431.3517 C 1776.1467 3430.9784 1775.7333 3430.5118 1775.44 3429.9518 C 1775.1467 3429.3652 1774.9866 3428.7519 1774.9599 3428.1119 C 1774.9583 3428.0702 1774.957 3428.0289 1774.9565 3427.9876 C 1774.956 3427.9463 1774.9562 3427.9051 1774.9568 3427.8642 C 1774.9656 3427.2925 1775.0867 3426.7619 1775.32 3426.2719 C 1775.5867 3425.6852 1775.9867 3425.2052 1776.5201 3424.8318 C 1776.7897 3424.6521 1777.0967 3424.516 1777.4405 3424.4228 L 1777.4405 3421.2746 C 1775.8875 3421.3005 1774.527 3421.5791 1773.3601 3422.1119 C 1772.1334 3422.6719 1771.1068 3423.4185 1770.2801 3424.3518 C 1769.4801 3425.2585 1768.8801 3426.3116 1768.4801 3427.5116 C 1768.1068 3428.6849 1767.9201 3429.8852 1767.9201 3431.1118 z M 1780.0075 3440.5339 C 1780.7065 3440.394 1781.3576 3440.1869 1781.9601 3439.9119 C 1783.2134 3439.3252 1784.2401 3438.5783 1785.0401 3437.6716 C 1785.8668 3436.7383 1786.4801 3435.6851 1786.8801 3434.5118 C 1787.2801 3433.3385 1787.4668 3432.1385 1787.4401 3430.9119 C 1787.4401 3429.7119 1787.2268 3428.5383 1786.8001 3427.3917 C 1786.4001 3426.2183 1785.7868 3425.1784 1784.9601 3424.2718 C 1784.1601 3423.3651 1783.1468 3422.6452 1781.9201 3422.1119 C 1781.3336 3421.8382 1780.6959 3421.6316 1780.0075 3421.4917 L 1780.0075 3424.4577 C 1780.2981 3424.5489 1780.5624 3424.6734 1780.8001 3424.8318 C 1781.3601 3425.2052 1781.7734 3425.6852 1782.0401 3426.2719 C 1782.3334 3426.8319 1782.4668 3427.4452 1782.4402 3428.1119 C 1782.4402 3428.7519 1782.2934 3429.3652 1782.0001 3429.9518 C 1781.7067 3430.5118 1781.2801 3430.9784 1780.7201 3431.3517 C 1780.5011 3431.4977 1780.2633 3431.6148 1780.0075 3431.7037 L 1780.0075 3440.5339 z M 1789.2401 3440.7516 L 1797.8401 3440.7516 L 1797.8401 3431.2318 C 1798.0268 3430.4584 1798.32 3429.8316 1798.72 3429.3516 C 1799.12 3428.8449 1799.5866 3428.5919 1800.1199 3428.5919 C 1800.6266 3428.5919 1801.0399 3428.6984 1801.3599 3428.9118 C 1801.7066 3429.1251 1801.9601 3429.4184 1802.1201 3429.7917 C 1802.3068 3430.1651 1802.4266 3430.6052 1802.48 3431.1118 C 1802.56 3431.5918 1802.5999 3432.1118 1802.5999 3432.6718 L 1802.5999 3440.7516 L 1810.44 3440.7516 L 1810.44 3432.2719 C 1810.52 3431.2319 1810.7868 3430.3651 1811.2402 3429.6718 C 1811.7202 3428.9518 1812.2799 3428.5919 1812.9199 3428.5919 C 1813.4266 3428.5919 1813.8399 3428.6984 1814.1599 3428.9118 C 1814.4799 3429.1251 1814.7202 3429.4184 1814.8802 3429.7917 C 1815.0668 3430.1651 1815.1867 3430.6052 1815.24 3431.1118 C 1815.32 3431.5918 1815.36 3432.1118 1815.36 3432.6718 C 1815.36 3433.7918 1815.5333 3434.8449 1815.88 3435.8316 C 1816.2267 3436.8183 1816.7066 3437.6718 1817.3199 3438.3918 C 1817.9332 3439.1118 1818.6534 3439.6852 1819.48 3440.1118 C 1820.3067 3440.5385 1821.1866 3440.7516 1822.1199 3440.7516 C 1823.4799 3440.7516 1824.64 3440.3785 1825.6 3439.6318 C 1826.56 3438.8585 1827.3334 3437.8984 1827.9201 3436.7518 C 1828.5334 3435.5784 1828.9734 3434.3118 1829.2401 3432.9518 C 1829.5067 3431.5652 1829.6401 3430.2584 1829.6401 3429.0317 L 1827.9201 3429.0317 C 1827.9201 3430.205 1827.7068 3431.1117 1827.2801 3431.7517 C 1826.8534 3432.365 1826.32 3432.6718 1825.68 3432.6718 C 1824.9867 3432.6718 1824.4 3432.2851 1823.92 3431.5118 C 1823.4666 3430.7118 1823.24 3429.7385 1823.24 3428.5919 C 1823.24 3425.7652 1822.7335 3423.725 1821.7201 3422.4716 C 1820.7335 3421.1916 1819.2935 3420.5516 1817.4001 3420.5516 C 1816.4401 3420.5516 1815.5866 3420.7518 1814.8399 3421.1518 C 1814.0932 3421.5252 1813.4266 3422.0451 1812.84 3422.7118 C 1812.28 3423.3518 1811.7868 3424.0984 1811.3601 3424.9517 C 1810.9601 3425.8051 1810.64 3426.6985 1810.4 3427.6318 C 1810.2933 3425.1252 1809.7468 3423.3251 1808.7602 3422.2318 C 1807.7735 3421.1118 1806.4001 3420.5516 1804.6401 3420.5516 C 1803.7601 3420.5516 1802.9601 3420.7251 1802.2401 3421.0718 C 1801.5201 3421.3918 1800.8801 3421.8451 1800.3201 3422.4318 C 1799.7601 3422.9918 1799.2666 3423.6585 1798.8399 3424.4319 C 1798.4399 3425.1785 1798.1068 3425.9651 1797.8401 3426.7917 L 1797.8401 3421.2718 L 1789.2401 3421.2718 L 1789.2401 3440.7516 z "
       transform="matrix(0,1.8224375,-1.6589873,0,6465.4721,-2689.5956)" /><rect
       style="fill:#ffffff;fill-opacity:1;stroke:none;stroke-width:1.32292;stroke-linecap:round;stroke-miterlimit:0;stroke-dasharray:none;stroke-opacity:1"
       id="rect20602-97-6-1-2-9"
       width="8.8658409"
       height="6.7060728"
       x="639.32672"
       y="-282.65051"
       transform="scale(1,-1)" /><g
       id="g6756"
       transform="matrix(1.1068954,0,0,1.1068954,365.16137,197.97824)"
       style="stroke-width:0.903428"><path
         id="path5600"
         style="fill:#000000;stroke-width:0.15306"
         d="m 147.6592,155.8432 c -0.80485,-0.008 -1.59269,0.0107 -2.35076,0.0486 -5.14956,0.89067 -9.16319,2.54423 -12.38425,6.92929 -0.30611,0.47813 -0.56654,0.91532 -0.80151,1.35289 h 32.08642 c -0.35281,-0.68007 -0.74278,-1.34248 -1.18132,-1.96836 -3.24678,-4.97229 -9.7346,-6.30906 -15.36858,-6.3624 z" /><path
         inkscape:connector-curvature="0"
         style="fill:#000000;stroke-width:0.15306"
         d="m 140.36095,158.75319 c 0,-0.12102 -0.0436,-0.21997 -0.097,-0.21997 -0.0533,0 -0.1581,0.099 -0.23284,0.21997 -0.0747,0.12102 -0.0311,0.21996 0.097,0.21996 0.12806,0 0.23285,-0.0989 0.23285,-0.21996 z"
         id="path5594" /><path
         id="path5579"
         style="fill:#000000;stroke-width:0.15306"
         d="m 66.686886,151.17062 c -0.201947,0.005 -0.475137,0.0429 -0.865064,0.10955 -0.665135,0.1137 -2.644128,0.43786 -4.397664,0.72037 -1.753535,0.2825 -3.336732,0.57789 -3.518132,0.65629 -0.181401,0.0784 -1.368796,0.33752 -2.638598,0.57619 -2.919138,0.54856 -7.010291,1.50915 -7.585584,1.78077 -0.241869,0.11419 -1.083069,0.36798 -1.869136,0.56431 -0.786068,0.19639 -1.528054,0.43512 -1.648995,0.53072 -0.120935,0.0955 -0.813324,0.34337 -1.538925,0.55087 -0.725601,0.20745 -1.418499,0.45407 -1.539441,0.54777 -0.120934,0.0937 -0.615414,0.29404 -1.099157,0.44545 -0.483717,0.15133 -1.176641,0.44568 -1.539441,0.65422 -0.362801,0.20843 -1.006086,0.51489 -1.42937,0.68058 -1.579027,0.6185 -5.499139,2.91257 -7.115328,4.16409 -0.30832,0.23875 -0.766395,0.61672 -1.251087,1.02216 h 55.9139 c -0.399521,-0.11705 -0.798826,-0.24338 -1.206128,-0.39119 -5.547352,-2.01325 -9.374619,-4.78398 -14.394987,-10.42107 -0.75115,-0.84343 -1.493149,-1.7035 -1.648995,-1.911 -0.152265,-0.20272 -0.29129,-0.28794 -0.627868,-0.28008 z" /><path
         inkscape:connector-curvature="0"
         style="fill:#000000;stroke-width:0.15306"
         d="m 50.430287,158.75438 c 0,-0.12102 -0.09895,-0.21996 -0.219888,-0.21996 -0.120943,0 -0.219888,0.0989 -0.219888,0.21996 0,0.12102 0.09895,0.21997 0.219888,0.21997 0.120942,0 0.219888,-0.0989 0.219888,-0.21997 z"
         id="path5576" /><path
         id="path5573"
         style="fill:#000000;stroke-width:0.15306"
         d="m 229.32244,151.06726 -0.66973,0.82011 c -4.8001,5.79539 -10.36535,10.47237 -17.42943,12.28659 h 56.45961 c -0.48487,-0.40558 -0.9432,-0.78334 -1.25161,-1.02216 -9.09953,-6.84091 -20.39243,-8.89178 -31.41203,-11.09286 -1.69307,-0.2866 -3.66785,-0.62696 -4.38785,-0.75655 z" /><path
         inkscape:connector-curvature="0"
         style="fill:#000000;stroke-width:0.15306"
         d="m 230.51148,158.8773 c 0,-0.0532 -0.0989,-0.15816 -0.21989,-0.23295 -0.12094,-0.0748 -0.21988,-0.0312 -0.21988,0.0969 0,0.12803 0.0989,0.23295 0.21988,0.23295 0.12095,0 0.21989,-0.0436 0.21989,-0.0969 z"
         id="path5570" /><path
         sodipodi:nodetypes="ccccccsccccccsccccccccscccc"
         inkscape:connector-curvature="0"
         style="fill:#000000;stroke-width:0.15306"
         d="m 99.903142,163.35593 c -1.027937,-0.11297 -2.116339,-0.29946 -2.418672,-0.41422 -5.03569,-0.97471 -10.09468,-2.66998 -14.512037,-4.97902 -6.333889,-2.91584 -12.879265,-8.44225 -16.610435,-11.97277 -5.321654,-5.03683 -12.528462,-14.34916 -16.431343,-21.23188 -0.335249,-0.59124 -0.858145,-1.47076 -1.161997,-1.9545 -0.606075,-0.96495 -1.196804,-2.18917 -1.196804,-2.48035 0,-0.24515 1.804022,-1.02436 3.429261,-1.48107 6.425293,-1.80561 12.843351,-1.48496 20.427651,1.02055 2.926853,0.83535 5.408433,2.20376 7.901849,3.49057 0.144185,0 0.425466,0.32156 0.625051,0.71462 0.674963,1.32917 3.612682,6.26318 3.894766,6.5414 0.06132,0.0605 0.507241,0.70332 0.990973,1.42861 2.253412,3.37849 5.111053,6.8479 8.241892,10.00635 4.02652,4.06202 5.055423,4.97595 8.139123,7.22966 0.66513,0.4861 1.30997,0.9627 1.43295,1.05913 0.22158,0.17374 2.14154,1.44019 3.62427,2.3907 1.27218,0.81553 4.61288,2.6058 6.48644,3.47605 0.96747,0.44936 2.0064,0.94775 2.30874,1.1075 0.30233,0.15971 0.94548,0.41505 1.42921,0.56734 0.48374,0.15218 0.97847,0.3476 1.0994,0.43403 0.1934,0.13816 4.83117,1.72844 5.55195,1.90371 0.15118,0.0369 0.27485,0.2062 0.27485,0.37636 0,0.35503 -1.85815,0.89464 -7.03614,2.04334 -3.29542,0.73106 -3.59357,0.75895 -9.01505,0.84275 -3.08381,0.0478 -6.44796,-0.005 -7.475898,-0.11894 z"
         id="path5567" /><path
         inkscape:connector-curvature="0"
         style="fill:#000000;stroke-width:0.15306"
         d="m 110.45735,158.75381 c 0,-0.12102 -0.0989,-0.21997 -0.21989,-0.21997 -0.12094,0 -0.21988,0.099 -0.21988,0.21997 0,0.12102 0.0989,0.21997 0.21988,0.21997 0.12095,0 0.21989,-0.099 0.21989,-0.21997 z"
         id="path5564" /><path
         inkscape:connector-curvature="0"
         style="fill:#000000;stroke-width:0.15306"
         d="m 80.33388,128.85024 c 0,-0.12103 -0.09895,-0.21997 -0.219888,-0.21997 -0.120942,0 -0.219888,0.0989 -0.219888,0.21997 0,0.12102 0.09895,0.21996 0.219888,0.21996 0.120943,0 0.219888,-0.0989 0.219888,-0.21996 z"
         id="path5561" /><path
         sodipodi:nodetypes="cscccccsccccccscsccc"
         inkscape:connector-curvature="0"
         style="fill:#000000;stroke-width:0.15306"
         d="m 174.49722,161.28879 c -1.2317,-0.29637 -1.59413,-0.47177 -1.59413,-0.77151 0,-0.28549 0.24316,-0.42687 0.92057,-0.53519 3.64884,-0.97912 7.54498,-2.73625 10.29328,-4.03808 1.49733,-0.7103 4.90344,-2.55791 5.93674,-3.2203 1.49524,-0.95851 3.40345,-2.21758 3.62427,-2.39132 0.12297,-0.0969 0.77712,-0.59152 1.45362,-1.09939 3.51255,-2.63707 3.93459,-3.00668 7.45543,-6.52901 3.66572,-3.66728 4.52804,-4.64549 6.88227,-7.80708 2.02504,-2.71953 3.5576,-4.99518 4.66445,-6.9262 0.31195,-0.5442 0.85615,-1.48419 1.20936,-2.08885 0.3532,-0.60468 0.80773,-1.41175 1.01004,-1.79351 11.12836,-5.45588 21.65427,-8.89418 31.85865,-4.16289 0.72864,0.18283 0.70049,0.68522 -0.10993,1.96315 -0.3628,0.57207 -0.65964,1.12253 -0.65964,1.22327 0,0.10076 -0.44525,0.84714 -0.98946,1.65865 -0.5442,0.81156 -0.98945,1.52223 -0.98945,1.57926 0,0.18984 -2.92532,4.55628 -4.66914,6.96936 -5.51873,7.63669 -11.4065,13.81012 -17.6529,18.50929 -18.15425,11.6785 -30.02347,14.57894 -48.64403,9.46035 z"
         id="path5558" /><path
         inkscape:connector-curvature="0"
         style="fill:#000000;stroke-width:0.15306"
         d="m 200.38801,158.75381 c 0,-0.12102 -0.099,-0.21997 -0.21989,-0.21997 -0.12094,0 -0.21989,0.099 -0.21989,0.21997 0,0.12102 0.099,0.21997 0.21989,0.21997 0.12094,0 0.21989,-0.099 0.21989,-0.21997 z"
         id="path5555" /><path
         inkscape:connector-curvature="0"
         style="fill:#000000;stroke-width:0.15306"
         d="m 230.51148,128.85024 c 0,-0.12103 -0.0989,-0.21997 -0.21989,-0.21997 -0.12094,0 -0.21988,0.0989 -0.21988,0.21997 0,0.12102 0.0989,0.21996 0.21988,0.21996 0.12095,0 0.21989,-0.0989 0.21989,-0.21996 z"
         id="path5552" /><path
         sodipodi:nodetypes="ccccccsccccscccccc"
         inkscape:connector-curvature="0"
         style="fill:#000000;stroke-width:0.15306"
         d="m 109.80279,150.25206 c -0.1842,-0.15166 -0.73068,-0.58212 -1.21441,-0.9566 -9.060195,-7.57117 -12.968826,-17.43798 -13.789569,-27.93484 -0.28072,-3.81092 -0.01818,-7.75493 0.52307,-7.85809 1.253034,1.01133 2.437931,2.6471 3.447686,3.66346 5.380523,4.90052 9.692843,7.98742 16.443103,9.60813 1.02845,0.18542 1.40132,0.45315 1.40132,1.00574 0,0.22879 0.0922,0.58762 0.20495,0.79761 1.1618,4.18548 2.76758,8.46669 5.19907,12.2553 1.558,2.38724 4.44832,5.33785 6.68935,6.82891 3.13424,1.97157 6.69563,3.21556 10.05948,3.73343 0.51397,0.0774 0.93449,0.21347 0.93449,0.30268 0,0.26837 -0.93909,1.04194 -1.75904,1.44902 -0.42327,0.2101 -0.91799,0.50499 -1.09939,0.65525 -0.18141,0.15036 -0.82455,0.45484 -1.42922,0.67683 -0.60467,0.22204 -1.1497,0.47478 -1.21118,0.56178 -0.0615,0.087 -1.14991,0.38018 -2.41868,0.65148 -7.84655,1.42638 -15.69635,-0.43406 -21.98103,-5.44009 z"
         id="path5549" /><path
         inkscape:connector-curvature="0"
         style="fill:#000000;stroke-width:0.15306"
         d="m 110.45735,128.84946 c 0,-0.12102 -0.0989,-0.21997 -0.21989,-0.21997 -0.12094,0 -0.21988,0.099 -0.21988,0.21997 0,0.12102 0.0989,0.21996 0.21988,0.21996 0.12095,0 0.21989,-0.0989 0.21989,-0.21996 z"
         id="path5546" /><path
         sodipodi:nodetypes="ccccccccscccccsccccccc"
         inkscape:connector-curvature="0"
         style="fill:#000000;stroke-width:0.15306"
         d="m 158.28111,153.08518 c -0.8371,-0.42063 -1.82196,-1.29164 -1.62941,-1.44102 0.0496,-0.0384 1.222,-0.28858 2.60524,-0.55571 1.38324,-0.26715 2.62006,-0.56923 2.74849,-0.6713 0.12842,-0.10206 0.48087,-0.2571 0.78321,-0.3447 1.43581,-0.41565 5.09517,-2.39983 6.07661,-3.29489 0.1374,-0.12517 0.7893,-0.69202 1.44869,-1.25936 2.46136,-2.11778 5.08076,-5.87945 6.72578,-9.65876 0.50632,-1.16325 0.9206,-2.23233 0.9206,-2.37577 0,-0.14335 0.18706,-0.67584 0.41566,-1.18319 0.22861,-0.50732 0.5411,-1.5161 0.69442,-2.2417 0.15333,-0.72561 0.36207,-1.41327 0.46386,-1.52816 0.1018,-0.11479 0.18508,-0.42435 0.18508,-0.68768 6.59618,-3.64785 16.23951,-5.3906 20.72489,-13.89032 0.12883,-0.27211 0.40429,-0.49473 0.61212,-0.49473 0.3332,0 0.39402,0.37052 0.51427,3.13328 -0.12135,8.71322 -1.59076,17.38936 -6.58622,24.82855 -1.97327,2.84023 -5.02865,6.16418 -7.23947,7.87574 -0.48373,0.37448 -1.03022,0.80496 -1.21441,0.9566 -1.52693,1.257 -5.79552,3.58817 -7.7208,4.21649 -2.22661,0.98362 -4.25199,1.18052 -6.63803,1.65411 -4.9417,0.61661 -9.57742,-0.68317 -13.89058,-3.03748 z"
         id="path5543" /><path
         sodipodi:nodetypes="cccccccscccccccccscscccc"
         inkscape:connector-curvature="0"
         style="fill:#000000;stroke-width:0.15306"
         d="m 143.8919,146.66228 c -8.10713,-1.71093 -15.20117,-8.00092 -17.67727,-15.33492 -0.81316,-2.52784 -1.02629,-4.01161 -1.01709,-7.0808 0.009,-3.01707 0.32322,-5.67829 1.16997,-9.90914 0.75017,-3.74817 2.42266,-9.88499 3.08614,-11.32381 0.16728,-0.3628 0.37626,-0.907 0.46436,-1.20932 0.0881,-0.30234 0.39596,-1.07209 0.68409,-1.71059 0.28816,-0.63847 0.52391,-1.21355 0.52391,-1.277929 0,-0.47668 3.55165,-7.590954 5.05307,-10.121731 0.94636,-1.595181 3.08258,-4.919965 3.30235,-5.139749 0.0605,-0.06051 0.54994,-0.753078 1.08772,-1.539138 1.31182,-1.917496 4.82345,-6.330448 6.17102,-7.754929 0.59845,-0.632629 1.09001,-1.224408 1.09238,-1.315095 0.0197,-0.759103 1.73916,1.037735 5.26554,5.502784 1.99609,2.527401 4.36208,5.930666 6.30148,9.064206 1.66772,2.694544 1.75851,2.860492 3.48903,6.376519 0.80352,1.632604 1.65395,3.334289 1.88984,3.781492 0.23588,0.44723 0.42887,0.918299 0.42887,1.046825 0,0.128551 0.19592,0.653146 0.43538,1.165793 1.28417,2.749182 3.22185,9.268872 4.3287,14.564602 1.8256,8.73452 1.48329,16.01466 -0.9623,20.4661 -1.30487,2.37511 -1.47145,2.64697 -2.13166,3.47881 -4.71535,5.71979 -11.18217,8.48131 -18.38095,8.86956 -1.68423,0.26238 -3.23361,-0.31844 -4.60458,-0.59954 z"
         id="path5540" /><path
         inkscape:connector-curvature="0"
         style="fill:#000000;stroke-width:0.15306"
         d="m 140.36095,128.84946 c 0,-0.12102 -0.10479,-0.21997 -0.23285,-0.21997 -0.12809,0 -0.17172,0.099 -0.097,0.21997 0.0747,0.12102 0.17953,0.21996 0.23284,0.21996 0.0533,0 0.097,-0.0989 0.097,-0.21996 z"
         id="path5537" /><path
         inkscape:connector-curvature="0"
         style="fill:#000000;stroke-width:0.15306"
         d="m 170.37448,128.84946 c 0.0747,-0.12102 0.0311,-0.21997 -0.097,-0.21997 -0.12806,0 -0.23285,0.099 -0.23285,0.21997 0,0.12102 0.0436,0.21996 0.097,0.21996 0.0533,0 0.15811,-0.0989 0.23285,-0.21996 z"
         id="path5534" /><path
         sodipodi:nodetypes="cccccccccscccccccccccscc"
         inkscape:connector-curvature="0"
         style="fill:#000000;stroke-width:0.15306"
         d="m 86.954205,123.58741 c -2.409593,-2.42245 -5.51963,-5.92627 -6.840205,-7.70636 -0.302335,-0.40752 -0.947921,-1.24313 -1.434648,-1.85691 -1.460548,-1.84179 -4.598446,-6.73353 -6.027331,-9.39615 -4.68455,-8.793316 -7.5899,-17.689366 -8.834424,-27.67008 -0.696575,-5.403293 -1.979407,-19.595822 -0.292967,-22.842332 0.165844,-0.165948 7.553736,3.736019 9.648063,5.095523 10.056134,6.037039 18.991723,13.423505 26.883877,21.231698 3.35945,3.328134 3.40497,3.386073 3.2836,4.177716 -0.60303,3.933053 -0.76554,5.385841 -0.90151,8.058778 -0.15408,3.028881 0.15325,9.809887 0.54112,11.939687 0.10349,0.56825 0.39546,2.25533 0.64882,3.74903 0.25336,1.49371 0.56197,2.90516 0.68581,3.13655 0.33531,0.6265 -0.34915,0.80486 -0.95936,0.25009 -0.26594,-0.24178 -1.11362,-0.87277 -1.88373,-1.40204 -0.7701,-0.5293 -2.119326,-1.4571 -2.998273,-2.06179 -0.878947,-0.60466 -2.32672,-1.59411 -3.217276,-2.19877 -1.379147,-1.05272 -2.802116,-1.90519 -4.037862,-2.97165 l -0.252169,1.26594 c -0.138706,0.69628 -0.353675,1.76066 -0.477731,2.36534 -0.48745,2.37608 -0.762804,8.39704 -0.636024,13.90736 0.07897,3.43282 0.04836,5.55197 -0.08022,5.55197 -0.114372,0 -1.382272,-1.18057 -2.817535,-2.62349 z"
         id="path5531" /><path
         inkscape:connector-curvature="0"
         style="fill:#000000;stroke-width:0.15306"
         d="m 80.33388,98.725967 c 0,-0.121021 -0.04363,-0.219966 -0.09697,-0.219966 -0.05332,0 -0.158105,0.09895 -0.232847,0.219966 -0.07474,0.12102 -0.03111,0.219965 0.09697,0.219965 0.128058,0 0.232847,-0.09895 0.232847,-0.219965 z"
         id="path5528" /><path
         sodipodi:nodetypes="cccccsccccccscccssc"
         inkscape:connector-curvature="0"
         style="fill:#000000;stroke-width:0.15306"
         d="m 206.43469,118.68004 c 0.082,-5.60658 -0.51529,-10.64123 -1.31928,-15.55969 l -0.63886,0.55129 c -2.94413,2.00546 -5.95029,4.34819 -8.87092,6.27254 -0.86679,0.47626 -2.11859,1.34428 -2.70852,1.87817 -0.34088,0.3085 -1.0844,0.44007 -1.0844,0.19192 0,-0.0683 0.097,-0.30574 0.21568,-0.5274 0.24017,-0.44873 0.97475,-4.54992 1.47831,-8.25332 0.47101,-3.463927 0.45379,-12.672085 -0.0292,-15.611422 -0.19872,-1.209345 -0.41695,-2.562824 -0.48496,-3.007768 -0.12227,-0.799772 -0.0849,-0.847271 3.28346,-4.17769 1.87392,-1.85283 4.07373,-3.962425 4.88847,-4.688027 8.81371,-7.642323 18.72559,-15.382189 29.12711,-20.54796 0.67246,-0.333974 1.33695,-0.732562 1.99571,-0.997352 0.53921,-0.134525 0.58028,-0.07973 0.85311,1.137252 2.0499,23.392922 -6.54026,48.033077 -19.85021,64.142637 -1.23665,1.45099 -6.48462,6.72774 -6.69107,6.72774 -0.0904,0 -0.16444,-3.38888 -0.16444,-7.53086 z"
         id="path5525" /><path
         inkscape:connector-curvature="0"
         style="fill:#000000;stroke-width:0.15306"
         d="m 200.38801,98.725967 c 0,-0.121021 -0.099,-0.219966 -0.21989,-0.219966 -0.12094,0 -0.21989,0.09895 -0.21989,0.219966 0,0.12102 0.099,0.219965 0.21989,0.219965 0.12094,0 0.21989,-0.09895 0.21989,-0.219965 z"
         id="path5522" /><path
         inkscape:connector-curvature="0"
         style="fill:#000000;stroke-width:0.15306"
         d="m 230.40154,68.822391 c 0.0747,-0.12102 0.0311,-0.219966 -0.097,-0.219966 -0.12806,0 -0.23285,0.09895 -0.23285,0.219966 0,0.12102 0.0436,0.219966 0.097,0.219966 0.0533,0 0.1581,-0.09895 0.23284,-0.219966 z"
         id="path5519" /><path
         sodipodi:nodetypes="ccccccccccccccc"
         inkscape:connector-curvature="0"
         style="fill:#000000;stroke-width:0.15306"
         d="m 113.15463,117.95423 c -0.47843,-0.65548 -2.47564,-4.24321 -2.72023,-4.88651 -0.12393,-0.32598 -0.3636,-0.89101 -0.5326,-1.25562 -1.04229,-2.2488 -2.13865,-6.17983 -2.66852,-9.56806 -0.43595,-2.787797 -0.43087,-11.343926 0.009,-14.512033 1.03828,-5.89036 2.45588,-12.885588 4.89252,-18.030116 3.54173,1.458683 7.14446,4.507016 9.03475,6.130635 1.71847,1.47655 4.51639,4.297152 5.36956,5.413032 0.2774,0.3628 0.55764,0.70911 0.62277,0.769595 0.34901,0.324027 2.61107,3.259884 2.83433,3.678625 0.22407,0.420194 0.15245,0.703371 -0.50051,1.978914 -4.52347,9.451081 -7.99673,19.041128 -10.90993,28.863498 -0.34088,1.14889 -0.85298,2.87971 -1.13799,3.84629 -0.36003,1.22109 -0.63338,1.77962 -0.89567,1.83013 -1.19822,-1.05292 -2.60379,-3.17343 -3.39705,-4.25838 z"
         id="path5516" /><path
         inkscape:connector-curvature="0"
         style="fill:#000000;stroke-width:0.15306"
         d="m 110.45735,98.848883 c 0,-0.05324 -0.0989,-0.158158 -0.21989,-0.232951 -0.12094,-0.07479 -0.21988,-0.03116 -0.21988,0.09687 0,0.128032 0.0989,0.232951 0.21988,0.232951 0.12095,0 0.21989,-0.04363 0.21989,-0.09687 z"
         id="path5513" /><path
         sodipodi:nodetypes="ccccccccccccccccccccccsscc"
         inkscape:connector-curvature="0"
         style="fill:#000000;stroke-width:0.15306"
         d="m 179.05347,120.98875 c -0.14151,-0.69537 -0.39082,-1.56113 -0.55399,-1.92393 -0.16317,-0.36281 -0.45438,-1.30279 -0.64713,-2.08885 -0.19275,-0.78609 -0.41067,-1.57765 -0.48428,-1.75905 -0.0736,-0.18153 -0.16226,-0.42877 -0.19709,-0.54968 -0.78296,-2.72158 -1.04682,-3.55574 -1.18242,-3.73797 -0.09,-0.12102 -0.28419,-0.71459 -0.43162,-1.31928 -0.14743,-0.60465 -0.40133,-1.39622 -0.56419,-1.75902 -0.16288,-0.3628 -0.46168,-1.25331 -0.66399,-1.97892 -0.20231,-0.7256 -0.44735,-1.41822 -0.54451,-1.53916 -0.0972,-0.12102 -0.33404,-0.75347 -0.52639,-1.40563 -0.34128,-1.15712 -1.26899,-3.651171 -1.68544,-4.531113 -0.11448,-0.24178 -0.39425,-0.983951 -0.62171,-1.649095 -0.47996,-1.403419 -3.49666,-8.040676 -4.34203,-9.553221 l -0.57562,-1.029919 0.72725,-1.02997 c 2.12835,-3.01413 6.67213,-7.919656 9.5509,-10.311234 2.58014,-2.056175 4.94674,-4.260924 7.88769,-5.120817 0.17802,0 0.44112,0.355893 0.58468,0.790839 2.16172,5.563761 3.50113,11.625809 4.30946,17.239277 0.4444,3.17543 0.44602,11.713562 0.003,14.512033 -1.65832,6.57101 -2.99677,13.62332 -8.33207,18.88742 -0.33256,0.30795 -0.60467,0.68628 -0.60467,0.84075 0,0.15452 -0.19087,0.28087 -0.42417,0.28087 -0.33995,0 -0.47524,-0.25088 -0.68147,-1.26433 z"
         id="path5510" /><path
         sodipodi:nodetypes="cscccccccccccccsccccccccscc"
         inkscape:connector-curvature="0"
         style="fill:#000000;stroke-width:0.15306"
         d="m 131.88422,78.112277 c -2.74482,-3.199323 -8.42541,-7.97222 -8.88521,-8.410386 -0.34464,-0.328416 -0.39359,-0.740405 0.0956,-2.135253 0.69429,-1.979616 1.38049,-3.760353 1.76146,-4.571059 0.17049,-0.362801 0.57388,-1.253312 0.8964,-1.978914 0.75764,-1.704437 3.25806,-6.718492 4.0571,-8.135545 1.07772,-1.911314 1.73778,-3.053215 2.24937,-3.891423 1.39889,-2.291931 2.30838,-3.72576 3.22365,-5.082174 0.55581,-0.823768 1.2118,-1.831248 1.45776,-2.238874 0.87024,-1.448477 1.97114,-2.697322 2.85102,-3.95627 2.27727,-3.274428 8.28549,-10.636144 8.68523,-10.641806 0.59651,-0.0078 8.7937,10.592463 12.4771,16.135864 4.32923,6.515303 6.47857,10.287783 9.45829,16.600883 1.11593,2.364335 1.74092,3.799879 2.05813,4.727424 0.16543,0.483717 0.35245,0.928973 0.41558,0.989457 0.10689,0.102321 1.31679,3.612609 1.31679,3.820291 0,0.05168 -0.33013,0.288864 -0.73363,0.526957 -1.83131,1.080482 -6.33259,5.380258 -8.7421,8.350785 -0.89871,1.107932 -1.27671,1.332339 -1.52446,0.8795 -0.18114,-0.323405 -0.57398,-1.166573 -1.96889,-3.243212 -3.54803,-5.160915 -7.07319,-11.079634 -11.71361,-15.925897 l -1.05048,-1.084014 -0.78951,0.754195 c -4.57749,4.971308 -8.33365,10.234025 -11.73634,15.879462 -0.99364,1.684986 -2.48686,3.894332 -2.63209,3.894332 -0.0784,0 -0.63059,-0.568951 -1.22717,-1.264323 z"
         id="path5507" /><path
         inkscape:connector-curvature="0"
         style="fill:#000000;stroke-width:0.15306"
         d="m 140.58082,38.821818 c 0,-0.232172 -0.42197,-0.329586 -0.54747,-0.126474 -0.076,0.122838 0.0161,0.223601 0.20469,0.223601 0.18852,0 0.34279,-0.04363 0.34279,-0.09687 z"
         id="path5504" /></g><path
       d="m 341.93833,308.36099 c -13.11331,3.64259 -25.49809,9.47072 -37.15436,16.75589 -5.09961,2.91407 -9.47072,6.55666 -13.84182,9.47072 2.18556,5.09962 4.3711,10.19923 7.28517,15.29885 5.82813,11.65627 13.1133,23.31254 22.58402,32.78326 5.09962,-3.64259 10.19924,-7.28517 15.29886,-10.19924 11.65626,-6.55665 24.76957,-11.65626 37.88287,-15.29885 -10.19924,-9.47072 -18.21292,-20.39847 -25.49809,-32.78325 -2.18555,-5.09963 -5.09962,-10.19924 -6.55665,-16.02738 z"
       id="path2952"
       style="stroke-width:0.264584" /><path
       d="m 736.79443,383.39822 c 9.47072,-9.47072 16.75588,-20.39847 22.58402,-32.78325 2.91405,-5.09962 5.09961,-9.47072 6.55668,-15.29886 -4.37112,-3.64258 -8.74223,-7.28516 -13.84184,-10.19923 -10.92774,-7.28517 -23.31256,-13.84182 -35.69733,-17.48441 -2.18555,5.82814 -4.37111,10.92776 -8.01369,16.02738 -6.55663,12.38478 -15.29882,23.31253 -25.49808,32.78325 13.11331,2.91407 26.22661,8.7422 38.61138,15.29885 5.09965,4.37111 10.19925,8.01369 15.29886,11.65627 z"
       id="path2949"
       style="stroke-width:0.264584" /><path
       d="m 701.0971,282.13439 c 2.91409,-13.1133 4.37112,-26.22661 3.64258,-40.06843 0,-5.09961 -0.72849,-10.92775 -1.45702,-16.75588 l -16.75588,-1.45703 c -13.11331,-0.72852 -26.95514,0.72851 -40.0684,3.64258 0.72849,5.82813 1.45702,12.38478 1.45702,18.21292 0,13.1133 -1.45702,26.95512 -5.09965,40.06842 13.1133,-3.64258 26.95514,-5.82813 40.79698,-5.82813 5.82809,0 11.65623,0.72852 17.48437,2.18555 z"
       id="path2940"
       style="stroke-width:0.264584" /><path
       d="m 411.87594,227.49563 c -13.1133,-2.91406 -26.22661,-4.3711 -40.06843,-3.64258 l -16.75588,1.45703 c 0,5.82813 -0.72852,11.65627 -1.45703,16.75589 -0.72852,13.1133 0.72851,26.95512 3.64258,40.06842 5.82813,-0.72852 12.38479,-1.45703 18.21292,-1.45703 13.1133,0 26.95512,1.45703 40.06842,5.09961 -3.64258,-13.1133 -5.82813,-26.95512 -5.82813,-40.79694 0,-5.82813 0.72852,-11.65627 2.18555,-17.4844 z"
       id="path2937"
       style="stroke-width:0.264584" /><path
       d="m 513.13977,191.79831 c -9.47072,-9.47072 -20.39847,-16.75589 -32.78325,-22.58402 -5.09962,-2.91407 -10.19924,-5.09962 -15.29886,-7.28517 -3.64258,5.09962 -7.28516,9.47072 -9.47071,13.84182 -7.28517,10.92775 -13.11331,23.31254 -17.48441,35.69732 5.82814,2.18555 10.92776,4.3711 16.02738,8.01369 12.38478,6.55665 23.31253,15.29885 32.78325,25.49808 3.64258,-13.1133 8.7422,-26.2266 15.29885,-37.88287 3.64259,-5.09961 7.28517,-10.19923 10.92775,-15.29885 z"
       id="path2934"
       style="stroke-width:0.264584" /><path
       d="m 620.23177,212.19678 c -3.64258,-13.1133 -9.47072,-25.49809 -16.75588,-37.15436 -2.9141,-5.09961 -6.55668,-9.47071 -10.19926,-13.84182 -5.09961,2.18556 -10.19926,4.37111 -15.29886,7.28517 -12.38477,5.82814 -23.31254,13.11331 -32.78326,22.58402 3.64259,5.09962 7.28517,10.19924 10.19924,15.29885 6.55667,11.65628 11.65627,24.76957 15.29886,37.88288 9.47072,-10.19924 20.39846,-18.21292 32.78328,-25.49809 5.82809,-2.18555 10.92774,-5.09962 16.75588,-6.55665 z"
       id="path2931"
       style="stroke-width:0.264584" /><path
       d="m 284.43984,257.5569 c 0,19.66995 2.91407,40.06842 8.01369,59.00986 l 9.47071,-5.82813 c 13.11331,-8.01369 26.95513,-14.57034 42.25398,-18.94144 -3.64258,-14.57034 -5.09962,-29.86919 -4.3711,-45.16804 0,-3.64258 0,-7.28517 0,-11.65627 -19.66995,5.82814 -37.88288,13.1133 -55.36728,22.58402 z"
       id="path2925"
       style="stroke-width:0.264584" /><path
       d="m 635.93654,213.17899 c 14.57037,-3.64259 29.86919,-5.09962 45.16805,-4.3711 v 0 h 10.92774 c -5.0996,-19.66996 -13.1133,-37.88288 -22.58398,-55.36728 -19.66997,0 -40.06844,2.91406 -59.00988,8.01368 2.18556,3.64259 4.37111,6.55665 5.82814,9.47072 v 0 c 9.47072,13.1133 15.29886,26.95512 19.66993,42.25398 z"
       id="path2904"
       style="stroke-width:0.264584" /><path
       d="m 566.32149,157.41302 10.19926,-5.09962 c -14.57033,-13.84182 -29.86921,-26.22661 -47.35361,-36.42584 -17.4844,10.19923 -32.78325,22.58402 -47.35359,36.42584 l 9.47072,5.09962 c 13.84182,7.28516 26.2266,16.02737 37.88287,26.95512 10.92775,-10.92775 23.31254,-19.66996 37.15435,-26.95512 z"
       id="path2901"
       style="stroke-width:0.264584" /><path
       d="m 375.44284,209.33706 c 15.29885,-0.72852 30.5977,0.72851 45.16804,4.3711 4.3711,-14.57034 10.92775,-28.41216 18.94143,-41.52546 l 6.55666,-9.47072 c -19.66996,-5.09961 -39.33991,-8.01368 -59.73838,-8.01368 -9.47072,17.4844 -17.48441,36.42584 -22.58402,55.36727 z"
       id="path2895"
       style="stroke-width:0.264584" /><path
       d="m 756.41007,311.2678 v 0 l 9.47067,5.82813 c 5.09965,-19.66995 8.0137,-39.33991 8.0137,-59.00986 -17.48437,-9.47072 -36.42581,-17.4844 -55.36726,-22.58402 0,3.64259 0,7.28517 0,10.92775 0.72849,15.29885 -0.72853,30.59771 -4.37111,45.16804 14.57032,5.09962 29.14069,11.65627 42.254,19.66996 z"
       id="path2892"
       style="stroke-width:0.264584" /></g></svg>
