<?xml version="1.0" encoding="UTF-8" standalone="no"?>
<!-- Created with Inkscape (http://www.inkscape.org/) -->

<svg
   width="1000mm"
   height="1000mm"
   viewBox="0 0 1000 1000"
   version="1.1"
   id="svg5"
   inkscape:version="1.2.2 (b0a8486541, 2022-12-01)"
   sodipodi:docname="entrance.svg"
   xml:space="preserve"
   inkscape:export-filename="entrance.png"
   inkscape:export-xdpi="96"
   inkscape:export-ydpi="96"
   xmlns:inkscape="http://www.inkscape.org/namespaces/inkscape"
   xmlns:sodipodi="http://sodipodi.sourceforge.net/DTD/sodipodi-0.dtd"
   xmlns="http://www.w3.org/2000/svg"
   xmlns:svg="http://www.w3.org/2000/svg"><sodipodi:namedview
     id="namedview7"
     pagecolor="#ffffff"
     bordercolor="#000000"
     borderopacity="0.25"
     inkscape:showpageshadow="2"
     inkscape:pageopacity="0.0"
     inkscape:pagecheckerboard="0"
     inkscape:deskcolor="#d1d1d1"
     inkscape:document-units="mm"
     showgrid="true"
     inkscape:zoom="0.33060837"
     inkscape:cx="2205.0258"
     inkscape:cy="1323.318"
     inkscape:window-width="1280"
     inkscape:window-height="658"
     inkscape:window-x="0"
     inkscape:window-y="0"
     inkscape:window-maximized="1"
     inkscape:current-layer="layer1"><inkscape:grid
       type="xygrid"
       id="grid9"
       spacingx="26.458333"
       spacingy="26.458333"
       originx="0"
       originy="0" /></sodipodi:namedview><defs
     id="defs2"><rect
       x="1700"
       y="3400"
       width="1400"
       height="499.99999"
       id="rect3093" /><rect
       x="499.99999"
       y="2700"
       width="1300"
       height="699.99999"
       id="rect3087" /><rect
       x="1700"
       y="3400"
       width="1400"
       height="500"
       id="rect3093-3" /><rect
       x="1700"
       y="3400"
       width="1400"
       height="500"
       id="rect3093-6" /><rect
       x="1700"
       y="3400"
       width="1400"
       height="500"
       id="rect3093-2" /><clipPath
       clipPathUnits="userSpaceOnUse"
       id="clipPath18"><path
         d="M 0,600.949 H 847.559 V 0 H 0 Z"
         id="path16"
         inkscape:connector-curvature="0" /></clipPath><linearGradient
       id="a"
       x1="104.73"
       x2="494.51999"
       y1="335.72"
       y2="895.84003"
       gradientUnits="userSpaceOnUse"><stop
         stop-color="#e00"
         offset="0"
         id="stop2" /><stop
         stop-color="#9a0000"
         offset="1"
         id="stop4" /></linearGradient></defs><g
     inkscape:label="Layer 1"
     inkscape:groupmode="layer"
     id="layer1"><path
       id="path4999"
       style="fill:#000000;fill-opacity:1;stroke:none;stroke-width:1.32292;stroke-linecap:round;stroke-miterlimit:0"
       d="M 529.28811 111.68931 A 290.46547 290.46547 0 0 0 238.82263 402.15478 L 371.6538 402.15478 A 157.58377 161.05626 0 0 1 529.16667 242.75521 A 157.58377 161.05626 0 0 1 686.72604 402.15478 L 819.75358 402.15478 A 290.46547 290.46547 0 0 0 529.28811 111.68931 z " /><path
       id="path4996"
       d="m 529.28826,123.30425 c -24.71536,0 -47.09475,10.13418 -63.23171,26.45833 -20.75212,-12.02527 -38.56675,-20.16391 -40.20627,-20.90621 l -5.13862,-2.33103 -2.19362,5.19661 c -0.74875,1.77506 -9.36675,22.32688 -16.8543,47.50699 -24.94128,-1.85253 -50.51519,6.71354 -69.55034,25.74224 -17.4731,17.4731 -26.13499,40.4714 -25.99944,63.4246 -23.17912,6.17077 -41.5296,13.012 -43.2143,13.64457 l -5.28108,1.98812 2.11798,5.22939 c 0.72293,1.78797 9.16586,22.41089 21.67523,45.51256 -18.93833,16.33059 -30.97038,40.47069 -30.97038,67.38068 v 0.004 h 10.99835 v -0.004 c 0,-22.78538 9.82497,-43.31099 25.4649,-57.58251 2.36245,4.07942 4.82783,8.15875 7.38393,12.16072 -11.68961,11.61215 -18.93825,27.68405 -18.93825,45.42179 v 0.004 h 10.99205 v -0.004 c 0,-13.92297 5.39636,-26.59949 14.19423,-36.06866 10.5923,15.07192 22.32127,27.83316 34.02379,33.0228 h 0.006 c -1.93488,0.8076 -3.87826,1.87064 -5.82318,3.04964 H 363.531 c -0.16094,-0.0739 -0.33037,-0.1494 -0.48662,-0.22314 0.57447,-0.2582 1.19494,-0.52834 1.79523,-0.79299 0.94886,-0.4131 1.92308,-0.83342 2.92357,-1.25944 0.32274,-0.13555 0.64518,-0.27024 0.98083,-0.41224 0.53574,-0.21947 1.07245,-0.44619 1.62756,-0.66565 1.77507,-0.71649 3.63349,-1.43933 5.56347,-2.15581 1.00695,-0.37438 2.04037,-0.74275 3.0925,-1.11067 3.88578,-1.36842 8.02296,-2.68459 12.38639,-3.89809 1.74279,-0.48411 3.52416,-0.94896 5.3315,-1.39434 1.66533,-0.4131 3.35594,-0.80074 5.07937,-1.16866 l 0.27105,-0.058 c 2.0978,-0.44539 4.22168,-0.8712 6.39049,-1.24558 1.76215,-0.30337 3.55079,-0.58032 5.35167,-0.83206 l 0.28996,-0.0391 c 0.56157,-0.0774 1.12384,-0.14205 1.69187,-0.21305 1.31032,-0.16782 2.62624,-0.32223 3.96238,-0.45133 0.50347,-0.0516 1.01426,-0.0973 1.52419,-0.14246 1.82024,-0.16783 3.65295,-0.29652 5.50547,-0.39334 2.49155,-0.13555 4.99581,-0.22692 7.53899,-0.22692 10.92149,0 21.6234,0.56837 31.63477,1.65277 -0.77457,3.27258 -1.30366,6.63528 -1.56831,10.06922 l -36.09512,3.30556 -5.48657,0.50301 -4.20192,0.38704 -1.28465,0.11599 -4.22209,0.38829 -2.86179,0.26097 h 64.93113 v -0.004 c 0,-4.77008 0.60766,-9.26252 1.73724,-13.61304 0.29692,-1.13604 0.63812,-2.25837 1.00605,-3.36859 0.213,-0.65194 0.43943,-1.30372 0.67825,-1.94275 0.42602,-1.13604 0.89732,-2.25363 1.39434,-3.35093 0.28401,-0.61966 0.56777,-1.23262 0.87115,-1.83937 0.52283,-1.05213 1.0843,-2.07799 1.67168,-3.08493 4.67972,-8.01039 11.35443,-14.71037 19.34545,-19.42237 0.94886,-0.56156 1.91723,-1.085 2.89836,-1.58847 0.6713,-0.34211 1.3556,-0.67085 2.03981,-0.98713 1.03277,-0.4712 2.07804,-0.91709 3.13663,-1.32374 0.69711,-0.2711 1.40653,-0.52264 2.12301,-0.76146 1.04568,-0.35502 2.11178,-0.67776 3.18327,-0.96822 4.46671,-1.20059 9.1527,-1.84567 13.99378,-1.84567 4.84109,0 9.15895,0.58668 13.46429,1.6969 1.12313,0.29047 2.2273,0.62708 3.31816,0.98209 0.6713,0.21947 1.33604,0.44433 1.99443,0.68961 1.11668,0.4131 2.20744,0.87225 3.28539,1.36281 0.63902,0.29047 1.27754,0.58023 1.90366,0.89006 1.03921,0.51638 2.05923,1.072 3.05972,1.64647 8.04266,4.66036 14.78162,11.32796 19.51943,19.31898 0.65838,1.10377 1.27119,2.23336 1.84566,3.38877 0.25174,0.49702 0.49112,1.00684 0.72995,1.51031 0.55511,1.20059 1.0719,2.42666 1.5431,3.67243 0.20009,0.52929 0.38027,1.06534 0.56101,1.60109 0.4131,1.21995 0.80055,2.45282 1.12328,3.7115 1.12959,4.35052 1.73599,8.91397 1.73599,13.61305 0,0.006 -10e-4,0.0109 -10e-4,0.0164 h 64.89583 l -2.79245,-0.25466 -4.22209,-0.38703 -1.28465,-0.11725 -4.20192,-0.38703 -5.48657,-0.50302 -36.09512,-3.30556 c -0.26465,-3.4404 -0.78729,-6.8031 -1.56832,-10.06922 10.01137,-1.0844 20.71974,-1.65278 31.63477,-1.65278 2.53673,0 5.04745,0.0977 7.53899,0.23323 1.85252,0.10328 3.68649,0.23797 5.50674,0.41225 0.50993,0.0452 1.02576,0.0971 1.52923,0.14876 0.79394,0.0839 1.58768,0.16793 2.37517,0.26475 0.52928,0.0645 1.04547,0.13575 1.5683,0.20676 0.56802,0.0774 1.14291,0.14175 1.70447,0.22566 1.90416,0.2711 3.78896,0.57458 5.64794,0.91023 0.1291,0.0258 0.26535,0.0448 0.4009,0.0706 2.02035,0.36792 3.99471,0.78143 5.95051,1.22036 1.8138,0.4002 3.58967,0.83297 5.34537,1.27834 0.80685,0.20656 1.61275,0.40711 2.40668,0.62658 0.98759,0.26464 1.95661,0.5482 2.92483,0.82575 5.57048,1.6137 10.77955,3.40127 15.54318,5.23443 1.6976,0.65839 3.33657,1.31714 4.918,1.97552 0.0323,0.0129 0.0585,0.0261 0.0908,0.0391 0.18074,0.0775 0.36767,0.15466 0.54841,0.22566 1.94289,0.81976 3.78271,1.63291 5.53195,2.42685 0.25779,0.1192 0.50931,0.23442 0.76777,0.35174 h 35.29458 c 10.81796,-6.55732 21.70091,-18.45589 31.64233,-31.9865 6.74453,8.9002 10.75923,19.98207 10.76008,31.9865 h 10.99205 c -0.003,-15.74571 -5.72696,-30.16897 -15.18766,-41.33334 2.70456,-4.01487 5.30589,-8.08094 7.79744,-12.12164 13.18492,13.96586 21.29814,32.77786 21.30078,53.45498 h 10.99825 v -0.004 c 0,-24.71536 -10.13421,-47.0935 -26.45832,-63.23045 12.02516,-20.75213 20.16523,-38.56802 20.90746,-40.20754 l 2.32979,-5.13735 -5.19662,-2.19488 c -1.77506,-0.75521 -22.32686,-9.37196 -47.50699,-16.85305 1.85251,-24.94128 -6.7123,-50.51519 -25.74099,-69.55034 -17.4731,-17.4731 -40.4714,-26.13625 -63.42461,-26.0007 -6.17077,-23.17912 -13.01325,-41.5296 -13.64582,-43.2143 l -1.98812,-5.27953 -5.22813,2.11672 c -1.78798,0.72294 -22.4109,9.16587 -45.51256,21.67523 -16.3306,-18.93833 -40.47195,-30.97037 -67.38194,-30.97037 z m 0,10.99961 c 22.78538,0 43.31225,9.8237 57.58377,25.46364 -4.07942,2.36244 -8.16002,4.82909 -12.16198,7.38518 -11.61215,-11.68961 -27.68405,-18.93825 -45.42179,-18.93825 -15.74967,0 -30.17665,5.72496 -41.34342,15.18766 -4.01488,-2.70455 -8.08094,-5.30588 -12.12164,-7.79743 13.96815,-13.18712 32.78394,-21.3008 53.46506,-21.3008 z m -102.81771,6.97798 c 8.54612,4.07297 20.06709,9.97865 32.20208,16.96273 1.57497,0.91012 3.16355,1.83366 4.75788,2.77606 1.58788,0.9424 3.18877,1.89736 4.7831,2.86557 3.96323,2.41409 7.91957,4.91815 11.7989,7.49361 1.53624,1.01986 3.05977,2.04587 4.56374,3.07863 1.53624,1.05859 3.04621,2.12438 4.53726,3.19588 15.82067,11.36687 28.99496,23.54693 33.29384,34.53942 1.04568,2.68519 1.89156,5.40952 2.56931,8.15925 -2.40763,4.35698 -5.50558,10.42994 -8.67488,17.84649 -0.57447,0.0452 -1.1489,0.10343 -1.72337,0.15507 0.63902,-7.77156 -0.48493,-15.65278 -3.40894,-23.13387 -3.94387,-10.08237 -15.32973,-20.31933 -27.98756,-29.16883 -1.51042,-1.05859 -3.0401,-2.09171 -4.57634,-3.10511 -1.53624,-1.0134 -3.07289,-2.00088 -4.60913,-2.96264 -4.07296,-2.54965 -8.11967,-4.92421 -11.96026,-7.0801 -1.65888,-0.92949 -3.27904,-1.82096 -4.84109,-2.66008 -1.6847,-0.90367 -3.29855,-1.7615 -4.83479,-2.55544 -7.0099,-3.63404 -12.29713,-6.07482 -14.00765,-6.84939 l -5.13735,-2.32977 -2.19488,5.19661 c -0.89722,2.12362 -4.05957,9.74633 -7.5516,19.91907 -0.57448,1.66533 -1.14875,3.40107 -1.72968,5.18905 -0.55512,1.71051 -1.11043,3.46631 -1.65908,5.2672 -1.31033,4.29888 -2.58192,8.82451 -3.71151,13.41386 -0.43892,1.78797 -0.85939,3.58231 -1.25314,5.38319 -0.40019,1.8267 -0.76746,3.65245 -1.10311,5.4727 -2.427,13.14194 -3.07873,25.89113 0.36813,34.70835 3.04019,7.77802 7.75805,14.40675 13.58026,19.64803 -1.73633,1.36196 -3.4465,2.76896 -5.12474,4.20191 -4.00197,-1.67824 -7.71338,-3.08514 -11.03114,-4.25991 -3.13057,-4.33115 -5.73861,-9.08219 -7.73313,-14.18792 -3.90515,-9.99846 -3.07243,-25.70304 0.0517,-42.81466 0.32919,-1.79443 0.67831,-3.60203 1.05269,-5.42227 0.36792,-1.77507 0.74815,-3.56245 1.1548,-5.35042 1.01985,-4.49898 2.16896,-9.03101 3.38246,-13.52354 0.48411,-1.78797 0.98148,-3.56905 1.49141,-5.34411 0.50347,-1.76215 1.01915,-3.51826 1.53553,-5.2546 l -0.0126,-0.006 c 4.60872,-15.36239 9.77967,-29.55563 13.74291,-39.46373 z m 214.58262,3.7115 c 3.16285,8.92051 7.13205,21.24878 10.77899,34.76509 0.4712,1.7557 0.94235,3.53708 1.40064,5.3315 0.45829,1.78798 0.91003,3.59588 1.34896,5.40967 1.0973,4.51189 2.12407,9.08103 3.04711,13.64457 0.36792,1.80733 0.72349,3.60878 1.05268,5.40966 0.33565,1.83316 0.65113,3.65387 0.94805,5.46766 3.14993,19.22234 3.85391,37.15301 -0.87745,47.95832 -1.16186,2.65292 -2.49826,5.17674 -3.96995,7.58438 -4.80235,1.38777 -11.3152,3.49194 -18.82856,6.51278 -0.43247,-0.36793 -0.85849,-0.72904 -1.29096,-1.09051 5.97713,-5.0541 10.77269,-11.43815 14.00008,-18.81596 4.34407,-9.921 3.53142,-25.20556 0.83333,-40.41302 -0.32274,-1.8138 -0.67216,-3.62754 -1.04008,-5.43488 -0.36793,-1.80089 -0.76076,-3.58938 -1.16741,-5.35798 -1.07795,-4.68618 -2.25892,-9.22995 -3.45306,-13.46429 -0.51638,-1.83315 -1.03317,-3.60868 -1.5431,-5.30629 -0.54866,-1.8267 -1.09086,-3.5757 -1.6137,-5.22812 -2.38826,-7.52628 -4.40206,-12.98694 -5.06045,-14.74264 l -1.98813,-5.27981 -5.22812,2.11671 c -2.13654,0.86494 -9.75955,4.02184 -19.42236,8.74675 -1.58142,0.77457 -3.22099,1.58727 -4.89278,2.44575 -1.60078,0.81331 -3.24146,1.66609 -4.90034,2.5504 -3.96969,2.11072 -8.06174,4.40792 -12.11534,6.86074 -1.57497,0.95531 -3.14318,1.93079 -4.69233,2.92482 -1.57496,1.0134 -3.12472,2.03911 -4.6545,3.09124 -11.00541,7.57791 -20.48695,16.13048 -24.28236,24.79924 -3.33712,7.62956 -4.68658,15.62771 -4.28638,23.42509 -2.285,-0.27756 -4.5764,-0.51014 -6.88721,-0.69087 -1.56851,-3.80832 -3.11141,-7.25579 -4.56374,-10.30244 0.83267,-5.41556 2.36255,-10.75394 4.62173,-15.91131 4.30534,-9.83063 15.98928,-20.35155 30.30599,-30.24673 1.49751,-1.03277 3.02704,-2.06508 4.58264,-3.08494 1.51688,-0.99403 3.05367,-1.98797 4.60282,-2.96265 3.90514,-2.45926 7.91328,-4.85485 11.95397,-7.17212 1.60724,-0.92304 3.22109,-1.83236 4.83478,-2.72312 1.60724,-0.89076 3.20768,-1.76235 4.80202,-2.6273 14.12306,-7.60373 27.81309,-13.98748 37.62435,-18.18308 z m -111.7586,14.21945 c 13.92296,0 26.60074,5.39636 36.0699,14.19422 -15.07191,10.59231 -27.83315,22.32002 -33.02279,34.02254 v 0.008 c -5.29937,-12.69654 -19.07473,-25.7359 -35.0374,-37.46423 8.90114,-6.74525 19.98439,-10.76008 31.99029,-10.76008 z m -90.30274,14.07825 c 2.52382,1.2264 5.36488,2.65311 8.40509,4.24099 1.56851,0.81976 3.19482,1.6844 4.8537,2.59452 1.59433,0.86494 3.21388,1.76841 4.8663,2.6979 3.97615,2.24626 8.06864,4.67938 12.09643,7.22256 1.59433,1.00694 3.17565,2.03295 4.73771,3.07863 1.60079,1.07149 3.17611,2.15025 4.7188,3.24756 10.60521,7.54564 19.44828,15.621 22.26902,22.8439 2.64001,6.75816 3.35034,13.79329 2.40794,20.51917 -5.77057,0.91658 -11.43809,2.14324 -16.98921,3.64721 -1.80088,0.49056 -3.58906,0.99963 -5.37058,1.54183 l -0.25214,0.0782 c -1.67824,0.52284 -3.35004,1.072 -5.00246,1.64647 -0.12264,0.0387 -0.23792,0.0834 -0.36056,0.1286 -1.61369,0.56156 -3.20909,1.1494 -4.79697,1.75615 -2.81428,1.07795 -5.58884,2.22665 -8.32567,3.45306 -1.56205,0.69712 -3.11196,1.4261 -4.6482,2.1684 -0.12264,0.0581 -0.24533,0.1233 -0.37442,0.18785 -1.58143,0.77458 -3.14934,1.57416 -4.70494,2.40038 -0.0581,0.0323 -0.10958,0.0585 -0.16767,0.0908 -1.65888,0.87785 -3.30542,1.78087 -4.92556,2.71682 -3.53077,2.03325 -6.97733,4.20257 -10.34027,6.48756 -5.3962,-4.33115 -9.77921,-10.08289 -12.47086,-16.97659 l -0.006,-0.0126 c -2.34309,-5.99004 -2.03281,-15.2139 -0.34165,-25.44472 0.31628,-1.91062 0.67755,-3.85336 1.0842,-5.81562 0.38083,-1.85898 0.80649,-3.73793 1.25187,-5.62273 1.09732,-4.61516 2.37491,-9.26237 3.73042,-13.78072 0.5422,-1.80733 1.09121,-3.58226 1.65278,-5.3315 0.57447,-1.79443 1.14875,-3.55039 1.72968,-5.2609 1.83961,-5.45429 3.67273,-10.42369 5.27351,-14.50311 z m 188.28062,3.1757 c 0.91658,2.64646 1.91617,5.66705 2.94248,8.93963 0.52929,1.69115 1.06534,3.45341 1.60108,5.2672 0.51639,1.73634 1.02703,3.52372 1.5305,5.35042 1.21995,4.40216 2.39351,9.01099 3.43919,13.65843 0.4131,1.83962 0.80705,3.68604 1.17498,5.52565 0.37437,1.89126 0.72378,3.7699 1.04007,5.63534 2.16235,12.8321 2.704,24.79279 -0.40721,31.89951 -2.86592,6.54515 -7.28771,12.09562 -12.84528,16.27187 -4.67326,-3.39522 -9.52651,-6.55707 -14.55479,-9.45526 -1.63306,-0.9424 -3.29174,-1.84622 -4.95707,-2.73698 -0.0581,-0.0323 -0.11084,-0.0585 -0.16894,-0.0908 -1.5556,-0.82621 -3.12351,-1.62707 -4.70493,-2.40163 -0.10973,-0.0581 -0.21917,-0.10959 -0.33535,-0.16768 -1.54914,-0.75521 -3.11105,-1.48374 -4.68602,-2.18731 -2.73683,-1.22641 -5.51265,-2.37638 -8.32693,-3.45432 -1.58788,-0.60675 -3.18847,-1.19334 -4.79571,-1.75491 -0.12264,-0.0387 -0.23918,-0.0847 -0.36182,-0.12985 -1.65888,-0.57447 -3.32406,-1.12237 -5.00876,-1.64521 l -0.25215,-0.0782 c -1.77506,-0.54866 -3.56969,-1.05773 -5.37058,-1.54184 -3.9116,-1.05858 -7.87464,-1.97516 -11.89597,-2.74328 -0.74231,-6.86144 0.23187,-14.00055 3.19461,-20.75871 v 0.006 c 2.58192,-5.88676 9.31427,-12.19956 17.75067,-18.23478 1.57497,-1.12959 3.20193,-2.24717 4.88017,-3.35094 1.58788,-1.04568 3.21515,-2.07138 4.86757,-3.09124 4.04069,-2.48509 8.22966,-4.87322 12.38008,-7.10657 1.65888,-0.89076 3.30511,-1.7617 4.93816,-2.60082 1.6718,-0.86495 3.32432,-1.69832 4.94448,-2.49872 5.15737,-2.54963 9.9726,-4.76968 13.98747,-6.52538 z M 395.01606,189.9575 h 0.0126 c 1.19633,2.2e-4 2.38653,0.0318 3.58291,0.0832 -1.2135,4.55062 -2.3563,9.18526 -3.37616,13.8198 -16.4726,-0.0516 -32.96462,6.18355 -45.50626,18.72519 -10.83757,10.83757 -17.29313,24.87641 -18.52599,39.9806 -4.73781,0.92304 -9.44952,1.9561 -14.05177,3.05342 0.55511,-19.20298 8.12029,-38.23843 22.74682,-52.86497 15.19782,-15.19782 35.1574,-22.79406 55.11784,-22.79725 z m 270.80358,0.058 c 19.20297,0.55511 38.23843,8.12029 52.86497,22.74683 v -0.008 c 16.11113,16.11113 23.68226,37.57379 22.71405,58.71966 -4.55063,-1.2135 -9.18528,-2.3563 -13.81981,-3.37616 0.0516,-16.4726 -6.18355,-32.96461 -18.72519,-45.50626 -11.1345,-11.13449 -25.38649,-17.29247 -39.9743,-18.49952 -0.92949,-4.75072 -1.96241,-9.46827 -3.05972,-14.07698 z m -272.76649,24.87616 c -3.1693,18.14439 -3.89894,35.46337 0.70977,47.41117 h -0.006 c -12.72883,-5.23483 -31.69883,-4.71225 -51.2891,-1.71077 1.55561,-11.4056 6.75096,-21.94634 15.0389,-30.22782 9.84355,-9.84355 22.62425,-14.99494 35.54672,-15.47258 z m 277.79543,0.46519 c 11.06349,1.52333 21.73978,6.51934 30.22782,15.00739 9.84354,9.84353 14.99382,22.62424 15.46502,35.54671 -18.14439,-3.16929 -35.46212,-3.89893 -47.40992,0.70978 5.22837,-12.72238 4.71209,-31.68007 1.71708,-51.26388 z m -141.49602,20.70071 c 0.23883,0.52929 0.48481,1.09025 0.72364,1.63891 0.50993,1.1554 1.019,2.3499 1.54184,3.58922 0.10973,0.25819 0.21301,0.50942 0.32274,0.77407 0.16136,0.38083 0.31643,0.77507 0.4778,1.16236 0.71648,1.77507 1.43932,3.63365 2.1558,5.55717 0.41956,1.13604 0.84003,2.29831 1.25314,3.47953 1.32323,3.7825 2.60718,7.80395 3.7884,12.04474 0.48411,1.74279 0.95526,3.52401 1.40064,5.33781 0.36792,1.49106 0.71704,2.99472 1.05269,4.53096 0.0581,0.27755 0.12219,0.54946 0.18028,0.82702 0.44538,2.07844 0.86489,4.17564 1.23927,6.31863 0.29692,1.69115 0.56787,3.40132 0.81315,5.12475 0.0258,0.16782 0.0385,0.34276 0.0643,0.51058 0.0774,0.58093 0.14836,1.16767 0.21936,1.7486 0.16782,1.29095 0.31704,2.58902 0.45259,3.89934 0.0516,0.52284 0.0971,1.05163 0.14876,1.58092 0.16783,1.82025 0.29637,3.65422 0.39965,5.50674 0.13555,2.53028 0.23196,5.07307 0.23197,7.65497 0,10.8505 -0.56097,21.48846 -1.63892,31.44819 -3.27902,-0.77457 -6.65499,-1.29136 -10.10829,-1.5431 l -3.30556,-36.07621 -0.50302,-5.48657 -0.38704,-4.20822 -0.11598,-1.27835 -0.38704,-4.22713 -0.36812,-4.02795 -0.36813,4.03425 -0.38704,4.20822 -0.11597,1.29726 -0.382,4.18931 -0.50302,5.48657 -3.3106,36.1342 c -3.44685,0.28401 -6.81682,0.82592 -10.08939,1.62631 -1.07795,-9.99846 -1.64647,-20.6748 -1.64647,-31.57047 0,-2.61419 0.10383,-5.1895 0.24584,-7.75205 0.10327,-1.85252 0.24553,-3.68523 0.41981,-5.50548 0.0452,-0.4712 0.0833,-0.94976 0.13489,-1.41451 0.071,-0.69066 0.14176,-1.37451 0.22567,-2.05872 0.0839,-0.67775 0.17438,-1.34219 0.26475,-2.00704 0.071,-0.52929 0.13575,-1.06564 0.20675,-1.58848 0.2711,-1.88479 0.56827,-3.75664 0.90392,-5.59625 0,-0.0194 -1.5e-4,-0.0386 0.006,-0.058 0.40019,-2.19462 0.84608,-4.34392 1.32373,-6.46109 0.40665,-1.80733 0.83282,-3.58856 1.28465,-5.33781 0.11619,-0.43892 0.22547,-0.88481 0.34166,-1.32373 0.36146,-1.34905 0.72984,-2.67838 1.11067,-3.99516 1.6137,-5.54466 3.39497,-10.72832 5.22813,-15.47258 0.74875,-1.92998 1.49781,-3.78841 2.24657,-5.56348 l 0.0189,0.0189 c 0,0 0.0188,-0.0448 0.0252,-0.0706 0.0646,-0.14846 0.12329,-0.30414 0.18784,-0.45259 0.74875,-1.76216 1.49071,-3.41429 2.2201,-5.01508 0.25173,-0.54865 0.50342,-1.10961 0.75516,-1.63891 z m 17.26656,13.61304 c 1.47814,0.16783 2.94343,0.35447 4.40867,0.56102 2.02034,0.29047 4.02784,0.6066 6.02237,0.97452 l -0.0126,0.006 c 2.1559,0.39375 4.29839,0.83332 6.42201,1.31743 l 0.27106,0.058 c 2.15589,0.49702 4.28593,1.04537 6.4031,1.6263 1.78151,0.49057 3.54428,1.01335 5.29998,1.56201 0.20655,0.0645 0.41245,0.13591 0.619,0.20046 1.58143,0.50347 3.1506,1.03967 4.7062,1.59478 1.77506,0.63257 3.54333,1.29731 5.28612,1.99443 1.30387,0.52283 2.60209,1.06489 3.89304,1.62 1.74279,0.75521 3.47207,1.53649 5.18905,2.35625 1.50396,0.71648 2.98851,1.45213 4.46666,2.21379 0.17428,0.0904 0.34906,0.18053 0.51689,0.27735 1.65888,0.86494 3.29784,1.75596 4.91799,2.67899 1.92353,1.09731 3.81513,2.2329 5.68702,3.40768 1.42006,0.89076 2.8266,1.80104 4.22083,2.73698 1.80734,1.21995 3.58226,2.47839 5.3315,3.7758 1.49106,1.10376 2.9628,2.22705 4.40868,3.38246 -2.38828,1.12959 -4.82824,2.34334 -7.31333,3.6472 -1.03922,0.54866 -2.0908,1.10967 -3.14293,1.6906 -1.60724,0.87786 -3.22079,1.79429 -4.84739,2.7496 -1.56852,0.92303 -3.14369,1.8854 -4.72511,2.87943 -3.28548,2.06553 -6.58343,4.29219 -9.86246,6.68046 -1.09732,-0.70358 -2.21409,-1.38758 -3.33077,-2.05242 -2.37536,-1.42005 -4.80318,-2.76311 -7.28181,-4.01534 -2.18817,-1.11022 -4.41498,-2.15564 -6.67415,-3.13032 -1.11668,-0.48411 -2.2327,-0.95525 -3.36229,-1.40064 -2.24627,-0.89721 -4.53101,-1.71687 -6.84182,-2.47853 -2.63356,-0.8714 -5.30691,-1.65298 -8.02436,-2.34364 -0.80685,-0.20656 -1.61985,-0.4066 -2.43316,-0.59379 -0.62611,-0.14201 -1.25233,-0.27671 -1.87844,-0.41226 -0.0904,-0.58092 -0.18699,-1.1552 -0.27736,-1.72967 -0.53575,-3.30486 -1.14885,-6.5324 -1.83306,-9.67589 -0.40019,-1.8267 -0.81294,-3.63475 -1.25187,-5.40336 -0.45829,-1.8267 -0.93655,-3.61473 -1.42711,-5.37689 -1.11023,-3.9826 -2.31082,-7.77731 -3.55014,-11.37909 z m -34.80417,0.0252 c -0.89722,2.51091 -1.77431,5.11194 -2.61343,7.81004 -0.34856,1.12959 -0.69167,2.27244 -1.03378,3.42784 -0.50993,1.76216 -1.01249,3.53758 -1.49015,5.36429 -0.45829,1.76216 -0.88415,3.56294 -1.29726,5.38319 -0.85848,3.77605 -1.62045,7.66219 -2.24657,11.6577 -1.27804,0.28401 -2.54989,0.57362 -3.80857,0.89636 -2.71101,0.69066 -5.3831,1.47225 -8.0231,2.34364 -2.31082,0.76167 -4.59556,1.58778 -6.84183,2.47854 -1.12959,0.45184 -2.25333,0.92299 -3.36355,1.40064 -2.25917,0.98113 -4.48597,2.0201 -6.67415,3.13032 -2.47864,1.25869 -4.90518,2.60173 -7.28055,4.01533 -0.69711,0.41311 -1.38823,0.83832 -2.07889,1.27079 -0.50347,0.31628 -1.007,0.62656 -1.50402,0.9493 -0.42601,-0.31628 -0.85233,-0.62561 -1.27835,-0.93544 -2.78846,-2.02679 -5.58889,-3.93182 -8.37735,-5.71979 -1.58143,-1.01986 -3.16401,-1.99993 -4.73898,-2.94878 -1.60724,-0.96822 -3.20783,-1.89792 -4.79571,-2.78868 -3.54367,-1.99452 -7.02255,-3.81538 -10.39195,-5.46135 1.09086,-0.87139 2.19518,-1.72262 3.31186,-2.56174 h -0.006 c 1.6266,-1.22641 3.28514,-2.40844 4.96338,-3.57031 1.79443,-1.23932 3.62144,-2.44611 5.47396,-3.61443 0.0581,-0.0387 0.12219,-0.0772 0.18029,-0.11598 1.85897,-1.16832 3.74347,-2.30436 5.66054,-3.38877 1.62015,-0.92303 3.26037,-1.81404 4.91925,-2.67898 0.18074,-0.0968 0.36768,-0.19314 0.54841,-0.28997 1.46524,-0.75521 2.94283,-1.49116 4.43388,-2.20118 1.71052,-0.8133 3.44106,-1.60104 5.19031,-2.35625 1.29095,-0.55511 2.58147,-1.09716 3.89178,-1.62 1.74925,-0.69712 3.51106,-1.36186 5.28612,-1.99443 1.5556,-0.55511 3.12477,-1.08486 4.7062,-1.59479 0.20655,-0.0645 0.41245,-0.1359 0.619,-0.20044 1.7557,-0.55512 3.51847,-1.07145 5.29999,-1.56202 2.11717,-0.58738 4.25366,-1.13574 6.4031,-1.6263 1.65242,-0.38083 3.31821,-0.72349 4.98355,-1.05269 2.13653,-0.41956 4.29228,-0.79928 6.46109,-1.12202 1.8267,-0.27755 3.66572,-0.51063 5.51179,-0.72364 z m -142.54618,19.59886 c 8.24194,0.0194 15.4328,1.0249 20.8419,3.39381 2.69165,1.18122 5.24659,2.53562 7.68649,4.02667 1.39424,4.80237 3.49256,11.25807 6.48757,18.68107 -0.39374,0.45829 -0.78138,0.91572 -1.16866,1.38047 -5.0541,-5.97713 -11.43689,-10.77269 -18.81471,-14.00008 -9.92745,-4.34407 -25.23188,-3.53032 -40.4458,-0.82576 -1.80734,0.32274 -3.60893,0.66459 -5.40336,1.03251 -1.8138,0.37438 -3.61428,0.76832 -5.39581,1.17497 -4.6668,1.0715 -9.19857,2.25278 -13.42646,3.44046 -1.83315,0.51638 -3.60742,1.0319 -5.30503,1.54183 -1.8267,0.54866 -3.57696,1.09086 -5.22938,1.6137 -7.52628,2.38827 -12.98694,4.40333 -14.74264,5.06171 l -5.27981,1.98813 2.11797,5.22813 c 0.86495,2.13653 4.02058,9.75955 8.74549,19.42235 0.77457,1.58143 1.58853,3.22099 2.44701,4.89278 0.81331,1.60079 1.66484,3.24021 2.54914,4.89908 2.11072,3.9697 4.40918,8.06174 6.862,12.11534 0.95531,1.57497 1.92953,3.14318 2.92356,4.69233 1.01341,1.57496 2.03911,3.12472 3.09124,4.65451 7.57792,11.0054 16.13048,20.48694 24.79925,24.28235 6.6807,2.92402 13.75596,4.39607 20.83686,4.39607 0.86494,0 1.72328,-0.0254 2.58822,-0.0706 -0.26465,2.18817 -0.49011,4.3883 -0.66439,6.60229 -3.97614,1.63306 -7.56587,3.24116 -10.72226,4.75158 -5.28001,-0.84557 -10.48213,-2.36266 -15.5104,-4.56373 -9.83064,-4.30535 -20.35155,-15.98802 -30.24674,-30.30473 -1.03276,-1.49751 -2.06634,-3.02831 -3.08619,-4.58391 -0.99404,-1.51687 -1.98797,-3.05241 -2.96265,-4.60156 -2.45927,-3.90514 -4.8536,-7.91327 -7.17087,-11.95396 -0.92303,-1.60724 -1.83361,-3.2211 -2.72437,-4.83479 -0.89076,-1.60724 -1.76236,-3.20894 -2.6273,-4.80327 -7.60373,-14.12306 -13.98748,-27.81309 -18.18309,-37.62436 8.92051,-3.16284 21.25003,-7.1333 34.76635,-10.78025 1.7557,-0.4712 3.53707,-0.94235 5.3315,-1.40064 l -0.0126,-0.006 c 1.78797,-0.45829 3.59461,-0.91003 5.4084,-1.34896 4.49899,-1.09086 9.06242,-2.11636 13.61305,-3.04585 1.81379,-0.36792 3.62754,-0.72979 5.43488,-1.05899 1.8267,-0.33564 3.63385,-0.64608 5.44119,-0.943 9.61439,-1.57497 18.9085,-2.54077 27.15045,-2.5214 z m 321.11815,4.99994 c 7.64246,0 16.32376,1.01381 25.40564,2.67269 1.79443,0.32919 3.60203,0.68461 5.42227,1.05898 1.77507,0.36793 3.5637,0.75446 5.35168,1.16111 4.49898,1.01986 9.02975,2.16251 13.52228,3.38246 1.78797,0.48411 3.56904,0.98148 5.34411,1.49141 1.76215,0.50347 3.51826,1.02026 5.2546,1.5431 15.36238,4.60871 29.55695,9.77825 39.46496,13.74794 -4.07295,8.54613 -9.97987,20.06835 -16.96397,32.20334 -0.91016,1.57497 -1.83241,3.16229 -2.7748,4.75663 h 0.006 c -0.9424,1.58787 -1.89846,3.18876 -2.87314,4.7831 -2.41409,3.96323 -4.91814,7.92083 -7.4936,11.80016 -1.01986,1.53623 -2.04587,3.05977 -3.07864,4.56373 -1.05857,1.53624 -2.12438,3.04621 -3.19587,4.53727 -11.36687,15.82066 -23.54693,28.99496 -34.53942,33.29384 -2.80138,1.09731 -5.64729,1.97462 -8.52612,2.65882 -4.33761,-2.37536 -10.26393,-5.37689 -17.4481,-8.44291 -0.0516,-0.68421 -0.12218,-1.36822 -0.18028,-2.05242 1.39423,0.11618 2.79493,0.18784 4.19562,0.18784 6.39668,0 12.79989,-1.19434 18.93194,-3.59552 10.08237,-3.94387 20.31933,-15.32973 29.16883,-27.98756 1.05859,-1.51042 2.09171,-3.04136 3.10511,-4.5776 1.0134,-1.53624 2.00088,-3.07162 2.96265,-4.60786 2.54963,-4.07297 4.92545,-8.12078 7.08135,-11.96784 0.92949,-1.65887 1.8197,-3.27903 2.65882,-4.84109 0.90367,-1.68469 1.76276,-3.29854 2.5567,-4.83478 3.63404,-7.0099 6.07355,-12.29587 6.84813,-14.00639 l 2.32977,-5.13862 -5.19535,-2.19362 c -2.12362,-0.89721 -9.74759,-4.06082 -19.92033,-7.55286 -1.66533,-0.57447 -3.40107,-1.14859 -5.18904,-1.73598 -1.71052,-0.55511 -3.46633,-1.11042 -5.26721,-1.65908 -4.29889,-1.31032 -8.82325,-2.58192 -13.4126,-3.7115 -1.78797,-0.43893 -3.58231,-0.85814 -5.38319,-1.25188 -1.8267,-0.4002 -3.65372,-0.76872 -5.47397,-1.10437 -13.14193,-2.427 -25.88985,-3.07874 -34.70709,0.36812 -7.77801,3.0402 -14.4017,7.76562 -19.64298,13.58783 -1.42005,-1.80734 -2.87853,-3.57595 -4.36959,-5.3252 1.60079,-3.83414 2.9625,-7.39699 4.09854,-10.60502 4.41507,-3.23384 9.27584,-5.9328 14.51067,-7.97897 4.69263,-1.83316 10.64426,-2.6273 17.41532,-2.6273 z m -278.4989,10.09569 c 0.63257,0.23883 1.29837,0.49697 1.9503,0.75516 0.90367,0.34856 1.82595,0.72355 2.7748,1.10438 0.33565,0.13555 0.67151,0.27024 1.01361,0.41225 0.56156,0.23237 1.12384,0.46575 1.69186,0.71103 1.78798,0.75521 3.63299,1.57437 5.5307,2.44576 0.91658,0.41956 1.84011,0.85819 2.77606,1.30357 v -0.006 c 3.75022,1.79443 7.64847,3.81504 11.63753,6.06776 1.56851,0.89076 3.1574,1.81415 4.74528,2.78237 1.4846,0.89721 2.9756,1.83305 4.46666,2.80127 0.0645,0.0387 0.12834,0.0836 0.19289,0.12229 1.81379,1.17477 3.62108,2.39437 5.43488,3.67242 1.44587,1.01986 2.88605,2.0787 4.32546,3.1631 0.0839,0.0645 0.16067,0.12975 0.24458,0.18784 0.45183,0.3421 0.89711,0.69656 1.34894,1.04512 1.05214,0.81976 2.09852,1.64653 3.1442,2.50501 0.38083,0.30983 0.76136,0.63177 1.14219,0.94805 1.40714,1.17477 2.80153,2.38883 4.18931,3.6346 1.84607,1.66534 3.67953,3.3631 5.47396,5.15753 7.72638,7.72637 14.8908,15.6982 21.21003,23.55367 -2.8982,1.79443 -5.64179,3.80838 -8.21724,6.02237 l -27.87789,-23.20572 -4.23469,-3.52366 -3.20092,-2.66638 -1.03377,-0.85853 -3.25891,-2.71051 -3.2274,-2.6853 2.6853,3.2274 2.7042,3.2526 0.86484,1.04008 2.66008,3.19462 3.52365,4.2347 23.21834,27.89678 c -2.20109,2.58191 -4.21549,5.33262 -6.00346,8.24372 -7.84256,-6.30632 -15.78797,-13.45188 -23.57889,-21.24281 -1.80089,-1.80088 -3.5048,-3.6413 -5.17014,-5.50673 -1.23931,-1.38778 -2.44737,-2.78832 -3.61568,-4.20192 l -0.90897,-1.10312 c -0.48411,-0.60029 -0.97483,-1.20124 -1.44603,-1.80154 -0.36792,-0.46474 -0.71643,-0.93589 -1.07789,-1.40063 -0.33565,-0.43893 -0.67811,-0.87725 -1.00731,-1.31618 -1.14894,-1.52978 -2.25927,-3.06658 -3.33076,-4.60281 -0.0323,-0.0516 -0.0709,-0.10343 -0.10968,-0.15507 -1.23287,-1.78152 -2.40149,-3.56259 -3.53753,-5.34411 -0.99404,-1.56206 -1.94884,-3.12412 -2.87188,-4.67973 -0.32919,-0.56156 -0.66565,-1.12288 -0.98839,-1.67799 -0.60029,-1.03921 -1.18057,-2.07864 -1.74859,-3.11141 -2.77556,-5.03473 -5.17735,-9.94673 -7.23642,-14.58126 -0.82621,-1.85898 -1.59438,-3.67288 -2.31087,-5.42858 -0.0194,-0.0452 -0.0387,-0.0973 -0.058,-0.14246 0,0 1.5e-4,-0.0125 -0.006,-0.0189 -0.78102,-1.92352 -1.49725,-3.76949 -2.1621,-5.54456 -0.24528,-0.65839 -0.49757,-1.33019 -0.72994,-1.96921 z m 234.93538,0.34922 c -0.21947,0.58093 -0.45849,1.19368 -0.69087,1.79397 -0.43247,1.11668 -0.89005,2.26569 -1.37416,3.44046 -0.10973,0.2711 -0.21285,0.53575 -0.32904,0.80685 -0.16783,0.40665 -0.34261,0.81986 -0.51689,1.23296 -0.75521,1.78797 -1.56806,3.63425 -2.43946,5.53196 -0.47765,1.03276 -0.96887,2.08418 -1.47879,3.14922 -1.74925,3.64696 -3.71191,7.43688 -5.90009,11.30976 -0.89076,1.57496 -1.81919,3.16214 -2.78741,4.76292 -0.80685,1.32969 -1.64022,2.66532 -2.4987,4.00146 -0.14201,0.21947 -0.27781,0.43359 -0.41982,0.65305 -1.16186,1.79443 -2.3682,3.59506 -3.63334,5.38949 -0.98113,1.38778 -1.98883,2.78151 -3.0345,4.16284 -0.10328,0.13555 -0.2119,0.27166 -0.31518,0.40721 -0.34856,0.46474 -0.71658,0.92217 -1.0716,1.38046 -0.80685,1.03922 -1.62666,2.07864 -2.47223,3.11141 -0.32274,0.39374 -0.6592,0.79384 -0.98839,1.18758 -1.16832,1.40069 -2.37511,2.79538 -3.61443,4.1767 -1.69115,1.8848 -3.42789,3.75064 -5.2546,5.57734 -7.72637,7.72638 -15.61414,14.82631 -23.39861,21.10036 -1.80734,-2.90466 -3.83959,-5.65425 -6.06649,-8.23617 l 23.19185,-27.86526 3.52366,-4.2347 2.67269,-3.20848 0.85223,-1.02621 2.71681,-3.25891 2.58822,-3.10511 -3.11015,2.58822 -3.24757,2.7042 -1.03881,0.8661 -3.19462,2.65882 -4.23469,3.52366 -27.91065,23.22463 c -2.59483,-2.20108 -5.35139,-4.21437 -8.26894,-5.99589 6.30632,-7.83611 13.45889,-15.78867 21.1659,-23.49568 1.83961,-1.83962 3.73102,-3.58836 5.64164,-5.29243 1.38778,-1.23931 2.78816,-2.44107 4.20822,-3.60938 0.35501,-0.29047 0.70271,-0.58714 1.05772,-0.87115 0.55512,-0.45183 1.1177,-0.90372 1.67926,-1.34264 0.52283,-0.41311 1.05162,-0.80614 1.58092,-1.2128 0.42601,-0.32274 0.84603,-0.65824 1.27205,-0.97452 1.52978,-1.1425 3.06532,-2.25943 4.60155,-3.32447 1.84607,-1.27805 3.6985,-2.49135 5.54457,-3.66612 1.5685,-0.99403 3.12396,-1.95025 4.68602,-2.86683 0.43247,-0.25173 0.85864,-0.50987 1.28466,-0.75516 1.17477,-0.67775 2.33658,-1.33523 3.49844,-1.97426 5.03473,-2.7691 9.94058,-5.16378 14.56866,-7.20994 1.91707,-0.84558 3.78891,-1.64703 5.59625,-2.37643 0.0194,-0.006 0.0449,-0.0188 0.0643,-0.0252 0.0968,-0.0387 0.1944,-0.0837 0.29122,-0.11599 l -0.006,-0.0126 c 1.80089,-0.72939 3.53002,-1.38849 5.19535,-2.01459 0.60675,-0.22592 1.22676,-0.45769 1.81415,-0.6707 z m -280.74421,5.92403 c 5.48576,-0.0178 10.25692,0.62344 13.8135,2.18228 6.54515,2.86591 12.09562,7.28771 16.27187,12.84528 -3.39522,4.67326 -6.55832,9.52777 -9.45651,14.55605 -0.9424,1.63306 -1.84512,3.28528 -2.72942,4.95707 -0.0323,0.0581 -0.0585,0.10958 -0.0908,0.16767 -0.8262,1.55561 -1.62706,3.12478 -2.40163,4.7062 -0.0581,0.10973 -0.10958,0.22562 -0.16767,0.33535 -0.75521,1.54915 -1.48501,3.11106 -2.18858,4.68602 -1.22641,2.73683 -2.37511,5.51265 -3.45306,8.32693 -0.60675,1.58788 -1.19333,3.18846 -1.7549,4.79571 -0.0387,0.12264 -0.0847,0.23918 -0.12985,0.36182 -0.57447,1.65888 -1.12238,3.32407 -1.64521,5.00876 l -0.0782,0.25088 c -0.54866,1.77506 -1.059,3.5697 -1.54311,5.37059 -1.05858,3.91805 -1.98146,7.89466 -2.74958,11.92244 -7.00989,0.75521 -14.12319,-0.31644 -20.7587,-3.22108 -5.88676,-2.58192 -12.19956,-9.31427 -18.23478,-17.75067 -1.12959,-1.57497 -2.24591,-3.20193 -3.34968,-4.88018 -1.04567,-1.58787 -2.07139,-3.21387 -3.09124,-4.8663 -2.48509,-4.04069 -4.87321,-8.22966 -7.10657,-12.38008 -0.89076,-1.65888 -1.76296,-3.30511 -2.60209,-4.93817 -0.86494,-1.67179 -1.69705,-3.32432 -2.49744,-4.94447 -2.54964,-5.15737 -4.77095,-9.9726 -6.52665,-13.98747 2.64646,-0.91658 5.66831,-1.91743 8.94089,-2.94374 1.69115,-0.52929 3.45341,-1.06534 5.26721,-1.60109 1.73633,-0.51638 3.5237,-1.02575 5.35041,-1.52923 4.39571,-1.21995 8.99854,-2.39477 13.63952,-3.44045 1.84607,-0.41311 3.69834,-0.81336 5.55087,-1.18128 1.8848,-0.37438 3.75618,-0.72268 5.61516,-1.03251 6.41928,-1.08118 12.62043,-1.75858 18.10618,-1.77633 z m 190.2095,4.1641 c 1.2135,0.30337 2.41384,0.62596 3.61443,0.97452 3.05311,0.87784 6.04809,1.89105 8.98502,3.02063 2.89819,1.11668 5.74552,2.34355 8.52107,3.6926 1.83316,0.89076 3.6395,1.83386 5.42102,2.82145 0.92303,0.50993 1.8333,1.03256 2.73698,1.56831 -0.46475,0.39374 -0.92218,0.78738 -1.38047,1.18758 -0.62612,0.54866 -1.25233,1.09751 -1.87845,1.65908 -1.97516,1.77507 -3.92501,3.60732 -5.84208,5.52439 -7.8361,7.8361 -14.9552,15.7507 -21.21634,23.46417 1.0134,-9.82418 1.56832,-20.37219 1.56832,-31.37759 0,-3.28548 -0.11004,-6.5386 -0.31014,-9.74017 -0.0129,-0.21946 -0.0388,-0.43232 -0.0517,-0.65178 -0.0452,-0.71649 -0.10958,-1.43317 -0.16767,-2.14319 z m -54.54296,0.13615 c -0.0516,0.61321 -0.10358,1.21985 -0.14876,1.83306 -0.0581,0.83912 -0.10343,1.68465 -0.15506,2.53022 -0.14201,2.65292 -0.23828,5.33116 -0.23828,8.03571 0,10.97313 0.55506,21.50721 1.56201,31.31203 -6.21595,-7.64246 -13.2711,-15.47859 -21.02975,-23.23724 -2.25272,-2.25272 -4.55704,-4.40832 -6.88721,-6.46739 -0.20655,-0.18073 -0.41356,-0.36122 -0.62657,-0.54841 -0.50993,-0.44538 -1.0193,-0.89127 -1.52923,-1.32373 1.00695,-0.6003 2.01954,-1.18688 3.04585,-1.7549 2.76911,-1.53624 5.60382,-2.9573 8.50847,-4.26117 2.83365,-1.26514 5.73136,-2.41399 8.68119,-3.44675 l 0.0126,-0.006 c 1.89125,-0.65839 3.80243,-1.27164 5.7324,-1.82675 1.01986,-0.29046 2.03957,-0.57372 3.07233,-0.83837 z m 191.8358,0.82576 c 4.36989,0 9.1531,0.50352 14.24592,1.34264 1.91062,0.31629 3.85336,0.67756 5.81562,1.08421 1.85897,0.38083 3.73793,0.80649 5.62272,1.25187 4.61517,1.09732 9.26237,2.37633 13.78072,3.72538 1.80734,0.5422 3.58226,1.08995 5.33151,1.65151 1.79442,0.57448 3.55038,1.15001 5.2609,1.73095 5.45429,1.83961 10.42494,3.67918 14.50436,5.27351 -1.22641,2.52382 -2.65312,5.36363 -4.24099,8.40383 -0.81976,1.56851 -1.6844,3.19482 -2.59453,4.8537 -0.86494,1.59433 -1.76967,3.21514 -2.69916,4.86756 -2.24626,3.97615 -4.67937,8.06738 -7.22256,12.09517 -1.00694,1.59433 -2.03295,3.17691 -3.07863,4.73897 -1.07149,1.60079 -2.15025,3.17485 -3.24756,4.71754 -7.54564,10.60521 -15.61974,19.44829 -22.84264,22.26902 -6.75816,2.64001 -13.79455,3.35034 -20.52042,2.40794 -0.91658,-5.77057 -2.14199,-11.43809 -3.64595,-16.9892 -0.49056,-1.82025 -1.00816,-3.62784 -1.56327,-5.42228 l -0.058,-0.19288 c -0.52283,-1.67825 -1.07074,-3.35004 -1.64521,-5.00247 -0.0387,-0.12264 -0.0847,-0.23918 -0.12985,-0.36182 -0.56803,-1.6266 -1.16187,-3.24645 -1.77507,-4.8537 -1.0715,-2.79491 -2.21293,-5.55777 -3.43289,-8.27523 -0.70357,-1.57497 -1.43337,-3.13688 -2.18858,-4.68603 -0.0516,-0.10973 -0.10958,-0.22562 -0.16767,-0.33535 -0.77457,-1.58141 -1.58188,-3.15059 -2.40163,-4.70619 -0.0323,-0.0581 -0.0585,-0.10958 -0.0908,-0.16768 -0.8843,-1.66533 -1.79347,-3.32401 -2.72942,-4.95707 -2.03325,-3.52431 -4.19011,-6.95872 -6.46865,-10.30875 4.33116,-5.3962 10.08289,-9.77921 16.9766,-12.47085 3.01438,-1.17477 6.83522,-1.6843 11.20511,-1.6843 z M 409.2292,306.65931 c 1.03277,2.16881 2.12968,4.3825 3.298,6.62877 0.67129,1.2845 1.36241,2.57657 2.07889,3.88044 0.88431,1.60078 1.79428,3.21337 2.74959,4.83352 0.92303,1.56852 1.88525,3.14368 2.88575,4.72511 2.05907,3.25967 4.266,6.53235 6.64137,9.78556 -0.73585,1.1425 -1.44608,2.29861 -2.14319,3.46692 -1.42006,2.37537 -2.76185,4.80191 -4.01408,7.28055 -1.11022,2.18817 -2.15564,4.41498 -3.13032,6.67415 -0.48411,1.11668 -0.95652,2.23396 -1.4019,3.36355 -0.89721,2.24627 -1.71687,4.53101 -2.47853,6.84183 -0.8714,2.63354 -1.65173,5.30563 -2.34239,8.0231 -0.20655,0.80684 -0.4066,1.61985 -0.59379,2.43315 -0.12909,0.55511 -0.24548,1.11657 -0.36812,1.67169 -0.51638,0.0774 -1.02041,0.16823 -1.5368,0.25214 -3.40812,0.5422 -6.74429,1.17472 -9.99105,1.88475 -1.8267,0.40019 -3.63475,0.81294 -5.40336,1.25187 -1.83316,0.45829 -3.62104,0.93655 -5.38319,1.42712 -3.93742,1.09731 -7.70007,2.27834 -11.26311,3.50475 0.16137,-1.38778 0.33585,-2.76921 0.5295,-4.13763 v 0.006 c 0.29046,-2.02681 0.6129,-4.04645 0.98082,-6.05389 0.39374,-2.14944 0.83206,-4.27963 1.31617,-6.3968 0.0194,-0.0968 0.0385,-0.1944 0.0643,-0.29122 0.49702,-2.1559 1.04664,-4.28593 1.62757,-6.4031 0.49056,-1.78152 1.01335,-3.54302 1.56201,-5.29873 0.0645,-0.20654 0.13464,-0.4137 0.19919,-0.62026 0.50347,-1.58142 1.03967,-3.14933 1.59479,-4.70494 0.63256,-1.77506 1.29731,-3.54458 1.99442,-5.28737 0.52284,-1.30387 1.06489,-2.60083 1.62001,-3.89179 0.7552,-1.74279 1.53649,-3.47207 2.35625,-5.18904 0.71647,-1.50397 1.45212,-2.98852 2.21378,-4.46666 0.0904,-0.17428 0.18054,-0.34892 0.27736,-0.5232 0.86494,-1.65888 1.75595,-3.2991 2.67899,-4.91925 1.09731,-1.92352 2.23416,-3.81387 3.40893,-5.68576 0.89076,-1.42005 1.79978,-2.83431 2.73572,-4.22209 1.21996,-1.80734 2.47965,-3.58225 3.77706,-5.3315 1.12313,-1.52333 2.27814,-3.02745 3.45937,-4.51205 z m 240.10552,0.0265 c 0.92303,1.15541 1.82604,2.31722 2.7168,3.49844 1.22641,1.62661 2.40845,3.28514 3.57031,4.96339 1.23932,1.79443 2.44611,3.62144 3.61443,5.47396 l 0.0971,0.15506 -0.006,-0.0328 c 1.17477,1.87189 2.31036,3.7635 3.40767,5.68703 0.92303,1.62014 1.81405,3.25911 2.67899,4.91799 0.0904,0.17428 0.18698,0.34891 0.27735,0.52319 0.76167,1.47169 1.50377,2.9627 2.21379,4.46666 0.81331,1.71052 1.60104,3.4398 2.35625,5.18905 0.54866,1.27159 1.08471,2.5567 1.60109,3.84766 0.70358,1.76215 1.37432,3.53707 2.01334,5.3315 0.55511,1.5556 1.08486,3.12477 1.59479,4.7062 0.0646,0.19364 0.12849,0.38628 0.18659,0.57992 0.56156,1.76861 1.08516,3.55094 1.58217,5.34537 0.58739,2.11717 1.13574,4.25366 1.62631,6.4031 0.38083,1.65242 0.72223,3.31695 1.05142,4.98229 0.41956,2.13653 0.80055,4.29229 1.12329,6.46109 0.29046,1.93643 0.542,3.88614 0.76146,5.84839 -1.85252,-0.65839 -3.75013,-1.31032 -5.70594,-1.93644 -1.85897,-0.60029 -3.75658,-1.18057 -5.70592,-1.74859 -1.75571,-0.50992 -3.53647,-1.0013 -5.35672,-1.47249 -1.76216,-0.45184 -3.56295,-0.88432 -5.38319,-1.29096 -3.71151,-0.83912 -7.52644,-1.58798 -11.45095,-2.20119 -0.30338,-1.40069 -0.62707,-2.79411 -0.98209,-4.17544 -0.69066,-2.71101 -1.47098,-5.38309 -2.34238,-8.0231 -0.76167,-2.31081 -1.58778,-4.59682 -2.47854,-6.84308 -0.45829,-1.15541 -0.94285,-2.29685 -1.43341,-3.43289 -0.96822,-2.23336 -2.00023,-4.43474 -3.09754,-6.60355 -1.2716,-2.49801 -2.62776,-4.95138 -4.06072,-7.34611 -0.4002,-0.67129 -0.81356,-1.34219 -1.22667,-2.00703 -0.34855,-0.56157 -0.70382,-1.12288 -1.06529,-1.67799 0.35502,-0.47766 0.70413,-0.95577 1.05269,-1.43342 1.96225,-2.71746 3.80807,-5.44825 5.55086,-8.15926 1.01341,-1.57496 1.98889,-3.14288 2.92483,-4.70493 0.96822,-1.6137 1.89776,-3.21398 2.79498,-4.80831 2.01388,-3.57596 3.84029,-7.08752 5.49917,-10.48273 z m -25.0766,38.71486 c 0.62611,1.04568 1.23921,2.10421 1.83305,3.17571 1.5427,2.78201 2.97496,5.63503 4.27882,8.55259 1.26514,2.83365 2.41399,5.73261 3.44676,8.68245 0.65839,1.89125 1.27164,3.80116 1.82675,5.73115 0.3292,1.14249 0.63994,2.28504 0.9304,3.44045 -0.6842,-0.0581 -1.36317,-0.11604 -2.04738,-0.16768 -0.72293,-0.0516 -1.45162,-0.0834 -2.18101,-0.12859 -2.67873,-0.14846 -5.38335,-0.23953 -8.12017,-0.23953 -11.34105,0 -22.21694,0.58759 -32.29286,1.65908 7.83611,-6.3386 15.87844,-13.55496 23.84364,-21.52016 2.32372,-2.32372 4.54423,-4.69894 6.66785,-7.10657 l 0.006,0.0126 c 0.14201,-0.16137 0.28396,-0.32889 0.43242,-0.49671 0.46474,-0.52929 0.92359,-1.05904 1.37542,-1.59479 z m -190.1326,0.33031 c 0.41311,0.48411 0.83232,0.96822 1.25188,1.45232 0.50992,0.58739 1.02656,1.17397 1.5494,1.7549 1.76215,1.96225 3.59501,3.90515 5.49918,5.80931 7.86838,7.86838 15.82054,15.01384 23.56627,21.3008 -9.89517,-1.03277 -20.5453,-1.59353 -31.64106,-1.59353 -3.18866,0 -6.33901,0.10262 -9.45021,0.29627 l -0.85098,0.058 h -0.008 c -0.68421,0.0452 -1.3545,0.10342 -2.03225,0.15506 0.29046,-1.14895 0.60009,-2.29195 0.92283,-3.42154 0.87785,-3.05312 1.89106,-6.04809 3.02064,-8.98502 1.11668,-2.8982 2.34354,-5.74426 3.69259,-8.51981 0.89077,-1.83316 1.83261,-3.64076 2.82019,-5.42228 0.53575,-0.96822 1.09106,-1.92917 1.65908,-2.88448 z"
       style="fill:#ffffff;stroke-width:0.264583" /><path
       id="path3003"
       style="fill:none;stroke:#000000;stroke-width:13.2292;stroke-linecap:round;stroke-linejoin:miter;stroke-miterlimit:0;stroke-dasharray:none"
       d="M 529.16667 105.83333 A 291.04166 291.04166 0 0 0 238.125 396.875 L 238.125 661.45833 L 324.11458 661.45833 L 324.11458 396.875 L 734.21875 396.875 L 734.21875 661.45833 L 820.20833 661.45833 L 820.20833 396.875 A 291.04166 291.04166 0 0 0 529.16667 105.83333 z " /><text
       xml:space="preserve"
       transform="matrix(0,-1.8224375,1.6589873,0,-5405.845,3747.9925)"
       id="text3091"
       style="font-style:normal;font-variant:normal;font-weight:normal;font-stretch:normal;font-size:40px;font-family:Chandas;-inkscape-font-specification:Chandas;letter-spacing:0px;writing-mode:lr-tb;white-space:pre;shape-inside:url(#rect3093);display:inline;fill:#000000;stroke:#000000;stroke-width:0.575114;stroke-linecap:round;stroke-linejoin:miter;stroke-miterlimit:0;stroke-dasharray:none"><tspan
         x="1700"
         y="3440.7517"
         id="tspan19010"><tspan
           style="font-family:'Electronics PERSONAL USE';-inkscape-font-specification:'Electronics PERSONAL USE';text-orientation:upright"
           id="tspan19008">Phonic
</tspan></tspan></text><text
       xml:space="preserve"
       transform="matrix(0,1.8224375,-1.6589873,0,6465.4721,-2689.5956)"
       id="text3091-0"
       style="font-style:normal;font-variant:normal;font-weight:normal;font-stretch:normal;font-size:40px;font-family:Chandas;-inkscape-font-specification:Chandas;letter-spacing:0px;writing-mode:lr-tb;white-space:pre;shape-inside:url(#rect3093-2);display:inline;fill:#000000;stroke:#000000;stroke-width:0.575114;stroke-linecap:round;stroke-linejoin:miter;stroke-miterlimit:0;stroke-dasharray:none"><tspan
         x="1700"
         y="3440.7517"
         id="tspan19014"><tspan
           style="font-family:'Electronics PERSONAL USE';-inkscape-font-specification:'Electronics PERSONAL USE';text-orientation:upright"
           id="tspan19012">Bloom
</tspan></tspan><tspan
         x="1700"
         y="3502.5034"
         id="tspan19018"><tspan
           style="font-family:'Electronics PERSONAL USE';-inkscape-font-specification:'Electronics PERSONAL USE';text-orientation:upright"
           id="tspan19016">
</tspan></tspan></text><rect
       style="fill:#ffffff;fill-opacity:1;stroke:none;stroke-width:1.32292;stroke-linecap:round;stroke-miterlimit:0;stroke-dasharray:none;stroke-opacity:1"
       id="rect20602-97-6-1-2-9"
       width="8.8658409"
       height="6.7060728"
       x="639.32672"
       y="-282.65051"
       transform="scale(1,-1)" /><g
       id="g6756"
       transform="translate(380.99973,218.17353)"><path
         id="path5600"
         style="fill:#000000;stroke-width:0.169422"
         d="m 147.6592,155.8432 c -0.80485,-0.008 -1.59269,0.0107 -2.35076,0.0486 -5.14956,0.89067 -9.16319,2.54423 -12.38425,6.92929 -0.30611,0.47813 -0.56654,0.91532 -0.80151,1.35289 h 32.08642 c -0.35281,-0.68007 -0.74278,-1.34248 -1.18132,-1.96836 -3.24678,-4.97229 -9.7346,-6.30906 -15.36858,-6.3624 z" /><path
         inkscape:connector-curvature="0"
         style="fill:#000000;stroke-width:0.169422"
         d="m 140.36095,158.75319 c 0,-0.12102 -0.0436,-0.21997 -0.097,-0.21997 -0.0533,0 -0.1581,0.099 -0.23284,0.21997 -0.0747,0.12102 -0.0311,0.21996 0.097,0.21996 0.12806,0 0.23285,-0.0989 0.23285,-0.21996 z"
         id="path5594" /><path
         id="path5579"
         style="fill:#000000;stroke-width:0.169422"
         d="m 66.686886,151.17062 c -0.201947,0.005 -0.475137,0.0429 -0.865064,0.10955 -0.665135,0.1137 -2.644128,0.43786 -4.397664,0.72037 -1.753535,0.2825 -3.336732,0.57789 -3.518132,0.65629 -0.181401,0.0784 -1.368796,0.33752 -2.638598,0.57619 -2.919138,0.54856 -7.010291,1.50915 -7.585584,1.78077 -0.241869,0.11419 -1.083069,0.36798 -1.869136,0.56431 -0.786068,0.19639 -1.528054,0.43512 -1.648995,0.53072 -0.120935,0.0955 -0.813324,0.34337 -1.538925,0.55087 -0.725601,0.20745 -1.418499,0.45407 -1.539441,0.54777 -0.120934,0.0937 -0.615414,0.29404 -1.099157,0.44545 -0.483717,0.15133 -1.176641,0.44568 -1.539441,0.65422 -0.362801,0.20843 -1.006086,0.51489 -1.42937,0.68058 -1.579027,0.6185 -5.499139,2.91257 -7.115328,4.16409 -0.30832,0.23875 -0.766395,0.61672 -1.251087,1.02216 h 55.9139 c -0.399521,-0.11705 -0.798826,-0.24338 -1.206128,-0.39119 -5.547352,-2.01325 -9.374619,-4.78398 -14.394987,-10.42107 -0.75115,-0.84343 -1.493149,-1.7035 -1.648995,-1.911 -0.152265,-0.20272 -0.29129,-0.28794 -0.627868,-0.28008 z" /><path
         inkscape:connector-curvature="0"
         style="fill:#000000;stroke-width:0.169422"
         d="m 50.430287,158.75438 c 0,-0.12102 -0.09895,-0.21996 -0.219888,-0.21996 -0.120943,0 -0.219888,0.0989 -0.219888,0.21996 0,0.12102 0.09895,0.21997 0.219888,0.21997 0.120942,0 0.219888,-0.0989 0.219888,-0.21997 z"
         id="path5576" /><path
         id="path5573"
         style="fill:#000000;stroke-width:0.169422"
         d="m 229.32244,151.06726 -0.66973,0.82011 c -4.8001,5.79539 -10.36535,10.47237 -17.42943,12.28659 h 56.45961 c -0.48487,-0.40558 -0.9432,-0.78334 -1.25161,-1.02216 -9.09953,-6.84091 -20.39243,-8.89178 -31.41203,-11.09286 -1.69307,-0.2866 -3.66785,-0.62696 -4.38785,-0.75655 z" /><path
         inkscape:connector-curvature="0"
         style="fill:#000000;stroke-width:0.169422"
         d="m 230.51148,158.8773 c 0,-0.0532 -0.0989,-0.15816 -0.21989,-0.23295 -0.12094,-0.0748 -0.21988,-0.0312 -0.21988,0.0969 0,0.12803 0.0989,0.23295 0.21988,0.23295 0.12095,0 0.21989,-0.0436 0.21989,-0.0969 z"
         id="path5570" /><path
         sodipodi:nodetypes="ccccccsccccccsccccccccscccc"
         inkscape:connector-curvature="0"
         style="fill:#000000;stroke-width:0.169422"
         d="m 99.903142,163.35593 c -1.027937,-0.11297 -2.116339,-0.29946 -2.418672,-0.41422 -5.03569,-0.97471 -10.09468,-2.66998 -14.512037,-4.97902 -6.333889,-2.91584 -12.879265,-8.44225 -16.610435,-11.97277 -5.321654,-5.03683 -12.528462,-14.34916 -16.431343,-21.23188 -0.335249,-0.59124 -0.858145,-1.47076 -1.161997,-1.9545 -0.606075,-0.96495 -1.196804,-2.18917 -1.196804,-2.48035 0,-0.24515 1.804022,-1.02436 3.429261,-1.48107 6.425293,-1.80561 12.843351,-1.48496 20.427651,1.02055 2.926853,0.83535 5.408433,2.20376 7.901849,3.49057 0.144185,0 0.425466,0.32156 0.625051,0.71462 0.674963,1.32917 3.612682,6.26318 3.894766,6.5414 0.06132,0.0605 0.507241,0.70332 0.990973,1.42861 2.253412,3.37849 5.111053,6.8479 8.241892,10.00635 4.02652,4.06202 5.055423,4.97595 8.139123,7.22966 0.66513,0.4861 1.30997,0.9627 1.43295,1.05913 0.22158,0.17374 2.14154,1.44019 3.62427,2.3907 1.27218,0.81553 4.61288,2.6058 6.48644,3.47605 0.96747,0.44936 2.0064,0.94775 2.30874,1.1075 0.30233,0.15971 0.94548,0.41505 1.42921,0.56734 0.48374,0.15218 0.97847,0.3476 1.0994,0.43403 0.1934,0.13816 4.83117,1.72844 5.55195,1.90371 0.15118,0.0369 0.27485,0.2062 0.27485,0.37636 0,0.35503 -1.85815,0.89464 -7.03614,2.04334 -3.29542,0.73106 -3.59357,0.75895 -9.01505,0.84275 -3.08381,0.0478 -6.44796,-0.005 -7.475898,-0.11894 z"
         id="path5567" /><path
         inkscape:connector-curvature="0"
         style="fill:#000000;stroke-width:0.169422"
         d="m 110.45735,158.75381 c 0,-0.12102 -0.0989,-0.21997 -0.21989,-0.21997 -0.12094,0 -0.21988,0.099 -0.21988,0.21997 0,0.12102 0.0989,0.21997 0.21988,0.21997 0.12095,0 0.21989,-0.099 0.21989,-0.21997 z"
         id="path5564" /><path
         inkscape:connector-curvature="0"
         style="fill:#000000;stroke-width:0.169422"
         d="m 80.33388,128.85024 c 0,-0.12103 -0.09895,-0.21997 -0.219888,-0.21997 -0.120942,0 -0.219888,0.0989 -0.219888,0.21997 0,0.12102 0.09895,0.21996 0.219888,0.21996 0.120943,0 0.219888,-0.0989 0.219888,-0.21996 z"
         id="path5561" /><path
         sodipodi:nodetypes="cscccccsccccccscsccc"
         inkscape:connector-curvature="0"
         style="fill:#000000;stroke-width:0.169422"
         d="m 174.49722,161.28879 c -1.2317,-0.29637 -1.59413,-0.47177 -1.59413,-0.77151 0,-0.28549 0.24316,-0.42687 0.92057,-0.53519 3.64884,-0.97912 7.54498,-2.73625 10.29328,-4.03808 1.49733,-0.7103 4.90344,-2.55791 5.93674,-3.2203 1.49524,-0.95851 3.40345,-2.21758 3.62427,-2.39132 0.12297,-0.0969 0.77712,-0.59152 1.45362,-1.09939 3.51255,-2.63707 3.93459,-3.00668 7.45543,-6.52901 3.66572,-3.66728 4.52804,-4.64549 6.88227,-7.80708 2.02504,-2.71953 3.5576,-4.99518 4.66445,-6.9262 0.31195,-0.5442 0.85615,-1.48419 1.20936,-2.08885 0.3532,-0.60468 0.80773,-1.41175 1.01004,-1.79351 11.12836,-5.45588 21.65427,-8.89418 31.85865,-4.16289 0.72864,0.18283 0.70049,0.68522 -0.10993,1.96315 -0.3628,0.57207 -0.65964,1.12253 -0.65964,1.22327 0,0.10076 -0.44525,0.84714 -0.98946,1.65865 -0.5442,0.81156 -0.98945,1.52223 -0.98945,1.57926 0,0.18984 -2.92532,4.55628 -4.66914,6.96936 -5.51873,7.63669 -11.4065,13.81012 -17.6529,18.50929 -18.15425,11.6785 -30.02347,14.57894 -48.64403,9.46035 z"
         id="path5558" /><path
         inkscape:connector-curvature="0"
         style="fill:#000000;stroke-width:0.169422"
         d="m 200.38801,158.75381 c 0,-0.12102 -0.099,-0.21997 -0.21989,-0.21997 -0.12094,0 -0.21989,0.099 -0.21989,0.21997 0,0.12102 0.099,0.21997 0.21989,0.21997 0.12094,0 0.21989,-0.099 0.21989,-0.21997 z"
         id="path5555" /><path
         inkscape:connector-curvature="0"
         style="fill:#000000;stroke-width:0.169422"
         d="m 230.51148,128.85024 c 0,-0.12103 -0.0989,-0.21997 -0.21989,-0.21997 -0.12094,0 -0.21988,0.0989 -0.21988,0.21997 0,0.12102 0.0989,0.21996 0.21988,0.21996 0.12095,0 0.21989,-0.0989 0.21989,-0.21996 z"
         id="path5552" /><path
         sodipodi:nodetypes="ccccccsccccscccccc"
         inkscape:connector-curvature="0"
         style="fill:#000000;stroke-width:0.169422"
         d="m 109.80279,150.25206 c -0.1842,-0.15166 -0.73068,-0.58212 -1.21441,-0.9566 -9.060195,-7.57117 -12.968826,-17.43798 -13.789569,-27.93484 -0.28072,-3.81092 -0.01818,-7.75493 0.52307,-7.85809 1.253034,1.01133 2.437931,2.6471 3.447686,3.66346 5.380523,4.90052 9.692843,7.98742 16.443103,9.60813 1.02845,0.18542 1.40132,0.45315 1.40132,1.00574 0,0.22879 0.0922,0.58762 0.20495,0.79761 1.1618,4.18548 2.76758,8.46669 5.19907,12.2553 1.558,2.38724 4.44832,5.33785 6.68935,6.82891 3.13424,1.97157 6.69563,3.21556 10.05948,3.73343 0.51397,0.0774 0.93449,0.21347 0.93449,0.30268 0,0.26837 -0.93909,1.04194 -1.75904,1.44902 -0.42327,0.2101 -0.91799,0.50499 -1.09939,0.65525 -0.18141,0.15036 -0.82455,0.45484 -1.42922,0.67683 -0.60467,0.22204 -1.1497,0.47478 -1.21118,0.56178 -0.0615,0.087 -1.14991,0.38018 -2.41868,0.65148 -7.84655,1.42638 -15.69635,-0.43406 -21.98103,-5.44009 z"
         id="path5549" /><path
         inkscape:connector-curvature="0"
         style="fill:#000000;stroke-width:0.169422"
         d="m 110.45735,128.84946 c 0,-0.12102 -0.0989,-0.21997 -0.21989,-0.21997 -0.12094,0 -0.21988,0.099 -0.21988,0.21997 0,0.12102 0.0989,0.21996 0.21988,0.21996 0.12095,0 0.21989,-0.0989 0.21989,-0.21996 z"
         id="path5546" /><path
         sodipodi:nodetypes="ccccccccscccccsccccccc"
         inkscape:connector-curvature="0"
         style="fill:#000000;stroke-width:0.169422"
         d="m 158.28111,153.08518 c -0.8371,-0.42063 -1.82196,-1.29164 -1.62941,-1.44102 0.0496,-0.0384 1.222,-0.28858 2.60524,-0.55571 1.38324,-0.26715 2.62006,-0.56923 2.74849,-0.6713 0.12842,-0.10206 0.48087,-0.2571 0.78321,-0.3447 1.43581,-0.41565 5.09517,-2.39983 6.07661,-3.29489 0.1374,-0.12517 0.7893,-0.69202 1.44869,-1.25936 2.46136,-2.11778 5.08076,-5.87945 6.72578,-9.65876 0.50632,-1.16325 0.9206,-2.23233 0.9206,-2.37577 0,-0.14335 0.18706,-0.67584 0.41566,-1.18319 0.22861,-0.50732 0.5411,-1.5161 0.69442,-2.2417 0.15333,-0.72561 0.36207,-1.41327 0.46386,-1.52816 0.1018,-0.11479 0.18508,-0.42435 0.18508,-0.68768 6.59618,-3.64785 16.23951,-5.3906 20.72489,-13.89032 0.12883,-0.27211 0.40429,-0.49473 0.61212,-0.49473 0.3332,0 0.39402,0.37052 0.51427,3.13328 -0.12135,8.71322 -1.59076,17.38936 -6.58622,24.82855 -1.97327,2.84023 -5.02865,6.16418 -7.23947,7.87574 -0.48373,0.37448 -1.03022,0.80496 -1.21441,0.9566 -1.52693,1.257 -5.79552,3.58817 -7.7208,4.21649 -2.22661,0.98362 -4.25199,1.18052 -6.63803,1.65411 -4.9417,0.61661 -9.57742,-0.68317 -13.89058,-3.03748 z"
         id="path5543" /><path
         sodipodi:nodetypes="cccccccscccccccccscscccc"
         inkscape:connector-curvature="0"
         style="fill:#000000;stroke-width:0.169422"
         d="m 143.8919,146.66228 c -8.10713,-1.71093 -15.20117,-8.00092 -17.67727,-15.33492 -0.81316,-2.52784 -1.02629,-4.01161 -1.01709,-7.0808 0.009,-3.01707 0.32322,-5.67829 1.16997,-9.90914 0.75017,-3.74817 2.42266,-9.88499 3.08614,-11.32381 0.16728,-0.3628 0.37626,-0.907 0.46436,-1.20932 0.0881,-0.30234 0.39596,-1.07209 0.68409,-1.71059 0.28816,-0.63847 0.52391,-1.21355 0.52391,-1.277929 0,-0.47668 3.55165,-7.590954 5.05307,-10.121731 0.94636,-1.595181 3.08258,-4.919965 3.30235,-5.139749 0.0605,-0.06051 0.54994,-0.753078 1.08772,-1.539138 1.31182,-1.917496 4.82345,-6.330448 6.17102,-7.754929 0.59845,-0.632629 1.09001,-1.224408 1.09238,-1.315095 0.0197,-0.759103 1.73916,1.037735 5.26554,5.502784 1.99609,2.527401 4.36208,5.930666 6.30148,9.064206 1.66772,2.694544 1.75851,2.860492 3.48903,6.376519 0.80352,1.632604 1.65395,3.334289 1.88984,3.781492 0.23588,0.44723 0.42887,0.918299 0.42887,1.046825 0,0.128551 0.19592,0.653146 0.43538,1.165793 1.28417,2.749182 3.22185,9.268872 4.3287,14.564602 1.8256,8.73452 1.48329,16.01466 -0.9623,20.4661 -1.30487,2.37511 -1.47145,2.64697 -2.13166,3.47881 -4.71535,5.71979 -11.18217,8.48131 -18.38095,8.86956 -1.68423,0.26238 -3.23361,-0.31844 -4.60458,-0.59954 z"
         id="path5540" /><path
         inkscape:connector-curvature="0"
         style="fill:#000000;stroke-width:0.169422"
         d="m 140.36095,128.84946 c 0,-0.12102 -0.10479,-0.21997 -0.23285,-0.21997 -0.12809,0 -0.17172,0.099 -0.097,0.21997 0.0747,0.12102 0.17953,0.21996 0.23284,0.21996 0.0533,0 0.097,-0.0989 0.097,-0.21996 z"
         id="path5537" /><path
         inkscape:connector-curvature="0"
         style="fill:#000000;stroke-width:0.169422"
         d="m 170.37448,128.84946 c 0.0747,-0.12102 0.0311,-0.21997 -0.097,-0.21997 -0.12806,0 -0.23285,0.099 -0.23285,0.21997 0,0.12102 0.0436,0.21996 0.097,0.21996 0.0533,0 0.15811,-0.0989 0.23285,-0.21996 z"
         id="path5534" /><path
         sodipodi:nodetypes="cccccccccscccccccccccscc"
         inkscape:connector-curvature="0"
         style="fill:#000000;stroke-width:0.169422"
         d="m 86.954205,123.58741 c -2.409593,-2.42245 -5.51963,-5.92627 -6.840205,-7.70636 -0.302335,-0.40752 -0.947921,-1.24313 -1.434648,-1.85691 -1.460548,-1.84179 -4.598446,-6.73353 -6.027331,-9.39615 -4.68455,-8.793316 -7.5899,-17.689366 -8.834424,-27.67008 -0.696575,-5.403293 -1.979407,-19.595822 -0.292967,-22.842332 0.165844,-0.165948 7.553736,3.736019 9.648063,5.095523 10.056134,6.037039 18.991723,13.423505 26.883877,21.231698 3.35945,3.328134 3.40497,3.386073 3.2836,4.177716 -0.60303,3.933053 -0.76554,5.385841 -0.90151,8.058778 -0.15408,3.028881 0.15325,9.809887 0.54112,11.939687 0.10349,0.56825 0.39546,2.25533 0.64882,3.74903 0.25336,1.49371 0.56197,2.90516 0.68581,3.13655 0.33531,0.6265 -0.34915,0.80486 -0.95936,0.25009 -0.26594,-0.24178 -1.11362,-0.87277 -1.88373,-1.40204 -0.7701,-0.5293 -2.119326,-1.4571 -2.998273,-2.06179 -0.878947,-0.60466 -2.32672,-1.59411 -3.217276,-2.19877 -1.379147,-1.05272 -2.802116,-1.90519 -4.037862,-2.97165 l -0.252169,1.26594 c -0.138706,0.69628 -0.353675,1.76066 -0.477731,2.36534 -0.48745,2.37608 -0.762804,8.39704 -0.636024,13.90736 0.07897,3.43282 0.04836,5.55197 -0.08022,5.55197 -0.114372,0 -1.382272,-1.18057 -2.817535,-2.62349 z"
         id="path5531" /><path
         inkscape:connector-curvature="0"
         style="fill:#000000;stroke-width:0.169422"
         d="m 80.33388,98.725967 c 0,-0.121021 -0.04363,-0.219966 -0.09697,-0.219966 -0.05332,0 -0.158105,0.09895 -0.232847,0.219966 -0.07474,0.12102 -0.03111,0.219965 0.09697,0.219965 0.128058,0 0.232847,-0.09895 0.232847,-0.219965 z"
         id="path5528" /><path
         sodipodi:nodetypes="cccccsccccccscccssc"
         inkscape:connector-curvature="0"
         style="fill:#000000;stroke-width:0.169422"
         d="m 206.43469,118.68004 c 0.082,-5.60658 -0.51529,-10.64123 -1.31928,-15.55969 l -0.63886,0.55129 c -2.94413,2.00546 -5.95029,4.34819 -8.87092,6.27254 -0.86679,0.47626 -2.11859,1.34428 -2.70852,1.87817 -0.34088,0.3085 -1.0844,0.44007 -1.0844,0.19192 0,-0.0683 0.097,-0.30574 0.21568,-0.5274 0.24017,-0.44873 0.97475,-4.54992 1.47831,-8.25332 0.47101,-3.463927 0.45379,-12.672085 -0.0292,-15.611422 -0.19872,-1.209345 -0.41695,-2.562824 -0.48496,-3.007768 -0.12227,-0.799772 -0.0849,-0.847271 3.28346,-4.17769 1.87392,-1.85283 4.07373,-3.962425 4.88847,-4.688027 8.81371,-7.642323 18.72559,-15.382189 29.12711,-20.54796 0.67246,-0.333974 1.33695,-0.732562 1.99571,-0.997352 0.53921,-0.134525 0.58028,-0.07973 0.85311,1.137252 2.0499,23.392922 -6.54026,48.033077 -19.85021,64.142637 -1.23665,1.45099 -6.48462,6.72774 -6.69107,6.72774 -0.0904,0 -0.16444,-3.38888 -0.16444,-7.53086 z"
         id="path5525" /><path
         inkscape:connector-curvature="0"
         style="fill:#000000;stroke-width:0.169422"
         d="m 200.38801,98.725967 c 0,-0.121021 -0.099,-0.219966 -0.21989,-0.219966 -0.12094,0 -0.21989,0.09895 -0.21989,0.219966 0,0.12102 0.099,0.219965 0.21989,0.219965 0.12094,0 0.21989,-0.09895 0.21989,-0.219965 z"
         id="path5522" /><path
         inkscape:connector-curvature="0"
         style="fill:#000000;stroke-width:0.169422"
         d="m 230.40154,68.822391 c 0.0747,-0.12102 0.0311,-0.219966 -0.097,-0.219966 -0.12806,0 -0.23285,0.09895 -0.23285,0.219966 0,0.12102 0.0436,0.219966 0.097,0.219966 0.0533,0 0.1581,-0.09895 0.23284,-0.219966 z"
         id="path5519" /><path
         sodipodi:nodetypes="ccccccccccccccc"
         inkscape:connector-curvature="0"
         style="fill:#000000;stroke-width:0.169422"
         d="m 113.15463,117.95423 c -0.47843,-0.65548 -2.47564,-4.24321 -2.72023,-4.88651 -0.12393,-0.32598 -0.3636,-0.89101 -0.5326,-1.25562 -1.04229,-2.2488 -2.13865,-6.17983 -2.66852,-9.56806 -0.43595,-2.787797 -0.43087,-11.343926 0.009,-14.512033 1.03828,-5.89036 2.45588,-12.885588 4.89252,-18.030116 3.54173,1.458683 7.14446,4.507016 9.03475,6.130635 1.71847,1.47655 4.51639,4.297152 5.36956,5.413032 0.2774,0.3628 0.55764,0.70911 0.62277,0.769595 0.34901,0.324027 2.61107,3.259884 2.83433,3.678625 0.22407,0.420194 0.15245,0.703371 -0.50051,1.978914 -4.52347,9.451081 -7.99673,19.041128 -10.90993,28.863498 -0.34088,1.14889 -0.85298,2.87971 -1.13799,3.84629 -0.36003,1.22109 -0.63338,1.77962 -0.89567,1.83013 -1.19822,-1.05292 -2.60379,-3.17343 -3.39705,-4.25838 z"
         id="path5516" /><path
         inkscape:connector-curvature="0"
         style="fill:#000000;stroke-width:0.169422"
         d="m 110.45735,98.848883 c 0,-0.05324 -0.0989,-0.158158 -0.21989,-0.232951 -0.12094,-0.07479 -0.21988,-0.03116 -0.21988,0.09687 0,0.128032 0.0989,0.232951 0.21988,0.232951 0.12095,0 0.21989,-0.04363 0.21989,-0.09687 z"
         id="path5513" /><path
         sodipodi:nodetypes="ccccccccccccccccccccccsscc"
         inkscape:connector-curvature="0"
         style="fill:#000000;stroke-width:0.169422"
         d="m 179.05347,120.98875 c -0.14151,-0.69537 -0.39082,-1.56113 -0.55399,-1.92393 -0.16317,-0.36281 -0.45438,-1.30279 -0.64713,-2.08885 -0.19275,-0.78609 -0.41067,-1.57765 -0.48428,-1.75905 -0.0736,-0.18153 -0.16226,-0.42877 -0.19709,-0.54968 -0.78296,-2.72158 -1.04682,-3.55574 -1.18242,-3.73797 -0.09,-0.12102 -0.28419,-0.71459 -0.43162,-1.31928 -0.14743,-0.60465 -0.40133,-1.39622 -0.56419,-1.75902 -0.16288,-0.3628 -0.46168,-1.25331 -0.66399,-1.97892 -0.20231,-0.7256 -0.44735,-1.41822 -0.54451,-1.53916 -0.0972,-0.12102 -0.33404,-0.75347 -0.52639,-1.40563 -0.34128,-1.15712 -1.26899,-3.651171 -1.68544,-4.531113 -0.11448,-0.24178 -0.39425,-0.983951 -0.62171,-1.649095 -0.47996,-1.403419 -3.49666,-8.040676 -4.34203,-9.553221 l -0.57562,-1.029919 0.72725,-1.02997 c 2.12835,-3.01413 6.67213,-7.919656 9.5509,-10.311234 2.58014,-2.056175 4.94674,-4.260924 7.88769,-5.120817 0.17802,0 0.44112,0.355893 0.58468,0.790839 2.16172,5.563761 3.50113,11.625809 4.30946,17.239277 0.4444,3.17543 0.44602,11.713562 0.003,14.512033 -1.65832,6.57101 -2.99677,13.62332 -8.33207,18.88742 -0.33256,0.30795 -0.60467,0.68628 -0.60467,0.84075 0,0.15452 -0.19087,0.28087 -0.42417,0.28087 -0.33995,0 -0.47524,-0.25088 -0.68147,-1.26433 z"
         id="path5510" /><path
         sodipodi:nodetypes="cscccccccccccccsccccccccscc"
         inkscape:connector-curvature="0"
         style="fill:#000000;stroke-width:0.169422"
         d="m 131.88422,78.112277 c -2.74482,-3.199323 -8.42541,-7.97222 -8.88521,-8.410386 -0.34464,-0.328416 -0.39359,-0.740405 0.0956,-2.135253 0.69429,-1.979616 1.38049,-3.760353 1.76146,-4.571059 0.17049,-0.362801 0.57388,-1.253312 0.8964,-1.978914 0.75764,-1.704437 3.25806,-6.718492 4.0571,-8.135545 1.07772,-1.911314 1.73778,-3.053215 2.24937,-3.891423 1.39889,-2.291931 2.30838,-3.72576 3.22365,-5.082174 0.55581,-0.823768 1.2118,-1.831248 1.45776,-2.238874 0.87024,-1.448477 1.97114,-2.697322 2.85102,-3.95627 2.27727,-3.274428 8.28549,-10.636144 8.68523,-10.641806 0.59651,-0.0078 8.7937,10.592463 12.4771,16.135864 4.32923,6.515303 6.47857,10.287783 9.45829,16.600883 1.11593,2.364335 1.74092,3.799879 2.05813,4.727424 0.16543,0.483717 0.35245,0.928973 0.41558,0.989457 0.10689,0.102321 1.31679,3.612609 1.31679,3.820291 0,0.05168 -0.33013,0.288864 -0.73363,0.526957 -1.83131,1.080482 -6.33259,5.380258 -8.7421,8.350785 -0.89871,1.107932 -1.27671,1.332339 -1.52446,0.8795 -0.18114,-0.323405 -0.57398,-1.166573 -1.96889,-3.243212 -3.54803,-5.160915 -7.07319,-11.079634 -11.71361,-15.925897 l -1.05048,-1.084014 -0.78951,0.754195 c -4.57749,4.971308 -8.33365,10.234025 -11.73634,15.879462 -0.99364,1.684986 -2.48686,3.894332 -2.63209,3.894332 -0.0784,0 -0.63059,-0.568951 -1.22717,-1.264323 z"
         id="path5507" /><path
         inkscape:connector-curvature="0"
         style="fill:#000000;stroke-width:0.169422"
         d="m 140.58082,38.821818 c 0,-0.232172 -0.42197,-0.329586 -0.54747,-0.126474 -0.076,0.122838 0.0161,0.223601 0.20469,0.223601 0.18852,0 0.34279,-0.04363 0.34279,-0.09687 z"
         id="path5504" /></g></g></svg>
